<svg width="218" height="191" viewBox="0 0 218 191" fill="none" xmlns="http://www.w3.org/2000/svg">
<g clip-path="url(#clip0_237_9650)">
<path d="M218 186.428C213.919 192.788 -0.32428 192.254 0.000368587 186.428C4.08124 180.069 218.324 180.603 218 186.428Z" fill="#D0CDE1"/>
<path d="M56.2934 186.429H41.7866L49.04 42.2168L56.2934 186.429Z" fill="#D0CDE1"/>
<path d="M54.0209 164.881L44.2222 154.172L68.5255 141.733L54.0209 164.881Z" fill="#D0CDE1"/>
<path d="M81.5955 102.671C81.5955 102.646 81.5952 102.621 81.5947 102.596C81.5702 101.467 81.5523 100.337 81.5411 99.2071L69.4504 107.062L81.5548 92.0297C81.5658 91.2113 81.5769 90.3929 81.5947 89.5744C81.5952 89.5495 81.5955 89.5245 81.5955 89.4996C81.5955 89.4746 81.5952 89.4497 81.5947 89.4248C81.5006 85.0834 81.5006 80.7427 81.5947 76.4028C81.5952 76.3778 81.5955 76.3529 81.5955 76.328C81.5955 76.303 81.5952 76.2781 81.5947 76.2532C81.5006 71.9118 81.5006 67.5711 81.5947 63.2311C81.5952 63.2062 81.5955 63.1813 81.5955 63.1563C81.5955 63.1314 81.5952 63.1064 81.5947 63.0815C81.5006 58.7401 81.5006 54.3995 81.5947 50.0595C81.5952 50.0346 81.5955 50.0096 81.5955 49.9847C81.5955 49.9597 81.5952 49.9348 81.5947 49.9099C81.5006 45.5685 81.5006 41.2278 81.5947 36.8879C81.5952 36.8629 81.5955 36.838 81.5955 36.813C81.5955 36.7881 81.5952 36.7632 81.5947 36.7382C81.5845 36.2677 81.5797 35.7972 81.5717 35.3266L64.7273 46.2696L81.568 25.3556C81.5769 24.8091 81.5828 24.2627 81.5947 23.7162C81.5952 23.6913 81.5955 23.6664 81.5955 23.6414C81.5955 23.6165 81.5952 23.5915 81.5947 23.5666C81.5006 19.2252 81.5006 14.8845 81.5947 10.5446C81.5952 10.5197 81.5955 10.4947 81.5955 10.4698C81.5955 4.68746 67.0954 0 49.2086 0C31.3219 0 16.8218 4.68746 16.8218 10.4698C16.8218 10.4947 16.822 10.5196 16.8226 10.5446C16.9166 14.886 16.9166 19.2266 16.8226 23.5666C16.822 23.5915 16.8218 23.6164 16.8218 23.6414C16.8218 23.6663 16.822 23.6913 16.8226 23.7162C16.9166 28.0576 16.9166 32.3983 16.8226 36.7382C16.822 36.7631 16.8218 36.7881 16.8218 36.813C16.8218 36.838 16.822 36.8629 16.8226 36.8878C16.9166 41.2292 16.9166 45.5699 16.8226 49.9099C16.822 49.9348 16.8218 49.9597 16.8218 49.9847C16.8218 50.0096 16.822 50.0346 16.8226 50.0595C16.9166 54.4009 16.9166 58.7415 16.8226 63.0815C16.822 63.1064 16.8218 63.1314 16.8218 63.1563C16.8218 63.1813 16.822 63.2062 16.8226 63.2311C16.8241 63.3028 16.8246 63.3745 16.8261 63.4462L31.3944 74.3806L16.8916 69.4623C16.8937 71.7257 16.8707 73.9893 16.8226 76.2531C16.822 76.2781 16.8218 76.303 16.8218 76.3279C16.8218 76.3529 16.822 76.3778 16.8226 76.4028C16.9166 80.7441 16.9166 85.0848 16.8226 89.4248C16.822 89.4497 16.8218 89.4746 16.8218 89.4996C16.8218 89.5245 16.822 89.5495 16.8226 89.5744C16.9166 93.9158 16.9166 98.2565 16.8226 102.596C16.822 102.621 16.8218 102.646 16.8218 102.671C16.8218 102.696 16.822 102.721 16.8226 102.746C16.9166 107.087 16.9166 111.428 16.8226 115.768C16.822 115.793 16.8218 115.818 16.8218 115.843C16.8218 121.625 31.3219 126.313 49.2086 126.313C67.0954 126.313 81.5955 121.625 81.5955 115.843C81.5955 115.818 81.5952 115.793 81.5947 115.768C81.5006 111.427 81.5006 107.086 81.5947 102.746C81.5952 102.721 81.5955 102.696 81.5955 102.671Z" fill="#3A7540"/>
<path d="M65.7394 51.6735C68.7205 51.6735 71.1372 49.2541 71.1372 46.2697C71.1372 43.2853 68.7205 40.866 65.7394 40.866C62.7582 40.866 60.3416 43.2853 60.3416 46.2697C60.3416 49.2541 62.7582 51.6735 65.7394 51.6735Z" fill="#FF6B6B"/>
<path d="M69.4503 112.465C72.4314 112.465 74.8481 110.046 74.8481 107.062C74.8481 104.077 72.4314 101.658 69.4503 101.658C66.4692 101.658 64.0525 104.077 64.0525 107.062C64.0525 110.046 66.4692 112.465 69.4503 112.465Z" fill="#FF6B6B"/>
<path d="M31.3285 79.7052C34.3096 79.7052 36.7263 77.2859 36.7263 74.3015C36.7263 71.317 34.3096 68.8977 31.3285 68.8977C28.3473 68.8977 25.9307 71.317 25.9307 74.3015C25.9307 77.2859 28.3473 79.7052 31.3285 79.7052Z" fill="#FF6B6B"/>
<path d="M134.314 79.1524C134.632 84.4759 141.889 84.0072 142.004 79.1524C141.686 73.8289 134.429 74.2976 134.314 79.1524Z" fill="#2F2E41"/>
<path d="M137.088 75.4092C134.282 75.3539 132.313 78.5589 133.703 81.0853C130.42 76.3041 137.429 72.2908 140.09 76.8567C139.73 76.4049 139.274 76.0402 138.754 75.7896C138.234 75.5389 137.665 75.4089 137.088 75.4092Z" fill="#2F2E41"/>
<path d="M135.276 69.9741C135.979 83.9704 155.491 83.4357 155.945 69.9741C155.242 55.9779 135.731 56.5126 135.276 69.9741Z" fill="#2F2E41"/>
<path d="M152.807 64.8864C150.985 62.8354 148.439 61.5732 145.705 61.3661C142.971 61.1591 140.264 62.0234 138.155 63.7766C149.369 54.1832 162.808 70.0669 152.192 79.5835C154.178 77.6919 155.352 75.1016 155.467 72.3595C155.582 69.6173 154.628 66.9378 152.807 64.8864Z" fill="#2F2E41"/>
<path d="M142.003 75.5076L137.733 86.4601L147.473 87.3953L147.206 78.3125L142.003 75.5076Z" fill="#FFB8B8"/>
<path d="M122.657 168.939L119.321 180.693H123.59L127.593 170.408L122.657 168.939Z" fill="#FFB8B8"/>
<path d="M147.197 169.259L146.959 181.241L151.162 180.491L152.057 168.391L147.197 169.259Z" fill="#FFB8B8"/>
<path d="M151.276 178.556L151.342 179.224L146.539 179.491C146.539 179.491 137.6 185.502 142.27 186.036C146.939 186.57 153.077 182.83 153.077 182.83L151.276 178.556Z" fill="#2F2E41"/>
<path d="M153.677 107.097L135.532 109.501L135.732 112.373L127.326 150.306L120.655 171.544L130.662 174.616L146.005 132.408L145.205 174.616L156.279 175.551L160.658 127.327C161.099 122.657 160.555 117.947 159.063 113.501C158.164 110.855 155.378 108.399 153.677 107.097Z" fill="#2F2E41"/>
<path d="M124.725 177.755L124.124 179.224L119.321 179.491C119.321 179.491 110.382 185.502 115.052 186.036C119.721 186.57 125.859 182.83 125.859 182.83L124.725 177.755Z" fill="#2F2E41"/>
<path d="M126.926 100.752L128.928 108.633L133.597 125.062C133.597 125.062 133.731 133.877 137.2 133.209C140.669 132.542 137.2 123.459 137.2 123.459L132.797 109.301L131.329 100.752H126.926Z" fill="#FFB8B8"/>
<path d="M158.15 98.3967L159.379 106.434L161.484 123.385C161.484 123.385 164.797 131.554 161.343 132.294C157.889 133.034 157.542 123.317 157.542 123.317L156.077 108.561L154.096 100.117L158.15 98.3967Z" fill="#FFB8B8"/>
<path d="M153.399 86.286C153.399 86.286 151.427 84.9124 147.424 84.7352C143.421 84.558 140.311 84.6912 138.755 83.8394C137.2 82.9876 131.062 85.5254 131.062 85.5254C131.062 85.5254 126.793 83.9226 125.459 88.9982C124.124 94.0738 124.391 100.886 126.526 102.088L131.729 102.756C131.729 102.756 132.663 109.034 134.798 109.968C136.933 110.903 154.545 107.831 154.545 107.831L153.877 101.687C153.877 101.687 158.947 101.954 159.081 100.752C159.214 99.5501 159.596 82.2981 153.399 86.286Z" fill="#575A89"/>
<path d="M148.752 84.9565L135.252 84.3251L137.093 82.2725H148.752V84.9565Z" fill="#3A7540"/>
<path d="M147.812 82.8201H138.033L139.138 80.3779L147.812 80.304V82.8201Z" fill="#3A7540"/>
<path d="M147.54 80.1158C151.445 80.1158 154.611 76.9464 154.611 73.0367C154.611 69.127 151.445 65.9575 147.54 65.9575C143.634 65.9575 140.469 69.127 140.469 73.0367C140.469 76.9464 143.634 80.1158 147.54 80.1158Z" fill="#FFB8B8"/>
<path d="M153.693 65.1759L155.029 72.2291H152.998L150.412 69.9253L150.759 72.2291H141.779L142.333 69.9253L141.225 72.2291H139.794V64.9343L153.693 65.1759Z" fill="#2F2E41"/>
<path d="M140.261 74.3222C140.815 74.3222 141.264 73.7913 141.264 73.1363C141.264 72.4814 140.815 71.9504 140.261 71.9504C139.708 71.9504 139.259 72.4814 139.259 73.1363C139.259 73.7913 139.708 74.3222 140.261 74.3222Z" fill="#FFB8B8"/>
<path d="M138.425 65.9366C138.425 65.9366 146.503 61.9647 146.513 60.5258C146.523 59.0869 143.391 54.7478 137.642 54.7071C137.642 54.7071 136.223 52.1069 134.484 54.1091C132.745 56.1113 135.322 57.5686 135.322 57.5686C135.322 57.5686 132.123 62.7261 136.7 65.9243L138.425 65.9366Z" fill="#FF6B6B"/>
<path d="M195.414 140.024L172.783 144.22L173.058 140.338L173.17 138.741L174.524 119.563L185.622 117.505L193.237 135.02L193.872 136.479L195.414 140.024Z" fill="#D0CDE1"/>
<path d="M193.101 122.653L192.497 119.385L126.127 131.69L126.731 134.958L193.101 122.653Z" fill="#3F3D56"/>
<path d="M193.872 136.479L173.058 140.338L173.17 138.74L193.237 135.02L193.872 136.479Z" fill="#FF6B6B"/>
<path d="M141.006 82.9626H137.687V97.8065H141.006V82.9626Z" fill="#3A7540"/>
<path d="M133.189 125.292C133.303 127.708 133.991 136.348 137.988 135.578C141.928 134.82 139.182 125.954 138.26 123.285L133.189 125.292Z" fill="#3A7540"/>
<path d="M156.868 123.962C156.982 126.379 157.67 135.018 161.668 134.249C165.608 133.49 162.862 124.624 161.939 121.955L156.868 123.962Z" fill="#3A7540"/>
<path d="M157.541 126.956L158.839 127.463L157.675 130.453C157.608 130.625 157.475 130.764 157.306 130.838C157.136 130.913 156.945 130.917 156.772 130.849C156.6 130.782 156.462 130.649 156.387 130.48C156.313 130.31 156.309 130.118 156.376 129.946L157.541 126.956Z" fill="#3A7540"/>
<path d="M137.993 129.169L138.779 128.017L141.427 129.826C141.579 129.931 141.684 130.091 141.719 130.273C141.753 130.455 141.713 130.643 141.609 130.796C141.505 130.949 141.344 131.054 141.163 131.088C140.981 131.122 140.793 131.083 140.641 130.979L137.993 129.169Z" fill="#3A7540"/>
</g>
<defs>
<clipPath id="clip0_237_9650">
<rect width="218" height="191" fill="white"/>
</clipPath>
</defs>
</svg>
