<svg width="274" height="181" viewBox="0 0 274 181" fill="none" xmlns="http://www.w3.org/2000/svg">
<path d="M2.37256 94.5828C2.37256 94.5828 28.7367 99.7814 38.0274 119.964" stroke="#535461" stroke-miterlimit="10"/>
<path d="M40.3271 116.661C40.3271 116.661 23.3993 94.7697 24.9451 73.1892C25.5786 64.1328 23.4531 55.086 18.5433 47.4466C16.207 43.8294 13.5446 40.4341 10.5894 37.303" stroke="#535461" stroke-width="2" stroke-miterlimit="10"/>
<path d="M11.4763 23.7011C12.6579 26.7315 10.6021 37.6644 10.6021 37.6644C10.6021 37.6644 1.69152 31.0109 0.509994 27.9805C0.198459 27.254 0.0361623 26.4723 0.0327692 25.6818C0.029376 24.8913 0.184954 24.1082 0.490243 23.3791C0.795531 22.65 1.24429 21.9898 1.8098 21.4379C2.37531 20.886 3.04601 20.4535 3.78198 20.1663C4.51795 19.8791 5.30414 19.7431 6.09375 19.7662C6.88336 19.7893 7.66024 19.9712 8.37815 20.301C9.09606 20.6309 9.74032 21.1018 10.2726 21.686C10.8048 22.2701 11.2142 22.9554 11.4763 23.7011Z" fill="#3A7540"/>
<path d="M27.0928 36.9449C26.4403 40.1338 18.7746 48.1916 18.7746 48.1916C18.7746 48.1916 14.9038 37.7627 15.5563 34.5611C15.6949 33.7872 15.9869 33.0489 16.415 32.3896C16.8432 31.7304 17.3989 31.1635 18.0493 30.7225C18.6997 30.2814 19.4318 29.9751 20.2023 29.8215C20.9729 29.6679 21.7664 29.6702 22.536 29.8282C23.3057 29.9863 24.036 30.2968 24.6838 30.7416C25.3317 31.1864 25.8841 31.7564 26.3084 32.4182C26.7328 33.0799 27.0205 33.8199 27.1547 34.5946C27.2888 35.3693 27.2667 36.163 27.0896 36.929L27.0928 36.9449Z" fill="#3A7540"/>
<path d="M37.8879 65.7907C35.7149 68.2125 25.0369 71.2968 25.0369 71.2968C25.0369 71.2968 26.9565 60.3385 29.1263 57.9167C30.176 56.7782 31.6316 56.0992 33.1779 56.0265C34.7242 55.9539 36.2369 56.4934 37.3886 57.5285C38.5404 58.5635 39.2385 60.0108 39.332 61.5571C39.4254 63.1034 38.9066 64.6243 37.8879 65.7907Z" fill="#3A7540"/>
<path d="M41.1443 89.4604C39.4116 92.215 29.405 97.0681 29.405 97.0681C29.405 97.0681 29.4462 85.945 31.1789 83.1903C31.5825 82.5184 32.1161 81.9338 32.7484 81.4708C33.3806 81.0078 34.0989 80.6757 34.861 80.494C35.6231 80.3122 36.4138 80.2845 37.1868 80.4125C37.9597 80.5404 38.6994 80.8214 39.3625 81.239C40.0256 81.6567 40.5987 82.2025 41.0483 82.8445C41.4979 83.4866 41.815 84.212 41.9809 84.9782C42.1468 85.7445 42.1583 86.5361 42.0147 87.3068C41.871 88.0776 41.5751 88.8119 41.1443 89.4667V89.4604Z" fill="#3A7540"/>
<path d="M7.47885 53.2761C10.4754 54.544 21.4513 52.7753 21.4513 52.7753C21.4513 52.7753 15.059 43.6714 12.0624 42.4034C11.349 42.1022 10.5833 41.9446 9.80903 41.9396C9.03476 41.9345 8.26708 42.0821 7.54981 42.374C6.83255 42.6658 6.17975 43.0962 5.62869 43.6405C5.07763 44.1848 4.6391 44.8324 4.33814 45.5463C4.03718 46.2603 3.87968 47.0265 3.87464 47.8013C3.86959 48.5761 4.0171 49.3444 4.30875 50.0621C4.60039 50.7799 5.03045 51.4332 5.57437 51.9846C6.1183 52.5361 6.76544 52.9749 7.47885 53.2761Z" fill="#3A7540"/>
<path d="M11.6474 80.908C14.8847 81.225 24.8279 76.2451 24.8279 76.2451C24.8279 76.2451 15.9997 69.487 12.7624 69.1763C11.9818 69.0811 11.19 69.1434 10.4339 69.3594C9.67769 69.5754 8.97241 69.9408 8.35964 70.434C7.74686 70.9272 7.23901 71.5382 6.86605 72.231C6.49309 72.9238 6.26257 73.6844 6.18809 74.4678C6.11361 75.2512 6.19669 76.0415 6.43242 76.7923C6.66815 77.543 7.05175 78.2389 7.5606 78.8389C8.06944 79.4389 8.69322 79.9308 9.39513 80.2856C10.097 80.6405 10.8629 80.851 11.6474 80.9049V80.908Z" fill="#3A7540"/>
<path d="M19.3732 107.205C22.5123 108.058 33.1524 104.837 33.1524 104.837C33.1524 104.837 25.5913 96.6813 22.4522 95.8318C21.7007 95.6126 20.9131 95.5456 20.1355 95.6346C19.3578 95.7236 18.6057 95.9669 17.9231 96.3502C17.2405 96.7335 16.6411 97.2491 16.1599 97.8669C15.6788 98.4848 15.3255 99.1924 15.1209 99.9484C14.9162 100.704 14.8642 101.494 14.9679 102.27C15.0717 103.046 15.329 103.794 15.7249 104.47C16.1209 105.146 16.6474 105.736 17.2739 106.205C17.9003 106.675 18.614 107.015 19.3732 107.205Z" fill="#3A7540"/>
<path opacity="0.1" d="M146.82 74.6316C140.801 74.4985 134.336 74.7996 129.553 77.1675C120.684 81.5483 121.878 90.4334 116.094 96.5989C111.209 101.804 101.874 104.508 92.8212 106.232C78.0727 109.044 62.6051 110.096 47.958 113.117C39.3231 114.899 30.7514 117.488 24.8343 121.92C18.9172 126.351 16.2627 132.961 20.2634 138.203C23.9632 143.05 32.1135 145.643 39.5353 148.154C46.957 150.664 54.8191 153.958 56.8844 159.191C58.0342 162.104 57.179 165.246 58.5221 168.121C61.1702 173.795 71.088 176.473 79.9986 177.922C87.1163 179.079 94.3511 179.932 101.643 180.458C107.468 180.886 113.427 181.111 119.144 180.277C124.095 179.555 128.679 178.058 133.427 176.908C163.596 169.557 198.294 175.916 229.064 169.69C234.664 168.565 240.173 166.98 244.418 164.387C247.585 162.459 249.929 160.05 251.903 157.552C256.927 151.213 259.679 144.103 259.891 136.974C260.018 132.701 259.258 128.383 260.427 124.174C261.653 119.793 264.925 115.764 266.667 111.456C269.835 103.626 267.617 94.9727 260.721 88.1987C258.26 85.702 255.242 83.8249 251.915 82.7211C249.128 81.8272 246.011 81.4849 242.941 81.1362C234.389 80.2074 225.725 79.2755 217.097 79.7985C210.958 80.1725 204.949 81.2789 198.791 81.4786C190.15 81.7607 183.381 79.7668 175.547 77.8934C166.535 75.7569 156.395 74.8408 146.82 74.6316Z" fill="#4652CB"/>
<path d="M106.268 69.1064C106.268 69.1064 48.5597 74.8692 42.9562 83.2155C37.3527 91.5618 42.9087 101.801 42.9087 101.801L132.122 140.6L253.106 109.345C253.106 109.345 249.875 87.4283 239.824 84.9146C229.774 82.4009 149.705 65.1567 149.705 65.1567C149.705 65.1567 117.396 63.1787 106.268 69.1064Z" fill="#C6C7CD"/>
<path d="M42.9023 83.2949L133.912 114.731C133.912 114.731 230.984 85.2761 244.734 88.0498C244.734 88.0498 176.83 63.7273 149.705 64.786C128.089 65.6292 105.457 69.1795 105.457 69.1795C105.457 69.1795 45.4174 75.2149 42.9023 83.2949Z" fill="#A2CDF9"/>
<path d="M182.927 103.519L182.95 103.487V103.468L182.965 103.436V103.414V103.382V103.36V103.325V103.303V103.262V103.243C182.965 103.224 182.965 103.205 182.965 103.186C182.965 103.164 182.965 103.142 182.965 103.119C182.965 103.097 182.965 103.119 182.965 103.097C182.965 103.075 182.965 103.065 182.965 103.05V103.021V102.974V102.942V102.894V102.863V102.812V102.78V102.726V102.698L182.94 102.619L182.908 102.53V102.501L182.883 102.438V102.403L182.858 102.343L182.842 102.305L182.816 102.244L182.797 102.203L182.769 102.143L182.75 102.105L182.715 102.038L182.696 102.004L182.649 101.912L182.592 101.804L182.573 101.769L182.531 101.693L182.509 101.652L182.468 101.582L182.443 101.538L182.401 101.468L182.332 101.363L182.287 101.294L182.259 101.249L182.211 101.173L182.186 101.132L182.123 101.03V101.011L182.044 100.891L182.018 100.856L181.961 100.77L181.93 100.726L181.876 100.65L181.844 100.602L181.79 100.526L181.755 100.476L181.698 100.412L181.663 100.365L181.603 100.282L181.572 100.241L181.492 100.133V100.117L181.401 99.9907L181.369 99.9463L181.309 99.8639L181.268 99.81L181.21 99.7339L181.169 99.68L181.112 99.604L181.071 99.5532L181.011 99.474L180.97 99.4233L180.906 99.3408L180.868 99.2933L180.792 99.1982L180.767 99.1665C180.482 98.8051 180.187 98.4438 179.893 98.0951C179.062 97.1068 178.044 96.2921 176.899 95.6976C175.753 95.1031 174.501 94.7405 173.215 94.6304C172.952 94.6082 172.677 94.5797 172.398 94.5448H172.281L172.075 94.5163H171.977L171.66 94.4719L171.359 94.4244L171.255 94.4053L171.042 94.3673L170.916 94.3419L170.722 94.3039L170.586 94.2754L170.403 94.2342L170.263 94.2025L170.079 94.1581L169.937 94.1232L169.756 94.0757L169.614 94.0376L169.433 93.9869C168.483 92.5732 167.039 91.3147 165.632 91.0706C165.245 91.0105 164.849 91.031 164.47 91.1309L164.403 91.058L164.308 90.9502L164.181 90.7885L164.099 90.6807L163.966 90.4937L163.899 90.4018C163.834 90.3067 163.772 90.2095 163.712 90.1102C163.526 90.0269 163.33 89.9642 163.13 89.9231C165.933 89.4983 168.696 88.8463 171.394 87.9737C171.525 87.9242 171.649 87.8593 171.765 87.7803L171.822 87.7613C174.169 86.9054 177.051 78.5686 175.024 77.4021C172.997 76.2356 169.902 66.6245 168.087 61.7017C166.272 56.7789 161.042 56.2559 161.042 56.2559C161.042 56.2559 153.465 50.3821 150.051 51.0224C146.636 51.6627 146.1 46.537 145.781 46.3246C145.743 46.2938 145.712 46.2561 145.689 46.2137C144.865 44.9236 138.318 43.2023 134.786 42.3528C131.333 39.8486 127.215 37.9055 123.886 37.1035C122.774 36.8023 121.607 36.763 120.477 36.9884C119.347 37.2139 118.285 37.6981 117.373 38.4031C110.379 38.7582 109.264 44.0455 109.264 44.0455C109.24 44.767 109.365 45.4857 109.632 46.1566C109.254 46.1618 108.876 46.1416 108.501 46.0964C109.312 44.7556 109.337 43.0311 109.942 41.5572C111.136 38.6409 114.431 37.1352 117.544 36.7421C119.359 36.5139 121.345 36.5139 122.777 35.3759C123.514 34.7866 124.017 33.9539 124.196 33.027C124.254 32.8269 124.236 32.6123 124.146 32.4247C124.057 32.3031 123.938 32.2069 123.8 32.1458C121.925 31.1441 119.667 31.404 117.538 31.3565C114.079 31.2804 110.709 30.3326 107.364 29.4546C105.948 29.0837 104.418 28.7255 103.049 29.2517C101.757 29.7462 100.876 30.9254 99.8404 31.8415C95.5958 35.5883 88.5478 35.0462 84.772 39.2685C83.8977 40.248 83.242 41.5762 83.5619 42.8505C83.6918 43.3703 83.9801 43.849 84.0719 44.3783C84.2557 45.4244 83.6601 46.4261 83.1565 47.3612C82.6528 48.2963 82.2062 49.4311 82.6813 50.3821C83.4004 51.8339 85.5956 51.7261 86.7359 52.8768C87.2649 53.4125 87.5215 54.1796 88.0726 54.69C88.9564 55.5046 90.3153 55.4412 91.5127 55.3239C91.9847 55.2796 92.6911 55.1496 92.9508 54.7343C93.877 55.6061 94.9927 56.2508 96.2102 56.6176C97.4277 56.9844 98.7137 57.0634 99.9669 56.8483C101.22 56.6332 102.406 56.1299 103.432 55.378C104.458 54.6261 105.295 53.6462 105.878 52.5154C108.458 52.3411 111.023 53.0351 113.163 54.4871C113.486 55.4385 114.078 56.2756 114.868 56.8962C115.615 57.4826 116.505 58.2022 117.402 58.9725C115.131 59.5716 113.113 59.9551 113.113 59.9551C113.113 59.9551 104.148 62.8397 104.148 64.7607C104.18 65.1086 104.288 65.4452 104.465 65.7465C104.238 66.2241 104.11 66.7428 104.088 67.2712C101.614 66.8528 99.6345 66.222 98.6114 65.2932C98.6114 65.2932 98.3199 65.2139 97.8701 65.1252C97.2683 64.3549 95.5007 62.2152 94.4491 62.3008C93.749 62.3579 93.4988 63.9872 93.4101 65.4454C93.318 65.525 93.237 65.6167 93.1694 65.718C92.1019 67.3187 94.0246 70.5235 95.3044 71.0592C96.5841 71.5949 103.629 71.3762 108.431 74.9043C110.56 76.467 114.218 76.7682 117.617 76.6223C114.199 79.0378 109.413 82.7497 108.748 85.051C108.39 86.2714 107.969 87.7867 107.994 89.3431C105.903 92.1104 102.739 97.9524 110.563 100.755C117.012 103.059 134.497 102.764 146.956 102.2C152.752 103.224 157.539 104.254 159.547 105.24C159.547 105.24 164.349 105.874 166.272 107.056C168.195 108.239 171.714 107.912 171.714 107.912C171.714 107.912 178.543 109.088 180.038 110.581C181.534 112.074 184.093 108.017 180.894 106.096C179.646 105.348 177.786 104.115 175.984 102.764C178.299 103.037 180.343 103.335 181.641 103.639L181.771 103.668H181.812H181.895H181.942H182.012H182.056H182.123H182.44H182.522H182.547H182.598H182.626H182.668H182.693H182.731H182.756L182.791 103.652H182.813L182.845 103.63H182.861L182.902 103.595L182.927 103.519ZM153.446 93.28C153.446 93.28 152.547 93.074 151.204 92.757L148.536 91.6793C148.536 91.6793 153.088 90.2465 157.304 88.4238C158.511 88.9532 159.572 89.3748 159.838 89.7583C159.953 89.8854 160.109 89.9674 160.279 89.9897C158.695 90.3828 156.661 91.394 154.276 93.727C153.987 93.6029 153.709 93.4533 153.446 93.28ZM121.219 67.5406L123.851 66.3171C124.424 66.8052 125.039 67.268 125.641 67.7181C124.196 67.8037 122.255 67.8988 120.059 67.9591C120.731 67.734 121.219 67.5406 121.219 67.5406Z" fill="url(#paint0_linear_237_9501)"/>
<path d="M98.789 65.4991C98.789 65.4991 96.4893 62.3736 95.2381 62.4687C93.9869 62.5638 94.1928 67.8004 94.1928 67.8004L98.789 65.4991Z" fill="#FFD5D8"/>
<path d="M128.356 67.5913C128.356 67.5913 103.908 69.5788 99.3116 65.3946C99.3116 65.3946 95.029 64.2439 93.9837 65.813C92.9384 67.3821 94.8199 70.5171 96.0743 71.0402C97.3287 71.5632 104.225 71.3571 108.925 74.8028C113.626 78.2485 125.955 75.4368 125.955 75.4368L131.073 73.4493L128.356 67.5913Z" fill="#E36161"/>
<path d="M163.355 79.3009C163.355 79.3009 158.131 75.5383 147.371 80.2519C136.61 84.9655 109.761 87.4665 109.761 87.4665C109.761 87.4665 100.778 96.4563 111.029 100.118C121.279 103.779 159.921 100.751 159.921 100.751C159.921 100.751 175.696 101.798 180.606 102.948C183.577 103.646 181.239 100.279 178.911 97.515C178.098 96.5466 177.102 95.7485 175.98 95.1665C174.858 94.5844 173.632 94.2299 172.373 94.1233C169.288 93.8602 165.008 92.8902 163.051 89.6696C163.051 89.6696 159.291 87.7867 153.649 93.4322L148.207 91.2197C148.207 91.2197 163.146 86.5156 163.668 83.3774C164.191 80.2392 163.355 79.3009 163.355 79.3009Z" fill="#FFD5D8"/>
<path opacity="0.05" d="M163.355 79.3009C163.355 79.3009 158.131 75.5383 147.371 80.2519C136.61 84.9655 109.761 87.4665 109.761 87.4665C109.761 87.4665 100.778 96.4563 111.029 100.118C121.279 103.779 159.921 100.751 159.921 100.751C159.921 100.751 175.696 101.798 180.606 102.948C183.209 103.557 181.73 101.046 179.769 98.5674C178.791 97.3223 177.577 96.283 176.196 95.5094C174.816 94.7358 173.295 94.2432 171.724 94.0599C168.714 93.7175 164.875 92.6683 163.054 89.6696C163.054 89.6696 159.294 87.7867 153.652 93.4322L148.207 91.2197C148.207 91.2197 163.146 86.5156 163.668 83.3774C164.191 80.2392 163.355 79.3009 163.355 79.3009Z" fill="black"/>
<path d="M163.459 64.4563C163.459 64.4563 156.877 53.9957 141.311 63.0965L121.355 74.191C121.355 74.191 110.268 81.1965 109.236 84.7499C108.203 88.3033 106.623 94.3673 117.491 96.6686C128.359 98.97 153.64 101.896 158.968 104.511C158.968 104.511 163.668 105.145 165.55 106.289C167.432 107.434 170.878 107.126 170.878 107.126C170.878 107.126 177.565 108.277 179.028 109.741C180.492 111.206 182.997 107.231 179.865 105.351C176.732 103.471 169.627 98.4501 169.728 96.4753C169.829 94.5004 167.324 91.0104 164.91 90.5856C162.496 90.1609 159.373 93.7206 159.373 93.7206C159.373 93.7206 155.404 94.3546 153 92.7697C153 92.7697 140.671 89.9453 139.417 89.1116C138.163 88.278 129.597 85.0352 129.597 85.0352C129.597 85.0352 149.87 84.826 155.819 79.3896C155.819 79.3896 158.119 77.7159 159.997 78.239C160.013 78.2548 169.31 74.7014 163.459 64.4563Z" fill="#FFD5D8"/>
<path d="M104.221 44.8C104.221 44.8 110.176 48.9811 114.773 44.8C119.369 40.6189 116.762 57.6602 116.762 57.6602C116.762 57.6602 110.389 49.1903 100.883 54.7344L104.221 44.8Z" fill="#FFD5D8"/>
<path opacity="0.05" d="M104.221 44.8C104.221 44.8 110.176 48.9811 114.773 44.8C119.369 40.6189 116.762 57.6602 116.762 57.6602C116.762 57.6602 110.389 49.1903 100.883 54.7344L104.221 44.8Z" fill="black"/>
<path d="M78.7314 80.6606C78.7314 80.6606 85.0002 75.3288 88.5511 75.2242C89.6091 75.1925 90.8318 74.1148 92.0355 72.6186C93.556 70.7283 95.5616 69.2873 97.8375 68.4497C100.113 67.6122 102.574 67.4096 104.956 67.8638C106.977 68.2378 109.464 68.2283 112.483 67.4802C123.452 64.7605 118.02 57.9706 118.02 57.9706L114.573 55.0448C114.573 55.0448 109.872 51.8052 108.095 52.0144C106.318 52.2236 101.722 56.9277 101.199 56.4047C100.677 55.8817 94.3035 51.1776 93.2582 49.9223C92.2129 48.667 83.8503 44.5905 85.941 43.4399C88.0316 42.2892 98.5798 38.0036 96.4892 37.1667C94.3985 36.3299 83.1154 35.0746 78.7283 40.3017C74.3411 45.5288 76.5331 77.627 78.7314 80.6606Z" fill="#F8F9FA"/>
<path opacity="0.05" d="M78.7314 80.6606C78.7314 80.6606 85.0002 75.3288 88.5511 75.2242C89.6091 75.1925 90.8318 74.1148 92.0355 72.6186C93.556 70.7283 95.5616 69.2873 97.8375 68.4497C100.113 67.6122 102.574 67.4096 104.956 67.8638C106.977 68.2378 109.464 68.2283 112.483 67.4802C123.452 64.7605 118.02 57.9706 118.02 57.9706L114.573 55.0448C114.573 55.0448 109.872 51.8052 108.095 52.0144C106.318 52.2236 101.722 56.9277 101.199 56.4047C100.677 55.8817 94.3035 51.1776 93.2582 49.9223C92.2129 48.667 83.8503 44.5905 85.941 43.4399C88.0316 42.2892 98.5798 38.0036 96.4892 37.1667C94.3985 36.3299 83.1154 35.0746 78.7283 40.3017C74.3411 45.5288 76.5331 77.627 78.7314 80.6606Z" fill="black"/>
<path d="M79.1496 79.9284C79.1496 79.9284 85.4184 74.5967 88.9693 74.4921C90.0273 74.4604 91.25 73.3826 92.4537 71.8865C93.9725 69.9982 95.9753 68.5582 98.2481 67.7202C100.521 66.8823 102.979 66.6777 105.359 67.1285C107.38 67.5025 109.866 67.493 112.885 66.7449C123.854 64.0252 118.422 57.2353 118.422 57.2353L114.976 54.3095C114.976 54.3095 110.275 51.0699 108.498 51.2791C106.721 51.4883 102.124 56.1924 101.602 55.6694C101.079 55.1463 94.7059 50.4422 93.6605 49.187C92.6152 47.9317 84.2685 43.8584 86.3528 42.7204C88.4371 41.5824 98.9948 37.2841 96.9042 36.4472C94.8136 35.6104 83.5305 34.3551 79.1433 39.5822C74.7561 44.8094 76.9545 76.8949 79.1496 79.9284Z" fill="#A2CDF9"/>
<path d="M109.759 44.5908C109.759 44.5908 111.431 36.6439 123.655 39.7821C135.879 42.9203 141.939 49.7133 141.939 49.7133L130.852 54.8358L117.269 50.2364C117.269 50.2364 109.657 50.3283 109.759 44.5908Z" fill="#FFD5D8"/>
<path opacity="0.05" d="M132.119 42.6032C132.119 42.6032 143.874 45.1391 144.982 46.8857C145.006 46.9271 145.037 46.9636 145.074 46.9934C145.391 47.2027 145.911 52.2206 149.252 51.5929C152.594 50.9653 160.022 56.7154 160.022 56.7154C160.022 56.7154 165.141 57.2385 166.918 62.0472C168.695 66.8559 171.724 76.2673 173.71 77.4148C175.696 78.5622 172.873 86.7183 170.577 87.5584C168.28 88.3984 160.025 90.3827 159.294 89.3367C158.562 88.2906 152.189 87.1399 152.607 83.7957C153.025 80.4515 155.531 77.3133 153.557 75.3258C151.584 73.3383 150.32 68.1112 147.393 67.0651C144.466 66.019 139.243 65.7052 136.11 67.7973C132.977 69.8895 129.192 69.9814 129.192 69.9814C129.192 69.9814 122.714 66.2187 121.669 63.6036C120.965 61.8411 117.462 58.8932 115.251 57.1592C114.672 56.704 114.198 56.1279 113.864 55.471C113.53 54.814 113.343 54.0921 113.316 53.3554C113.224 50.7751 113.141 46.9712 113.414 46.3563C113.832 45.4053 119.578 39.7693 119.578 39.7693L132.119 42.6032Z" fill="black"/>
<path d="M132.537 42.4035C132.537 42.4035 144.292 44.9394 145.401 46.686C145.424 46.7274 145.455 46.7639 145.493 46.7937C145.809 47.003 146.329 52.0209 149.671 51.3932C153.012 50.7656 160.441 56.5158 160.441 56.5158C160.441 56.5158 165.559 57.0388 167.336 61.8475C169.114 66.6562 172.142 76.0676 174.128 77.2151C176.114 78.3626 173.292 86.5187 170.995 87.3587C168.699 88.1987 160.444 90.183 159.712 89.137C158.98 88.0909 152.607 86.9402 153.025 83.596C153.443 80.2518 155.949 77.1136 153.975 75.1261C152.002 73.1386 150.738 67.9115 147.811 66.8654C144.884 65.8194 139.661 65.5055 136.528 67.5977C133.395 69.6898 129.268 70.0543 129.268 70.0543C129.268 70.0543 123.158 66.0286 122.112 63.4166C121.409 61.6541 117.906 58.7061 115.695 56.9722C115.115 56.517 114.642 55.9409 114.308 55.284C113.973 54.627 113.786 53.9051 113.759 53.1684C113.667 50.5881 113.585 46.7842 113.857 46.1693C114.276 45.2183 120.022 39.5823 120.022 39.5823L132.537 42.4035Z" fill="#FF6B6B"/>
<path d="M105.476 65.0808C105.371 65.1854 103.594 67.8006 105.685 69.2619C106.263 69.6863 106.931 69.9719 107.638 70.0967C108.344 70.2214 109.07 70.182 109.758 69.9814L105.476 65.0808Z" fill="#FFD5D8"/>
<path opacity="0.1" d="M115.495 42.2893C115.495 42.2893 118.317 36.6438 124.364 38.1083C130.411 39.5728 139.198 44.9045 141.289 50.2362C143.38 55.568 133.37 62.0567 133.37 62.0567L121.46 67.5976C121.46 67.5976 117.804 69.0621 116.759 68.5486C115.714 68.0351 110.699 72.5173 110.699 72.5173C110.699 72.5173 105.058 67.081 105.058 65.198C105.058 63.3151 113.835 60.4718 113.835 60.4718C113.835 60.4718 124.288 58.4842 124.177 56.4999C124.177 56.4999 125.954 54.4078 125.014 53.7802C124.073 53.1525 113.99 50.1728 113.99 50.1728C113.99 50.1728 113.626 43.5446 115.495 42.2893Z" fill="black"/>
<path d="M115.178 41.9756C115.178 41.9756 118 36.3301 124.047 37.7946C130.094 39.259 138.881 44.5908 140.972 49.9225C143.063 55.2542 133.056 61.7398 133.056 61.7398L121.146 67.2808C121.146 67.2808 117.49 68.7452 116.445 68.2317C115.4 67.7182 110.385 72.2004 110.385 72.2004C110.385 72.2004 104.744 66.7641 104.744 64.8812C104.744 62.9983 113.521 60.1549 113.521 60.1549C113.521 60.1549 123.975 58.1674 123.864 56.183C123.864 56.183 125.641 54.0909 124.7 53.4633C123.759 52.8356 113.677 49.8559 113.677 49.8559C113.677 49.8559 113.312 43.2309 115.178 41.9756Z" fill="#FF6B6B"/>
<path opacity="0.1" d="M101.82 53.6851C103.515 52.6522 105.423 52.0201 107.399 51.8371C107.972 50.7308 106.467 49.5262 106.467 48.1949C106.467 47.0791 106.043 46.6543 105.631 45.6844C104.136 45.1423 105.162 43.7507 105.162 43.7507L101.82 53.6851Z" fill="black"/>
<path d="M99.3116 57.2416C103.755 57.2416 107.357 53.6369 107.357 49.1902C107.357 44.7434 103.755 41.1387 99.3116 41.1387C94.8681 41.1387 91.2659 44.7434 91.2659 49.1902C91.2659 53.6369 94.8681 57.2416 99.3116 57.2416Z" fill="#FFD5D8"/>
<path d="M93.2805 52.4932C95.0765 51.1048 97.4142 50.6388 99.6759 50.4359C101.089 50.3091 102.527 50.2648 103.883 49.8337C104.662 49.5615 105.419 49.2265 106.144 48.832C107.114 48.3375 108.114 47.8176 108.777 46.9522C109.809 45.6019 109.777 43.7316 110.424 42.1562C111.593 39.3033 114.817 37.8262 117.877 37.4426C119.654 37.2175 121.596 37.2175 123.002 36.1049C123.724 35.5285 124.217 34.7138 124.393 33.8068C124.449 33.6107 124.431 33.4007 124.342 33.2172C124.255 33.0982 124.138 33.0042 124.003 32.9445C122.166 31.9651 119.955 32.2186 117.874 32.1711C114.488 32.0982 111.187 31.1662 107.912 30.3072C106.524 29.9427 105.026 29.594 103.689 30.1075C102.422 30.5925 101.564 31.7463 100.547 32.6434C96.3911 36.3141 89.492 35.7816 85.7954 39.9151C84.9401 40.8661 84.2971 42.1752 84.6107 43.421C84.7405 43.9313 85.0193 44.3973 85.1112 44.9172C85.2917 45.941 84.7089 46.9237 84.2147 47.8366C83.7206 48.7496 83.2898 49.8654 83.7491 50.7941C84.4555 52.2142 86.5999 52.1096 87.7181 53.2349C88.2376 53.758 88.4847 54.5029 89.0264 55.0101C89.8943 55.8089 91.2215 55.7455 92.3935 55.644C93.0271 55.5838 94.0629 55.3746 93.8823 54.5251C93.7303 53.7643 92.7261 53.4378 93.2805 52.4932Z" fill="#85596B"/>
<path d="M90.4707 57.3018C90.4707 57.3018 95.957 53.1809 99.4034 54.5313C102.85 55.8817 103.791 56.6234 105.986 55.7992C108.181 54.9751 109.119 57.4729 109.119 57.4729L95.447 61.4226L90.4707 57.3018Z" fill="#F8F9FA"/>
<path opacity="0.05" d="M83.0681 64.507C83.0681 64.507 85.5769 58.0246 88.6051 56.7693L83.0681 64.507Z" fill="black"/>
<path opacity="0.05" d="M79.8274 62.4149C79.8274 62.4149 82.3362 55.9325 85.3644 54.6772L79.8274 62.4149Z" fill="black"/>
<path opacity="0.05" d="M138.543 63.9839C138.543 63.9839 147.412 59.6983 153.377 60.1167C159.341 60.5351 160.377 56.7725 160.377 56.7725" fill="black"/>
<path d="M100.173 170.986C99.435 170.299 98.7413 169.487 98.5259 168.501C98.3105 167.515 98.7318 166.33 99.6758 165.965C100.731 165.56 101.861 166.282 102.717 167.034C103.572 167.785 104.554 168.618 105.672 168.46C105.096 167.937 104.665 167.274 104.422 166.535C104.178 165.797 104.13 165.007 104.282 164.244C104.331 163.929 104.464 163.633 104.668 163.388C105.254 162.754 106.318 163.03 107.018 163.524C109.236 165.109 109.869 168.13 109.885 170.863C110.11 169.877 109.92 168.85 109.926 167.839C109.933 166.828 110.208 165.709 111.06 165.163C111.591 164.878 112.188 164.738 112.79 164.758C113.794 164.72 114.912 164.821 115.596 165.556C116.448 166.469 116.23 168 115.485 169.005C114.741 170.01 113.617 170.641 112.581 171.335C111.749 171.831 111.04 172.508 110.506 173.316C110.443 173.429 110.391 173.548 110.351 173.671H104.063C102.651 172.956 101.343 172.053 100.173 170.986Z" fill="#3A7540"/>
<defs>
<linearGradient id="paint0_linear_237_9501" x1="132.771" y1="110.905" x2="132.771" y2="28.9854" gradientUnits="userSpaceOnUse">
<stop stop-color="#808080" stop-opacity="0.25"/>
<stop offset="0.54" stop-color="#808080" stop-opacity="0.12"/>
<stop offset="1" stop-color="#808080" stop-opacity="0.1"/>
</linearGradient>
</defs>
</svg>
