<svg width="203" height="189" viewBox="0 0 203 189" fill="none" xmlns="http://www.w3.org/2000/svg">
<g clip-path="url(#clip0_237_9542)">
<path d="M101.012 189C156.739 189 201.914 185.969 201.914 182.23C201.914 178.491 156.739 175.46 101.012 175.46C45.2844 175.46 0.108643 178.491 0.108643 182.23C0.108643 185.969 45.2844 189 101.012 189Z" fill="#3F3D56"/>
<path d="M102.703 108.325H99.3203V110.3H102.703V108.325Z" fill="#3F3D56"/>
<path d="M109.467 108.325H106.085V110.3H109.467V108.325Z" fill="#3F3D56"/>
<path d="M116.232 108.325H112.849V110.3H116.232V108.325Z" fill="#3F3D56"/>
<path d="M122.996 108.325H119.614V110.3H122.996V108.325Z" fill="#3F3D56"/>
<path d="M129.76 108.325H126.378V110.3H129.76V108.325Z" fill="#3F3D56"/>
<path d="M136.525 108.325H133.143V110.3H136.525V108.325Z" fill="#3F3D56"/>
<path d="M143.289 108.325H139.907V110.3H143.289V108.325Z" fill="#3F3D56"/>
<path d="M150.054 108.325H146.671V110.3H150.054V108.325Z" fill="#3F3D56"/>
<path d="M156.818 108.325H153.436V110.3H156.818V108.325Z" fill="#3F3D56"/>
<path d="M163.583 108.325H160.2V110.3H163.583V108.325Z" fill="#3F3D56"/>
<path d="M170.347 108.325H166.965V110.3H170.347V108.325Z" fill="#3F3D56"/>
<path d="M178.098 109.594C178.098 120.367 173.822 130.699 166.21 138.317C158.599 145.934 148.275 150.214 137.511 150.214C126.747 150.214 116.424 145.934 108.812 138.317C101.201 130.699 96.9246 120.367 96.9246 109.594H178.098Z" fill="#3F3D56"/>
<path d="M176.136 109.854L150.319 32.8351C155.371 31.1348 160.71 30.4481 166.028 30.8142C171.346 31.1803 176.54 32.5921 181.313 34.9689C186.085 37.3456 190.343 40.6406 193.842 44.6655C197.342 48.6904 200.014 53.3661 201.706 58.4254C201.979 59.2406 202.227 60.0614 202.447 60.8823C205.105 70.863 203.863 81.4821 198.976 90.5795C194.088 99.6768 185.921 106.569 176.136 109.854Z" fill="#3F3D56"/>
<path d="M177.111 115.941C179.913 115.941 182.185 113.668 182.185 110.864C182.185 108.06 179.913 105.786 177.111 105.786C174.309 105.786 172.038 108.06 172.038 110.864C172.038 113.668 174.309 115.941 177.111 115.941Z" fill="#3F3D56"/>
<path d="M125.533 120.173C125.159 120.173 124.8 120.321 124.536 120.586C124.272 120.85 124.123 121.209 124.123 121.583C124.123 121.957 124.272 122.316 124.536 122.58C124.8 122.845 125.159 122.993 125.533 122.993H149.772C150.146 122.993 150.504 122.845 150.768 122.58C151.033 122.316 151.181 121.957 151.181 121.583C151.181 121.209 151.033 120.85 150.768 120.586C150.504 120.321 150.146 120.173 149.772 120.173H125.533Z" fill="#3A7540"/>
<path d="M171.192 183.076L166.146 183.263L147.963 144.129L152.564 141.988L171.192 183.076Z" fill="#3F3D56"/>
<path d="M103.83 183.076L108.877 183.263L127.059 144.129L122.459 141.988L103.83 183.076Z" fill="#3F3D56"/>
<path d="M158.509 160.51H116.795V163.331H158.509V160.51Z" fill="#3F3D56"/>
<path d="M151.35 31.397C151.152 31.3971 150.957 31.4436 150.78 31.533C150.603 31.6223 150.449 31.7519 150.331 31.9113C150.213 32.0707 150.135 32.2556 150.101 32.4511C150.067 32.6466 150.08 32.8473 150.138 33.037L151.207 36.5444C151.305 36.8661 151.527 37.1356 151.824 37.2936C152.121 37.4516 152.469 37.4852 152.79 37.387C153.112 37.2888 153.381 37.0669 153.539 36.77C153.697 36.473 153.731 36.1254 153.634 35.8035L152.564 32.2961C152.485 32.0361 152.324 31.8084 152.105 31.6466C151.887 31.4848 151.622 31.3973 151.35 31.397Z" fill="#3A7540"/>
<path d="M95.2337 110.3C94.8973 110.3 94.5747 110.434 94.3368 110.672C94.099 110.91 93.9653 111.233 93.9653 111.569C93.9653 111.906 94.099 112.229 94.3368 112.467C94.5747 112.705 94.8973 112.839 95.2337 112.839H98.8977C99.2341 112.839 99.5567 112.705 99.7946 112.467C100.032 112.229 100.166 111.906 100.166 111.569C100.166 111.233 100.032 110.91 99.7946 110.672C99.5567 110.434 99.2341 110.3 98.8977 110.3H95.2337Z" fill="#3A7540"/>
<path d="M125.533 100.991H110.313C110.217 100.991 110.124 100.994 110.031 101.002C109.036 101.073 108.106 101.518 107.426 102.248C106.746 102.978 106.368 103.938 106.367 104.936C106.366 105.934 106.742 106.895 107.42 107.626C108.098 108.358 109.028 108.805 110.022 108.878C110.118 108.886 110.214 108.889 110.313 108.889H125.533C126.579 108.889 127.583 108.473 128.323 107.733C129.063 106.992 129.479 105.987 129.479 104.94C129.479 103.893 129.063 102.888 128.323 102.148C127.583 101.407 126.579 100.991 125.533 100.991Z" fill="#FF6B6B"/>
<path opacity="0.2" d="M108.779 108.576C111.372 108.243 113.413 104.968 113.413 100.991H112.849C112.849 104.881 110.826 108.043 108.34 108.043V108.359L108.779 108.576Z" fill="black"/>
<path opacity="0.2" d="M114.259 108.607V108.043C116.745 108.043 118.768 104.879 118.768 100.991H119.332C119.332 105.19 117.056 108.607 114.259 108.607Z" fill="black"/>
<path opacity="0.2" d="M120.177 108.607V108.043C122.664 108.043 124.687 104.879 124.687 100.991H125.251C125.251 105.19 122.975 108.607 120.177 108.607Z" fill="black"/>
<path d="M153.154 100.991H137.934C137.838 100.991 137.745 100.994 137.652 101.002C136.658 101.073 135.727 101.518 135.047 102.248C134.368 102.978 133.989 103.938 133.988 104.936C133.987 105.934 134.363 106.895 135.042 107.626C135.72 108.358 136.649 108.805 137.644 108.878C137.739 108.886 137.835 108.889 137.934 108.889H153.154C154.2 108.889 155.204 108.473 155.944 107.733C156.684 106.992 157.1 105.987 157.1 104.94C157.1 103.893 156.684 102.888 155.944 102.148C155.204 101.407 154.2 100.991 153.154 100.991Z" fill="#FF6B6B"/>
<path opacity="0.2" d="M136.401 108.576C138.994 108.243 141.035 104.968 141.035 100.991H140.471C140.471 104.881 138.447 108.043 135.961 108.043V108.359L136.401 108.576Z" fill="black"/>
<path opacity="0.2" d="M141.88 108.607V108.043C144.366 108.043 146.39 104.879 146.39 100.991H146.953C146.953 105.19 144.677 108.607 141.88 108.607Z" fill="black"/>
<path opacity="0.2" d="M147.799 108.607V108.043C150.285 108.043 152.308 104.879 152.308 100.991H152.872C152.872 105.19 150.596 108.607 147.799 108.607Z" fill="black"/>
<path d="M124.419 63.0672C122.424 61.9888 119.958 63.165 118.964 65.074C117.755 67.396 118.757 70.1876 120.167 72.1723C121.632 74.2348 123.62 75.9371 124.598 78.3205C125.534 80.5634 125.645 83.0657 124.911 85.3827C124.178 87.6998 122.648 89.6817 120.592 90.9765C119.675 91.5573 120.523 93.0225 121.446 92.4379C123.462 91.1776 125.057 89.3447 126.027 87.1731C126.997 85.0016 127.298 82.5899 126.893 80.2461C126.687 79.0306 126.295 77.8542 125.729 76.7589C125.116 75.6409 124.378 74.5966 123.529 73.6462C122.061 71.9084 120.215 69.9927 120.123 67.5749C120.106 67.2613 120.128 66.9468 120.188 66.6385C120.232 66.4231 120.297 66.2127 120.383 66.0104C120.588 65.576 120.892 65.196 121.271 64.901C121.623 64.6206 122.038 64.4322 122.481 64.353C122.852 64.2979 123.231 64.3593 123.565 64.5286C124.523 65.0464 125.378 63.5857 124.419 63.0672Z" fill="#E6E6E6"/>
<path d="M149.865 73.3051C149.016 73.0319 148.108 72.9944 147.239 73.1965C146.37 73.3986 145.573 73.8328 144.931 74.4529C144.599 74.7944 144.353 75.21 144.214 75.6654C144.074 76.1208 144.045 76.6029 144.129 77.0717C144.29 78.0974 144.937 79.0083 145.639 79.7424C147.013 81.1788 148.935 82.1076 150.087 83.7567C150.597 84.4593 150.918 85.2822 151.017 86.1454C151.076 86.921 150.934 87.6988 150.604 88.4032C149.745 90.1509 148.04 91.3397 146.241 92.1049C145.821 92.2837 145.728 92.9039 145.938 93.2627C146.055 93.4521 146.24 93.5892 146.455 93.6457C146.671 93.7022 146.9 93.6738 147.094 93.5663C150.404 92.1581 153.467 89.0038 152.554 85.1287C152.074 83.0902 150.602 81.6515 149.017 80.4008C148.23 79.8232 147.486 79.1882 146.792 78.501C146.244 77.9183 145.675 77.1228 145.775 76.3333C145.816 76.0587 145.95 75.8066 146.155 75.6201C146.404 75.3923 146.687 75.2044 146.993 75.0629C147.369 74.8828 147.776 74.7789 148.192 74.7573C148.608 74.7358 149.024 74.7969 149.416 74.9371C149.632 74.9947 149.862 74.965 150.056 74.8544C150.251 74.7439 150.394 74.5613 150.456 74.3461C150.511 74.1298 150.48 73.9006 150.37 73.7065C150.26 73.5125 150.079 73.3686 149.865 73.3051V73.3051Z" fill="#E6E6E6"/>
<path d="M136.991 49.2298C136.487 48.799 135.851 48.5538 135.189 48.5352C134.561 48.547 133.95 48.7446 133.433 49.1032C132.267 49.951 131.442 51.1879 131.107 52.5909C130.253 55.8668 131.368 59.3977 132.916 62.2828C133.699 63.7413 134.611 65.1257 135.399 66.5813C136.159 67.9735 136.743 69.4551 137.136 70.9918C137.938 74.1427 138.01 77.4356 137.345 80.6185C136.669 83.7867 135.245 86.9237 132.823 89.1096C132.664 89.2683 132.575 89.4835 132.575 89.708C132.575 89.9324 132.664 90.1476 132.823 90.3063C132.981 90.465 133.197 90.5542 133.421 90.5542C133.645 90.5542 133.86 90.465 134.019 90.3063C136.168 88.3662 137.606 85.7049 138.474 82.9682C139.431 79.8774 139.711 76.6162 139.295 73.4072C139.107 71.8092 138.743 70.2368 138.211 68.7184C137.634 67.1889 136.914 65.7175 136.06 64.3239C134.47 61.6343 132.778 58.914 132.548 55.7115C132.435 54.1367 132.632 52.4951 133.605 51.2287C133.552 51.298 133.648 51.1783 133.648 51.1778C133.707 51.1071 133.769 51.0382 133.832 50.9713C133.953 50.8415 134.083 50.7206 134.221 50.6093C134.191 50.6325 134.116 50.6826 134.253 50.588C134.32 50.541 134.389 50.4959 134.461 50.4541C134.518 50.4201 134.578 50.3899 134.637 50.3585C134.672 50.3405 134.708 50.3236 134.744 50.3078C134.662 50.3433 134.666 50.3436 134.758 50.3088C134.824 50.288 135.152 50.2172 134.97 50.2402C135.03 50.2329 135.091 50.229 135.152 50.2283C135.178 50.2278 135.406 50.2395 135.295 50.2273C135.165 50.2131 135.398 50.2505 135.4 50.2509C135.473 50.2688 135.544 50.2915 135.614 50.319C135.438 50.2486 135.903 50.51 135.796 50.4266C135.958 50.5787 136.171 50.6634 136.394 50.6634C136.616 50.6634 136.829 50.5787 136.991 50.4266C137.283 50.1346 137.354 49.5119 136.991 49.2298L136.991 49.2298Z" fill="#E6E6E6"/>
<path d="M72.0619 176.413L65.687 178.106L53.978 123.94L67.1182 122.768L72.0619 176.413Z" fill="#FFB9B9"/>
<path d="M42.8948 177.245L36.3733 178.232L30.6418 123.111L43.8311 123.381L42.8948 177.245Z" fill="#FFB9B9"/>
<path d="M39.537 98.8105L40.1392 110.06C40.1613 110.474 40.0942 110.888 39.9425 111.273C39.7908 111.659 39.5579 112.007 39.2598 112.295C38.9616 112.582 38.6051 112.802 38.2145 112.94C37.8239 113.077 37.4083 113.129 36.996 113.091C36.3221 113.03 35.6911 112.734 35.2134 112.254C34.7356 111.774 34.4415 111.142 34.3823 110.467L33.2922 98.0293L24.7056 68.8633L24.9658 50.1138L35.1136 50.6346L39.537 98.8105Z" fill="#FFB9B9"/>
<path d="M45.0012 126.414C39.9181 124.648 34.0203 124.301 27.3076 125.372C28.2596 114.086 28.8109 103.606 28.3484 95.1648H62.955L45.0012 126.414Z" fill="#2F2E41"/>
<path d="M69.1998 126.153C63.9607 128.927 56.3822 130.255 47.6032 130.841L36.6748 95.9459L63.4754 95.425L69.1998 126.153Z" fill="#2F2E41"/>
<path d="M82.6906 182.075L63.8376 182.774C61.4226 182.864 61.2952 180.788 61.7511 178.413L63.9831 172.034C69.0084 176.961 69.4817 177.237 71.6359 170.228L78.2105 175.425L83.077 176.26C83.7585 176.377 84.3766 176.731 84.8219 177.261C85.2672 177.79 85.5109 178.46 85.5098 179.152C85.5086 179.91 85.2144 180.637 84.6887 181.182C84.1631 181.727 83.447 182.047 82.6906 182.075Z" fill="#2F2E41"/>
<path d="M54.1364 182.075L35.2834 182.774C32.8684 182.864 32.741 180.788 33.1969 178.413L35.4289 172.034C40.4542 176.961 40.9275 177.237 43.0817 170.228L49.6563 175.425L54.5228 176.26C55.2043 176.377 55.8224 176.731 56.2677 177.261C56.713 177.79 56.9567 178.46 56.9556 179.152C56.9544 179.91 56.6602 180.637 56.1345 181.182C55.6089 181.727 54.8928 182.047 54.1364 182.075Z" fill="#2F2E41"/>
<path d="M58.5316 22.5103C64.1361 22.5103 68.6794 17.9633 68.6794 12.3543C68.6794 6.74524 64.1361 2.19824 58.5316 2.19824C52.9271 2.19824 48.3838 6.74524 48.3838 12.3543C48.3838 17.9633 52.9271 22.5103 58.5316 22.5103Z" fill="#FFB9B9"/>
<path d="M53.3275 30.3224L41.3584 26.6768L49.4247 14.6978L58.5316 18.604L53.3275 30.3224Z" fill="#FFB9B9"/>
<path d="M64.5163 98.2898C52.2121 101.058 38.5534 99.96 26.7873 96.7273C29.605 81.0027 28.2446 64.1124 25.4863 50.3742C23.3273 39.6211 29.0227 30.5977 38.4963 26.156C40.5326 25.4252 42.6511 24.9478 44.8039 24.7346C51.4494 24.1453 57.2967 29.1322 57.99 35.773L64.5163 98.2898Z" fill="#3A7540"/>
<path d="M32.5117 55.5825L23.925 54.5408L26.5271 40.9995H32.5117V55.5825Z" fill="#3A7540"/>
<path d="M58.3899 13.9623L56.8352 13.2708C56.483 13.1146 56.101 13.0369 55.7158 13.0432C55.3306 13.0494 54.9513 13.1394 54.6043 13.3069C54.2573 13.4744 53.9508 13.7155 53.7062 14.0133C53.4615 14.3112 53.2845 14.6587 53.1873 15.0318L51.0208 18.9495L45.6248 18.0947L45.8132 9.80134C46.0589 8.23413 46.6234 6.73407 47.4717 5.39399C48.32 4.05392 49.4341 2.90235 50.7451 2.01056C52.056 1.11877 53.5358 0.505745 55.093 0.209418C56.6502 -0.086909 58.2516 -0.0602276 59.7981 0.28781L59.9454 0.321157C62.5797 0.91757 65.9996 2.85326 67.7849 4.88523L71.1111 8.67117C71.2689 8.85079 71.3744 9.07023 71.4162 9.30565C71.458 9.54107 71.4346 9.78346 71.3484 10.0065C71.2622 10.2295 71.1166 10.4246 70.9274 10.5706C70.7382 10.7166 70.5126 10.8079 70.2752 10.8346L65.7259 11.337L58.3899 13.9623Z" fill="#2F2E41"/>
<path d="M92.0489 83.2242L86.2219 88.3394C86.1376 88.4133 86.0275 88.4506 85.9156 88.4432C85.8038 88.4359 85.6995 88.3843 85.6256 88.3C85.5517 88.2157 85.5143 88.1055 85.5216 87.9936C85.5288 87.8817 85.5802 87.7772 85.6644 87.7032L91.4914 82.588L90.3762 81.3156L84.5492 86.4308C84.4649 86.5047 84.3547 86.5421 84.2429 86.5347C84.1311 86.5273 84.0268 86.4758 83.9529 86.3915C83.879 86.3072 83.8416 86.1969 83.8488 86.085C83.8561 85.9731 83.9075 85.8687 83.9916 85.7946L89.8187 80.6794L88.7035 79.4071L82.8765 84.5223C82.8348 84.559 82.7862 84.5871 82.7336 84.605C82.681 84.6229 82.6255 84.6303 82.57 84.6267C82.5146 84.6231 82.4604 84.6086 82.4106 84.584C82.3607 84.5594 82.3162 84.5252 82.2796 84.4834C82.243 84.4416 82.2149 84.393 82.1971 84.3404C82.1792 84.2877 82.1719 84.2321 82.1756 84.1766C82.1792 84.1211 82.1938 84.0669 82.2184 84.0171C82.243 83.9672 82.2771 83.9227 82.3189 83.8861L88.146 78.7709L86.752 77.1804L78.5175 84.4091C77.7825 85.0546 77.2913 85.9332 77.1261 86.8978C76.9609 87.8624 77.1318 88.8546 77.6101 89.7082L52.749 111.532L54.9793 114.077L79.8243 92.2671C80.5821 92.8659 81.5256 93.1801 82.4908 93.1553C83.456 93.1304 84.3821 92.7681 85.1082 92.1312L93.4429 84.8147L92.0489 83.2242Z" fill="#E6E6E6"/>
<path d="M63.7357 98.8105L64.3379 110.06C64.36 110.474 64.293 110.888 64.1412 111.273C63.9895 111.659 63.7566 112.007 63.4585 112.295C63.1603 112.582 62.8038 112.802 62.4132 112.94C62.0226 113.077 61.6071 113.129 61.1947 113.091C60.5208 113.03 59.8898 112.734 59.4121 112.254C58.9343 111.774 58.6402 111.142 58.5811 110.467L57.4909 98.0293L48.9043 68.8633L49.1645 50.1138L59.3123 50.6346L63.7357 98.8105Z" fill="#FFB9B9"/>
<path d="M60.0928 53.4992C57.0051 50.5349 52.9295 50.4261 48.3838 51.6763V37.6813C48.3838 36.0059 49.0488 34.3991 50.2325 33.2145C51.4162 32.0298 53.0217 31.3643 54.6957 31.3643C55.4661 31.3643 56.2288 31.5184 56.9389 31.8177C57.649 32.117 58.2921 32.5553 58.8305 33.1069C59.3688 33.6585 59.7916 34.3123 60.0738 35.0298C60.356 35.7473 60.4921 36.514 60.474 37.2849L60.0928 53.4992Z" fill="#3A7540"/>
</g>
<defs>
<clipPath id="clip0_237_9542">
<rect width="203" height="189" fill="white"/>
</clipPath>
</defs>
</svg>
