<svg width="252" height="219" viewBox="0 0 252 219" fill="none" xmlns="http://www.w3.org/2000/svg">
<path opacity="0.1" d="M28.4796 69.5339C23.6859 77.4278 26.9192 87.281 27.705 96.3722C28.1821 101.929 27.6819 107.523 26.2257 112.918C24.1587 120.576 20.1982 127.76 19.1849 135.598C18.1717 143.435 21.3015 152.67 29.0763 155.396C31.0059 156.073 33.0931 156.301 34.971 157.102C40.0641 159.279 42.3225 165.105 42.4959 170.421C42.6692 175.738 41.3003 181.026 41.5479 186.34C41.6875 189.331 42.4238 192.455 44.5516 194.656C46.5082 196.678 49.3543 197.647 52.0945 198.509C60.7587 201.237 69.8056 203.649 78.8886 202.807C87.9716 201.964 97.1785 197.214 100.668 189.179C101.932 186.27 102.4 183.083 103.67 180.183C104.94 177.283 107.344 174.499 110.614 174.044C112.523 173.778 114.442 174.34 116.283 174.893L142.686 182.839C146.739 184.06 151.287 185.253 155.092 183.444C157.049 182.513 158.533 180.895 159.96 179.308C171.241 166.845 182.994 153.327 185.059 136.985C185.786 131.226 185.252 125.368 186.061 119.621C186.869 113.873 189.344 107.919 194.48 104.817C198.44 102.422 203.342 102.063 208.007 101.58C215.559 100.796 223.158 99.468 230.008 96.3396C236.857 93.2112 242.952 88.1061 245.868 81.4226C246.73 79.4459 247.309 77.258 246.823 75.1702C245.954 71.4454 242.079 69.1638 238.447 67.5507C227.585 62.7612 215.805 60.1967 204.071 57.9391C198.69 56.9029 193.264 55.921 187.765 55.9798C183.012 56.0277 178.308 56.8506 173.627 57.6322C133.54 64.296 90.2232 68.5042 49.9892 60.3796C41.5524 58.675 33.0751 61.9644 28.4796 69.5339Z" fill="#A0A8FF"/>
<path d="M214.858 117.088L214.645 117.107L214.711 116.937L214.444 117.05L214.711 116.329C214.711 116.329 213.844 116.688 212.238 117.274C172.808 119.163 90.3015 84.7869 90.3015 84.7869L44.6319 91.2312C44.3665 90.9765 44.1153 90.7065 43.8796 90.4226L44.0824 91.2696C44.0112 91.1892 43.9437 91.1097 43.8796 91.0311L43.9517 91.3271H43.8796L43.9917 91.4861L49.2175 113.267C49.2175 113.267 142.349 165.995 198.399 159.293L214.354 117.858L214.858 117.088Z" fill="url(#paint0_linear_237_9688)"/>
<path d="M91.7394 86.1765C91.7394 86.1765 174.865 120.802 211.716 117.28L187.149 154.852L98.3177 126.38L54.8889 106.126L75.1628 92.037L91.7394 86.1765Z" fill="#3A7540"/>
<path opacity="0.1" d="M88.4526 96.5872L110.591 101.724L65.4578 109.942L54.8887 100.255L88.4526 96.5872Z" fill="white"/>
<path opacity="0.1" d="M98.3071 117.573L124.447 107.741L142.872 114.051L110.592 126.38L98.3071 117.573Z" fill="white"/>
<path opacity="0.1" d="M134.301 128.727L163.01 120.657L188.577 127.847L161.439 137.24L134.301 128.727Z" fill="white"/>
<path d="M47.0327 92.4785L91.7393 86.1685V97.322L54.318 102.897L47.0327 92.4785Z" fill="#3A7540"/>
<path d="M7.46924 55.7861C7.47175 51.2936 8.94723 46.9331 11.6576 43.408C14.3679 39.883 18.1551 37.3991 22.4079 36.3572C41.0092 31.7713 72.2043 26.2151 87.4631 35.5349C110.031 49.3308 173.731 37.2947 173.731 37.2947C173.731 37.2947 213.151 49.6296 212.294 54.0153C211.438 58.4011 7.47724 55.7751 7.47724 55.7751L7.46924 55.7861Z" fill="#3A7540"/>
<path d="M165.054 40.1534C165.544 39.6847 166.006 39.131 166.147 38.4567C166.289 37.7824 166.009 36.9738 165.382 36.7271C164.68 36.453 163.928 36.9518 163.36 37.4562C162.791 37.9606 162.138 38.5389 161.394 38.432C161.777 38.0749 162.064 37.6218 162.226 37.1169C162.388 36.612 162.42 36.0726 162.319 35.5511C162.284 35.3352 162.191 35.1333 162.053 34.9673C161.663 34.5397 160.956 34.7233 160.489 35.0605C159.003 36.135 158.59 38.2073 158.582 40.074C158.433 39.3996 158.558 38.7034 158.555 38.0099C158.553 37.3164 158.369 36.5544 157.8 36.1843C157.447 35.9905 157.051 35.896 156.651 35.9102C155.984 35.8856 155.239 35.9541 154.783 36.4584C154.218 37.0807 154.364 38.1278 154.855 38.8158C155.346 39.5038 156.098 39.9314 156.789 40.4056C157.343 40.7445 157.815 41.2074 158.171 41.7597C158.213 41.8365 158.246 41.9173 158.273 42.0009H162.458C163.401 41.5088 164.274 40.8873 165.054 40.1534Z" fill="#3A7540"/>
<path d="M73.0741 30.7599C73.5649 30.2911 74.0264 29.7374 74.1678 29.0631C74.3092 28.3888 74.0291 27.5802 73.4022 27.3335C72.7006 27.0594 71.9484 27.5583 71.3802 28.0626C70.812 28.567 70.1584 29.1454 69.4141 29.0385C69.7992 28.6802 70.0869 28.2253 70.2492 27.7183C70.4115 27.2114 70.4427 26.6697 70.3398 26.1466C70.3042 25.9307 70.212 25.7288 70.073 25.5627C69.6836 25.1351 68.9766 25.3188 68.5098 25.6559C67.024 26.7305 66.6105 28.8027 66.6025 30.6694C66.4531 29.9951 66.5785 29.2989 66.5758 28.6054C66.5731 27.9119 66.3891 27.1498 65.8209 26.7798C65.4678 26.586 65.0712 26.4914 64.6711 26.5057C64.0042 26.481 63.2599 26.5495 62.8038 27.0539C62.2382 27.6761 62.385 28.7232 62.8758 29.4112C63.3666 30.0993 64.1189 30.5269 64.8098 31.0011C65.3637 31.34 65.836 31.8028 66.1917 32.3552C66.2331 32.432 66.267 32.5128 66.293 32.5964H70.4785C71.4206 32.1077 72.2937 31.4899 73.0741 30.7599Z" fill="#3A7540"/>
<path d="M209.616 51.0138C210.107 50.5451 210.568 49.9914 210.71 49.3171C210.851 48.6427 210.571 47.8341 209.944 47.5874C209.243 47.3133 208.49 47.8122 207.922 48.3166C207.354 48.8209 206.7 49.3993 205.956 49.2924C206.339 48.9352 206.626 48.4821 206.788 47.9773C206.951 47.4724 206.983 46.9329 206.882 46.4115C206.846 46.1956 206.754 45.9937 206.615 45.8276C206.226 45.4 205.519 45.5837 205.052 45.9208C203.566 46.9953 203.152 49.0676 203.144 50.9343C202.995 50.26 203.12 49.5638 203.118 48.8703C203.115 48.1768 202.931 47.4147 202.363 47.0447C202.01 46.8509 201.613 46.7563 201.213 46.7706C200.546 46.7459 199.802 46.8144 199.346 47.3188C198.78 47.941 198.927 48.9881 199.418 49.6761C199.909 50.3642 200.661 50.7918 201.352 51.266C201.906 51.6049 202.378 52.0677 202.734 52.6201C202.775 52.6969 202.809 52.7777 202.835 52.8613H207.021C207.963 52.3692 208.836 51.7477 209.616 51.0138Z" fill="#3A7540"/>
<path d="M157.12 139.08C154.453 136.374 152.342 133.162 151.227 129.5C150.371 126.679 149.605 123.924 149.605 123.033C149.605 121.474 147.495 115.605 144.889 112.776C144.798 112.678 144.705 112.582 144.622 112.502C144.169 110.66 143.265 106.014 144.833 103.13C145.217 102.426 145.537 101.688 145.791 100.924C146.731 97.9666 148.176 95.2053 150.059 92.769C150.436 92.3005 150.77 91.7966 151.057 91.2641C151.71 91.3793 152.094 91.1929 152.014 90.5323C152.014 90.5076 152.014 90.4829 152.014 90.4583C152.316 90.387 152.473 90.1622 152.42 89.7209C152.022 86.47 153.615 76.3087 153.615 76.3087C155.127 71.7244 155.795 66.8907 155.584 62.055C155.186 54.3333 147.218 52.7079 147.218 52.7079L146.559 53.3794C146.026 53.0423 145.428 52.664 144.822 52.2638C144.943 52.21 145.053 52.1322 145.144 52.0348C145.236 51.9374 145.308 51.8224 145.356 51.6964C146.047 50.2244 146.082 48.207 146.18 46.6117C146.238 46.0968 146.215 45.5756 146.111 45.0684C145.983 44.6351 145.777 44.2304 145.503 43.8761C144.887 43.0423 144.099 42.3579 143.197 41.8714C142.295 41.3849 141.3 41.1082 140.282 41.0609C139.621 41.0335 138.948 41.1048 138.3 41.1048C137.084 41.1048 135.867 40.8636 134.656 40.9678C133.445 41.0719 132.165 41.6201 131.628 42.7358C131.292 43.4347 131.29 44.2763 130.892 44.9286C130.433 45.6934 129.54 46.0826 129.025 46.809C128.743 47.2077 128.591 47.6872 128.59 48.1796C128.583 48.3396 128.615 48.499 128.683 48.6428C128.805 48.8164 128.956 48.9667 129.129 49.0869C129.423 49.3618 129.617 49.7316 129.68 50.1353C129.742 50.539 129.668 50.9524 129.47 51.3072C129.881 51.3861 130.261 51.5875 130.562 51.8862C130.862 52.185 131.071 52.5679 131.162 52.9875C131.17 53.1284 131.22 53.2632 131.306 53.374C131.382 53.438 131.474 53.478 131.572 53.4891C132.349 53.6261 133.133 53.2506 133.72 52.7106C133.768 52.8011 133.813 52.8888 133.866 52.9847C134.566 54.1646 135.656 55.0464 136.936 55.4692C138.216 55.8919 139.602 55.8273 140.84 55.2872C140.95 55.4298 141.058 55.5769 141.165 55.7286C141.608 56.3582 141.972 57.0424 142.248 57.7652L141.635 58.3902C141.095 59.259 140.61 60.1616 140.181 61.0929C139.187 63.0425 138.458 65.1233 138.015 67.2768C136.569 68.746 134.333 71.3885 134.067 73.8335C134.067 73.8335 123.708 79.1183 120.921 76.2731C118.133 73.4278 114.548 78.3042 115.343 79.1183C116.138 79.9325 118.53 81.5579 121.318 79.9407H132.477C134.174 79.7081 135.808 79.1234 137.278 78.222C137.081 78.7702 136.836 79.3376 136.563 79.916C136.145 80.7383 135.694 81.5607 135.272 82.298C135.04 82.4926 134.811 82.6818 134.581 82.8627C133.154 83.4685 131.359 84.2332 129.494 85.0556C128.466 85.2805 127.491 85.7108 126.624 86.322C122.318 88.2407 118.421 90.1101 118.536 90.4994C118.248 90.694 118.098 90.8393 118.138 90.916C118.178 90.9928 118.213 91.086 118.269 91.2285C117.962 92.388 117.903 94.759 118.536 99.4518C120.136 111.239 116.543 113.27 116.543 113.27C116.543 113.27 113.755 116.926 110.568 116.521C107.38 116.115 110.17 119.366 112.968 118.96C114.849 118.686 118.909 118.412 121.347 118.261C121.568 118.247 121.782 118.184 121.976 118.075C122.169 117.966 122.337 117.814 122.466 117.631C122.596 117.447 122.685 117.237 122.726 117.014C122.767 116.791 122.76 116.562 122.705 116.342C122.244 114.546 122.184 112.665 122.529 110.841C123.129 107.782 124.631 101.96 125.167 98.7446V98.709C125.968 97.8866 127.459 96.7546 129.297 97.0232C130.255 97.163 131.964 96.2447 133.8 94.9838C132.839 100.6 132.106 106.633 132.882 108.81C134.483 113.281 136.07 115.312 136.07 115.312C136.07 115.312 136.836 115.347 137.911 115.334L138.425 116.156L145.628 127.515C145.628 127.515 152.001 136.862 146.026 138.082C146.026 138.082 141.245 139.302 143.238 140.927C143.238 140.927 157.181 141.333 157.579 140.105C157.675 139.79 157.472 139.436 157.12 139.08Z" fill="url(#paint1_linear_237_9688)"/>
<path d="M148.376 55.1474C148.376 55.1474 142.955 66.2872 142.568 60.7173C142.456 59.0607 141.895 57.4695 140.949 56.1232C139.959 54.7096 138.656 53.5578 137.148 52.7626C137.148 52.7626 140.245 46.7953 139.858 48.3769C139.661 49.1992 141.888 50.9398 144.126 52.4556C146.247 53.9112 148.376 55.1474 148.376 55.1474Z" fill="#FFB9B9"/>
<path d="M122.823 110.052C122.487 111.837 122.545 113.678 122.993 115.438C123.049 115.653 123.058 115.877 123.02 116.096C122.981 116.315 122.896 116.522 122.769 116.703C122.643 116.883 122.48 117.033 122.291 117.141C122.101 117.249 121.891 117.312 121.675 117.326C119.304 117.472 115.359 117.74 113.531 118.009C110.821 118.406 108.111 115.224 111.208 115.621C114.305 116.019 117.015 112.439 117.015 112.439C117.015 112.439 120.499 110.449 118.952 98.9117C118.336 94.3204 118.394 91.9959 118.685 90.8639C118.742 90.5764 118.865 90.3074 119.045 90.0799C119.126 89.9842 119.234 89.9171 119.355 89.888C119.491 89.8744 119.628 89.8919 119.757 89.9393C119.885 89.9867 120.002 90.0628 120.099 90.1621C120.099 90.1621 125.133 94.9371 125.519 96.1295C125.616 96.4228 125.546 97.1848 125.373 98.2155C124.866 101.36 123.407 107.056 122.823 110.052Z" fill="#FFB9B9"/>
<path opacity="0.05" d="M122.823 110.052C122.487 111.837 122.545 113.678 122.993 115.438C123.049 115.653 123.058 115.877 123.02 116.096C122.981 116.315 122.896 116.522 122.769 116.703C122.643 116.883 122.48 117.033 122.291 117.141C122.101 117.249 121.891 117.312 121.675 117.326C119.304 117.472 115.359 117.74 113.531 118.009C110.821 118.406 108.111 115.224 111.208 115.621C114.305 116.019 117.015 112.439 117.015 112.439C117.015 112.439 120.499 110.449 118.952 98.9117C118.336 94.3204 118.394 91.9959 118.685 90.8639C118.742 90.5764 118.865 90.3074 119.045 90.0799C119.126 89.9842 119.234 89.9171 119.355 89.888C119.491 89.8744 119.628 89.8919 119.757 89.9393C119.885 89.9867 120.002 90.0628 120.099 90.1621C120.099 90.1621 125.133 94.9371 125.519 96.1295C125.616 96.4228 125.546 97.1848 125.373 98.2155C124.866 101.36 123.407 107.056 122.823 110.052Z" fill="black"/>
<path d="M156.896 138.699C156.509 139.891 142.958 139.494 142.958 139.494C141.021 137.901 145.668 136.709 145.668 136.709C151.476 135.516 145.281 126.364 145.281 126.364L138.265 115.232L136.753 112.825C136.753 112.825 138.69 110.041 142.174 110.438C142.974 110.528 143.793 111.093 144.558 111.935C147.09 114.703 149.144 120.448 149.144 121.975C149.144 122.847 149.888 125.539 150.721 128.304C151.804 131.89 153.866 135.031 156.448 137.682C156.797 138.052 156.992 138.4 156.896 138.699Z" fill="#FFB9B9"/>
<path opacity="0.1" d="M125.386 98.2127C125.01 98.5393 124.67 98.9069 124.372 99.3092C121.518 98.9419 119.322 92.4975 118.693 90.8639C118.64 90.7241 118.597 90.6199 118.565 90.5569C118.533 90.4938 118.701 90.3074 119.053 90.0799L119.363 89.888C119.499 89.8744 119.636 89.8919 119.765 89.9393C119.893 89.9867 120.01 90.0628 120.107 90.1621C120.107 90.1621 125.141 94.9371 125.527 96.1295C125.629 96.4228 125.559 97.1821 125.386 98.2127Z" fill="black"/>
<path d="M137.534 81.407C137.534 81.407 118.562 89.3562 118.949 90.1593C119.336 90.9624 121.659 98.5142 124.757 98.9116C124.757 98.9116 126.693 96.1267 129.404 96.5241C132.114 96.9216 141.018 88.575 141.018 88.575L147.213 83.8L137.534 81.407Z" fill="#4C4C78"/>
<path opacity="0.05" d="M137.534 81.407C137.534 81.407 118.562 89.3562 118.949 90.1593C119.336 90.9624 121.659 98.5142 124.757 98.9116C124.757 98.9116 126.693 96.1267 129.404 96.5241C132.114 96.9216 141.018 88.575 141.018 88.575L147.213 83.8L137.534 81.407Z" fill="black"/>
<path opacity="0.1" d="M144.892 113.234C144.892 114.892 140.784 115.208 138.273 115.243L136.761 112.836C136.761 112.836 138.697 110.052 142.181 110.449C142.982 110.539 143.801 111.104 144.566 111.946C144.742 112.738 144.892 113.234 144.892 113.234Z" fill="black"/>
<path d="M135.987 83.3972C135.987 83.3972 131.34 103.681 132.89 108.067C134.44 112.453 135.987 114.432 135.987 114.432C135.987 114.432 144.505 114.829 144.505 112.442C144.505 112.442 142.568 106.077 144.505 102.494C144.878 101.805 145.19 101.082 145.436 100.334C146.345 97.4424 147.746 94.7389 149.573 92.3496C150.515 91.1545 151.235 89.8032 151.086 88.5697C150.699 85.3845 135.987 83.3972 135.987 83.3972Z" fill="#4C4C78"/>
<path d="M139.084 66.2871C139.084 66.2871 134.437 70.2781 134.05 73.8416C134.05 73.8416 123.983 79.014 121.273 76.2291C118.562 73.4441 115.078 78.2273 115.857 79.0195C116.636 79.8117 118.954 81.407 121.665 79.8144H132.503C132.503 79.8144 139.861 79.0195 140.239 73.0521C140.618 67.0848 139.084 66.2871 139.084 66.2871Z" fill="#FFB9B9"/>
<path opacity="0.05" d="M139.084 66.2871C139.084 66.2871 134.437 70.2781 134.05 73.8416C134.05 73.8416 123.983 79.014 121.273 76.2291C118.562 73.4441 115.078 78.2273 115.857 79.0195C116.636 79.8117 118.954 81.407 121.665 79.8144H132.503C132.503 79.8144 139.861 79.0195 140.239 73.0521C140.618 67.0848 139.084 66.2871 139.084 66.2871Z" fill="black"/>
<path opacity="0.1" d="M143.15 52.1651C143.081 52.4227 143.254 51.9266 143.15 52.1651C142.584 53.4808 142.248 55.575 140.952 56.1232C139.961 54.7096 138.659 53.5578 137.15 52.7626C137.15 52.7626 140.247 46.7953 139.861 48.3769C139.661 49.1965 140.933 50.6493 143.15 52.1651Z" fill="black"/>
<path d="M143.923 50.5725C143.923 51.6741 143.605 52.751 143.01 53.6669C142.414 54.5829 141.567 55.2968 140.577 55.7184C139.587 56.14 138.497 56.2503 137.445 56.0354C136.394 55.8204 135.428 55.29 134.67 54.511C133.912 53.732 133.395 52.7396 133.186 51.6591C132.977 50.5786 133.084 49.4587 133.495 48.441C133.905 47.4232 134.6 46.5533 135.491 45.9413C136.383 45.3292 137.431 45.0026 138.503 45.0026C139.216 44.9978 139.923 45.1387 140.582 45.4169C141.242 45.6951 141.842 46.1052 142.346 46.6234C142.85 47.1416 143.249 47.7575 143.52 48.4354C143.791 49.1133 143.928 49.8397 143.923 50.5725Z" fill="#FFB9B9"/>
<path opacity="0.1" d="M141.021 59.525L146.442 53.9551C146.442 53.9551 154.178 55.5477 154.573 63.1049C154.767 67.8294 154.111 72.5502 152.636 77.0296C152.636 77.0296 151.086 86.9771 151.475 90.1595C151.865 93.3419 141.408 85.3845 141.408 85.3845C141.408 85.3845 132.89 86.9771 133.277 85.782C133.664 84.5868 138.311 77.8328 137.545 75.4371C137.212 74.4092 137.308 72.1313 137.526 69.8672C137.889 66.1846 139.089 62.6411 141.029 59.5223L141.021 59.525Z" fill="black"/>
<path d="M153.023 76.2346C153.023 76.2346 151.475 86.1765 151.87 89.3644C152.265 92.5523 141.803 84.5894 141.803 84.5894C141.803 84.5894 140.469 84.8389 138.868 85.0664C136.449 85.4118 133.437 85.7078 133.669 84.9869C133.731 84.8178 133.805 84.6538 133.891 84.4962C134.902 82.5336 138.631 76.7965 137.929 74.6283C137.596 73.6031 137.692 71.3225 137.911 69.0584C138.275 65.3758 139.476 61.8325 141.416 58.7135L146.836 53.1436C146.836 53.1436 154.573 54.7361 154.967 62.2933C155.161 67.0239 154.502 71.7505 153.023 76.2346Z" fill="#CBCDDA"/>
<path opacity="0.1" d="M143.923 50.5724C143.925 51.3434 143.77 52.1062 143.467 52.8118C143.006 52.4217 142.607 51.9592 142.286 51.4413C141.823 50.7062 141.319 49.9996 140.776 49.3252C140.659 49.1542 140.496 49.0226 140.306 48.9469C139.949 48.8427 139.586 49.1771 139.485 49.5472C139.422 49.9255 139.422 50.3119 139.485 50.6902C139.515 50.8803 139.505 51.0749 139.454 51.2604C139.404 51.446 139.315 51.6181 139.194 51.7647C138.732 52.2061 137.985 51.8991 137.46 51.5372C136.934 51.1754 136.275 50.7725 135.718 51.0767C135.51 51.211 135.335 51.3919 135.206 51.6058C134.806 52.2543 134.354 52.8668 133.853 53.4368C133.423 52.7008 133.164 51.8726 133.097 51.0168C133.03 50.161 133.156 49.3009 133.466 48.5036C133.776 47.7063 134.261 46.9933 134.883 46.4205C135.506 45.8476 136.248 45.4304 137.054 45.2012C137.859 44.9721 138.705 44.9374 139.525 45.0998C140.346 45.2621 141.119 45.6172 141.783 46.1372C142.448 46.6572 142.987 47.328 143.358 48.0974C143.729 48.8668 143.921 49.7138 143.921 50.5724H143.923Z" fill="black"/>
<path d="M145.817 47.1927C145.874 46.6888 145.852 46.1789 145.751 45.6824C145.627 45.2594 145.427 44.8642 145.161 44.5174C144.566 43.7031 143.803 43.0338 142.926 42.5571C142.05 42.0805 141.083 41.8083 140.093 41.7598C139.45 41.7352 138.809 41.8037 138.167 41.8037C136.985 41.8037 135.803 41.568 134.624 41.6694C133.445 41.7708 132.202 42.3081 131.69 43.399C131.364 44.0843 131.362 44.9066 130.975 45.5563C130.529 46.3046 129.66 46.6856 129.161 47.3983C128.888 47.789 128.74 48.2577 128.739 48.7387C128.732 48.8948 128.763 49.0503 128.83 49.191C128.948 49.3601 129.095 49.5066 129.262 49.624C129.549 49.8944 129.737 50.2566 129.797 50.6515C129.857 51.0463 129.785 51.4504 129.593 51.7977C129.994 51.8749 130.364 52.0722 130.656 52.3648C130.949 52.6574 131.151 53.0323 131.236 53.4424C131.244 53.58 131.292 53.7119 131.375 53.8207C131.451 53.8846 131.544 53.9237 131.642 53.9331C132.418 54.0729 133.207 53.6781 133.776 53.1244C134.344 52.5707 134.76 51.8635 135.216 51.2057C135.344 50.9912 135.518 50.8101 135.726 50.6766C136.283 50.3724 136.939 50.7808 137.465 51.1399C137.991 51.499 138.74 51.806 139.202 51.3619C139.323 51.2158 139.412 51.0442 139.462 50.8591C139.513 50.6739 139.523 50.4798 139.492 50.2901C139.429 49.9119 139.429 49.5254 139.492 49.1471C139.594 48.7771 139.954 48.4426 140.314 48.5468C140.502 48.6232 140.664 48.7559 140.778 48.9278C141.323 49.6019 141.828 50.3085 142.291 51.0439C142.792 51.8416 144.291 53.7302 145.022 52.165C145.689 50.7287 145.735 48.7524 145.817 47.1927Z" fill="#B96B6B"/>
<path opacity="0.1" d="M137.732 74.4447C137.732 74.4447 143.539 74.0472 145.089 75.2396C146.639 76.432 152.825 76.0345 152.825 76.0345" fill="black"/>
<path opacity="0.05" d="M150.699 72.2573C150.699 72.2573 148.762 76.2347 148.762 77.4298C148.762 78.6249 147.213 80.2147 147.213 80.2147C147.213 80.2147 142.838 82.6817 138.86 85.0692C136.441 85.4146 133.429 85.7106 133.661 84.9897C133.723 84.8206 133.797 84.6566 133.882 84.4991C138.009 81.917 143.729 74.6311 143.729 74.6311C143.729 71.0512 145.665 64.6837 145.665 64.6837C145.665 64.6837 150.312 62.2962 151.86 64.6837C153.407 67.0712 150.699 72.2573 150.699 72.2573Z" fill="black"/>
<path opacity="0.1" d="M47.0327 91.5957L52.1732 113.023C52.1732 113.023 141.872 163.804 195.862 157.346L211.574 116.545C211.574 116.545 172.851 132.63 131.759 125.234C130.184 124.948 128.627 124.566 127.096 124.091C114.817 120.314 55.225 101.592 47.0327 91.5957Z" fill="black"/>
<path d="M47.0327 92.1824L52.1732 113.61C52.1732 113.61 141.869 164.388 195.859 157.933L211.571 117.132C211.571 117.132 172.848 133.217 131.756 125.821C130.181 125.534 128.624 125.153 127.093 124.678C114.817 120.901 55.225 102.179 47.0327 92.1824Z" fill="#3A7540"/>
<path d="M78.1069 40.9189L76.8176 42.491L133.66 91.71L134.949 90.1379L78.1069 40.9189Z" fill="#535461"/>
<path d="M144.892 63.9024C144.892 63.9024 142.955 70.2782 142.955 73.8416C142.955 73.8416 134.824 84.1865 130.951 84.584C127.077 84.9815 124.756 87.3689 126.304 88.1639C127.851 88.9588 129.788 90.1539 132.111 88.1639C134.435 86.1738 146.436 79.4115 146.436 79.4115C146.436 79.4115 147.986 77.819 147.986 76.6266C147.986 75.4342 149.923 71.4541 149.923 71.4541C149.923 71.4541 152.633 66.2817 151.083 63.8942C149.533 61.5067 144.892 63.9024 144.892 63.9024Z" fill="#FFB9B9"/>
<path opacity="0.1" d="M149.539 57.5349C149.539 57.5349 142.568 56.7399 143.731 67.0821C143.731 67.0821 148.378 64.2971 152.249 67.0821C152.249 67.0848 153.796 59.5249 149.539 57.5349Z" fill="black"/>
<path d="M149.539 56.7399C149.539 56.7399 142.568 55.945 143.731 66.2872C143.731 66.2872 148.378 63.5022 152.249 66.2872C152.249 66.2872 153.796 58.73 149.539 56.7399Z" fill="#CBCDDA"/>
<path d="M79.1695 43.5225L76.8833 161.455" stroke="#535461" stroke-width="2" stroke-miterlimit="10"/>
<path opacity="0.15" d="M71.1721 152.941C71.1721 152.941 62.6037 158.223 68.0296 169.966" stroke="#6C63FF" stroke-miterlimit="10"/>
<path opacity="0.15" d="M75.1708 154.997C75.1708 154.997 66.6025 160.279 72.0284 172.022" stroke="#6C63FF" stroke-miterlimit="10"/>
<path opacity="0.15" d="M79.7405 152.941C79.7405 152.941 88.3089 158.223 82.8829 169.966" stroke="#6C63FF" stroke-miterlimit="10"/>
<path opacity="0.15" d="M76.5979 155.877C76.5979 155.877 85.1663 161.159 79.7404 172.902" stroke="#6C63FF" stroke-miterlimit="10"/>
<defs>
<linearGradient id="paint0_linear_237_9688" x1="129.374" y1="159.879" x2="129.374" y2="84.7869" gradientUnits="userSpaceOnUse">
<stop stop-color="#808080" stop-opacity="0.25"/>
<stop offset="0.54" stop-color="#808080" stop-opacity="0.12"/>
<stop offset="1" stop-color="#808080" stop-opacity="0.1"/>
</linearGradient>
<linearGradient id="paint1_linear_237_9688" x1="133.373" y1="140.971" x2="133.373" y2="40.9486" gradientUnits="userSpaceOnUse">
<stop stop-color="#808080" stop-opacity="0.25"/>
<stop offset="0.54" stop-color="#808080" stop-opacity="0.12"/>
<stop offset="1" stop-color="#808080" stop-opacity="0.1"/>
</linearGradient>
</defs>
</svg>
