<svg width="40" height="40" viewBox="0 0 40 40" fill="none" xmlns="http://www.w3.org/2000/svg">
<path d="M39.8734 11.1465C39.7582 10.9828 39.6054 10.8492 39.4277 10.757C39.2501 10.6647 39.0529 10.6165 38.8528 10.6164H12.1905L10.1723 3.65651C9.38079 0.915913 7.50008 0.620056 6.72872 0.620056H1.34739C0.657647 0.620056 0.0998535 1.17848 0.0998535 1.86755C0.0998535 2.55663 0.658275 3.11501 1.34735 3.11501H6.72805C6.89828 3.11501 7.41776 3.11501 7.77207 4.33927L14.715 29.8552C14.8657 30.3935 15.3563 30.7653 15.9159 30.7653H32.8746C33.4011 30.7653 33.8709 30.4356 34.0487 29.94L40.0261 12.2859C40.1637 11.9034 40.1065 11.4775 39.8735 11.1465H39.8734ZM31.9967 28.271H16.8628L12.8917 13.112H37.0791L31.9967 28.271ZM29.5225 33.2937C27.7875 33.2937 26.3818 34.6995 26.3818 36.4344C26.3818 38.1694 27.7875 39.5752 29.5225 39.5752C31.2574 39.5752 32.6632 38.1694 32.6632 36.4344C32.6632 34.6995 31.2574 33.2937 29.5225 33.2937ZM18.2159 33.2937C16.4809 33.2937 15.0751 34.6995 15.0751 36.4344C15.0751 38.1694 16.4809 39.5752 18.2159 39.5752C19.9508 39.5752 21.3566 38.1694 21.3566 36.4344C21.3566 34.6995 19.9508 33.2937 18.2159 33.2937Z" fill="#0F172E"/>
</svg>
