<svg width="746" height="852" viewBox="0 0 746 852" fill="none" xmlns="http://www.w3.org/2000/svg">
<g clip-path="url(#clip0_237_9456)">
<path d="M358 799.28L357.049 777.905C356.95 777.852 356.851 777.8 356.752 777.748C346.565 772.403 334.889 782.079 338.143 793.113C341.204 803.495 343.261 814.687 348.866 823.775C352.177 829.053 356.633 833.518 361.905 836.84C367.177 840.162 373.128 842.255 379.319 842.964L392.262 850.888C394.038 840.988 393.647 830.82 391.114 821.086C388.582 811.352 383.97 802.282 377.595 794.502C373.975 790.173 369.824 786.317 365.241 783.024C362.141 791.198 358 799.28 358 799.28Z" fill="#F2F2F2"/>
<path d="M262.869 582.633C239.85 556.924 206.493 542.179 171.35 542.179L169.994 542.183C146.847 542.193 124.112 535.544 104.115 522.916L102.034 521.603L103.71 519.733C112.784 509.567 120.36 497.951 126.173 485.292C122.044 489.461 117.12 492.596 111.748 494.475C106.376 496.354 100.689 496.932 95.088 496.167C89.175 495.404 83.4984 493.2 78.4839 489.722C73.4694 486.243 69.2474 481.581 66.1344 476.083C53.8515 454.5 39.2102 423.876 39.2102 400.547C39.2293 380.827 43.0419 361.329 50.4049 343.293C57.7679 325.258 68.5199 309.082 81.9754 295.796C90.4939 287.478 97.298 277.309 101.944 265.952C106.59 254.595 108.974 242.305 108.94 229.883L108.933 228.115C108.931 211.761 110.776 195.469 114.428 179.6L114.799 177.998L116.321 178.056C126.139 178.417 135.961 177.526 145.586 175.4C136.558 174.201 127.726 171.657 119.341 167.841L117.703 167.123L118.259 165.306C156.573 139.615 243.058 152.919 293.257 28.5391C333.961 -72.3162 477.58 118.068 477.58 228.115C477.58 239.344 467.318 254.183 475 261.605C558.04 341.835 500.743 393.354 482.679 445.194C478.393 457.494 487.686 470.997 487.686 484.304C487.686 486.561 487.633 488.892 487.528 491.231L487.368 494.826L484.599 492.831C479.122 488.945 474.045 484.435 469.454 479.378C474.217 491.246 476.461 504.12 476.022 517.051C475.583 529.983 472.473 542.643 466.92 554.101C458.217 571.888 449.798 584.623 441.896 591.948C416.584 615.406 383.953 627.507 350.675 625.776C317.398 624.044 285.988 608.611 262.869 582.633Z" fill="#3A7540"/>
<path d="M392.62 849.833C393.233 849.833 393.824 849.611 394.287 849.209C394.749 848.808 395.051 848.253 395.138 847.646C395.246 846.886 405.841 770.476 396.325 668.923C387.537 575.137 359.315 440.051 274.773 329.108C274.57 328.841 274.317 328.617 274.028 328.449C273.739 328.28 273.42 328.17 273.088 328.125C272.756 328.08 272.419 328.101 272.095 328.187C271.772 328.272 271.468 328.42 271.202 328.623C270.936 328.826 270.712 329.079 270.544 329.369C270.376 329.658 270.266 329.978 270.222 330.309C270.177 330.641 270.199 330.978 270.284 331.301C270.37 331.625 270.519 331.928 270.722 332.194C354.534 442.179 382.529 576.274 391.255 669.398C400.716 770.36 390.203 846.174 390.096 846.929C390.045 847.29 390.072 847.658 390.176 848.008C390.279 848.358 390.456 848.681 390.696 848.957C390.935 849.232 391.231 849.453 391.563 849.604C391.895 849.755 392.255 849.833 392.62 849.833Z" fill="#3F3D56"/>
<path d="M323.628 485.598C324.166 485.599 324.69 485.429 325.126 485.113C325.561 484.797 325.885 484.352 326.052 483.84C326.218 483.329 326.218 482.778 326.052 482.267C325.886 481.755 325.563 481.309 325.127 480.993C324.821 480.77 293.893 458.487 247.655 441.559C204.913 425.912 139.916 411.727 73.0034 433.021C72.6843 433.122 72.3882 433.285 72.1322 433.5C71.8761 433.716 71.665 433.98 71.511 434.277C71.3571 434.574 71.2632 434.898 71.2348 435.232C71.2064 435.565 71.244 435.901 71.3455 436.22C71.447 436.539 71.6103 436.835 71.8262 437.09C72.0422 437.346 72.3064 437.557 72.6038 437.71C72.9012 437.864 73.226 437.957 73.5595 437.985C73.893 438.013 74.2287 437.974 74.5475 437.872C140.089 417.016 203.908 430.966 245.905 446.341C291.482 463.027 321.832 484.893 322.134 485.112C322.568 485.428 323.091 485.599 323.628 485.598Z" fill="#3F3D56"/>
<path d="M440.162 195.381C440.201 194.845 440.069 194.31 439.786 193.853C439.502 193.396 439.081 193.041 438.583 192.838C438.085 192.635 437.535 192.595 437.013 192.724C436.491 192.853 436.023 193.144 435.676 193.555C435.431 193.845 410.977 223.085 390.762 267.98C372.076 309.481 353.246 373.282 369.668 441.549C369.825 442.206 370.238 442.773 370.814 443.125C371.389 443.478 372.082 443.587 372.738 443.429C373.395 443.271 373.962 442.859 374.314 442.283C374.667 441.707 374.776 441.015 374.618 440.359C358.534 373.49 377.045 310.847 395.405 270.07C415.332 225.817 439.329 197.122 439.569 196.837C439.916 196.427 440.123 195.917 440.162 195.381Z" fill="#3F3D56"/>
<path d="M436.716 326.66C438.864 343.99 450.874 358.28 468.339 358.28C476.726 358.28 484.769 354.949 490.7 349.019C496.63 343.089 499.962 335.046 499.962 326.66C499.962 309.196 485.729 296.654 468.339 295.039C449.887 293.326 433.958 304.409 436.716 326.66Z" fill="#2F2E41"/>
<path d="M482.985 835.906L495.027 835.905L500.756 789.459L482.983 789.461L482.985 835.906Z" fill="#FFB6B6"/>
<path d="M482.562 848.467L519.593 848.466V847.998C519.593 844.175 518.075 840.51 515.371 837.807C512.668 835.104 509.002 833.586 505.18 833.585H505.179L498.415 828.454L485.794 833.586L482.561 833.586L482.562 848.467Z" fill="#2F2E41"/>
<path d="M435.551 835.906L447.593 835.905L453.322 789.459L435.548 789.461L435.551 835.906Z" fill="#FFB6B6"/>
<path d="M435.128 848.467L472.159 848.466V847.998C472.159 844.175 470.64 840.51 467.937 837.807C465.234 835.104 461.568 833.586 457.745 833.585H457.745L450.98 828.454L438.36 833.586L435.127 833.586L435.128 848.467Z" fill="#2F2E41"/>
<path d="M524.426 545.009L532.94 574.198L522.91 697.815C522.91 697.815 528.075 705.544 524.426 705.544C520.777 705.544 516.098 707.258 519.046 711.873C521.993 716.489 511.919 733.06 511.919 733.06L497.668 821.08L479.51 820.811C479.51 820.811 470.279 815.669 475.459 810.469C480.64 805.269 484.289 805.269 479.424 800.405C474.559 795.54 474.559 797.005 474.559 793.232C474.559 789.459 469.685 743.35 481.244 725.663L477.761 653.55L469.558 724.284L452.666 818.647L435.174 818.503C435.174 818.503 427.095 810.716 427.11 804.952C427.125 799.189 432.102 798.71 428.397 795.301C424.692 791.892 424.692 739.52 435.639 710.408C435.639 710.408 441.831 694.143 435.624 688.57C429.418 682.997 435.617 676.619 435.617 676.619C435.617 676.619 445.446 673.066 435.608 662.829C425.77 652.592 435.555 580.192 435.555 580.192C435.555 580.192 424.8 550.966 435.692 539.475C446.585 527.983 524.426 545.009 524.426 545.009Z" fill="#2F2E41"/>
<path d="M372.788 595.298L387.979 558.591L399.947 565.239L392.719 602.579C393.443 604.945 393.493 607.466 392.862 609.858C392.232 612.25 390.947 614.419 389.151 616.121C387.356 617.823 385.121 618.99 382.698 619.492C380.276 619.994 377.761 619.81 375.437 618.961C373.113 618.112 371.073 616.631 369.544 614.686C368.016 612.741 367.06 610.408 366.785 607.949C366.509 605.491 366.926 603.004 367.986 600.769C369.047 598.534 370.71 596.639 372.788 595.298Z" fill="#FFB6B6"/>
<path d="M627.686 305.034L604.573 337.344L594.423 328.157L609.924 293.426C609.755 290.958 610.278 288.492 611.434 286.304C612.59 284.117 614.333 282.296 616.467 281.045C618.602 279.794 621.043 279.163 623.516 279.223C625.99 279.283 628.397 280.032 630.468 281.386C632.539 282.739 634.192 284.644 635.24 286.884C636.288 289.125 636.69 291.614 636.401 294.071C636.112 296.528 635.143 298.856 633.603 300.792C632.064 302.729 630.015 304.198 627.686 305.034Z" fill="#FFB6B6"/>
<path d="M526.72 548.002C541.711 571.253 466.355 600.76 437.44 588.914C432.377 586.84 414.961 579.988 426.866 570.489C438.77 560.991 425.485 559.654 425.171 553.47C424.961 549.336 428.162 540.268 424.823 540.657C421.483 541.046 417.574 535.329 424.847 532.868C432.121 530.408 424.925 528.165 424.989 525.829C425.685 500.344 445.24 459.807 445.24 459.807L410.003 549.873C410.003 549.873 410.264 565.455 405.77 560.693C401.277 555.932 401.604 571.343 401.604 571.343C401.604 571.343 394.922 576.005 398.764 578.6C402.606 581.195 394.628 589.173 394.628 589.173L376.011 587.844C376.011 587.844 376.302 574.015 379.481 570.957C382.66 567.899 381.098 563.086 381.098 563.086C381.098 563.086 389.374 555.761 383.826 549.813C376.69 542.163 402.707 412.958 411.686 414.237C412.956 408.06 415.909 402.354 420.219 397.749C424.529 393.145 430.028 389.822 436.109 388.148L456.217 382.612L459.787 368.447H488.1L493.032 377.755L514.557 387.468C518.612 381.748 521.641 375.72 538.244 373.766C538.244 373.766 582.982 333.065 580.797 329.887C578.613 326.708 585.548 319.268 585.548 319.268C585.548 319.268 591.471 317.33 588.129 316.295C584.787 315.26 591.104 312.867 591.104 312.867C591.104 312.867 596.954 311.33 594.195 309.306C591.436 307.282 603.404 305.952 603.404 305.952L618.932 318.621L615.793 323.942C615.793 323.942 617.707 331.188 615.21 328.543C612.712 325.897 612.242 333.574 612.242 333.574C612.242 333.574 610.967 341.98 603.404 344.513C595.841 347.046 590.106 371.106 590.106 371.106C572.27 394.295 551.22 412.385 526.276 424.293C535.998 435.451 526.72 548.002 526.72 548.002Z" fill="#FF5656"/>
<path d="M471.834 360.157C487.321 360.157 499.876 347.604 499.876 332.118C499.876 316.632 487.321 304.078 471.834 304.078C456.347 304.078 443.792 316.632 443.792 332.118C443.792 347.604 456.347 360.157 471.834 360.157Z" fill="#FFB6B6"/>
<path d="M442.797 335.173C443.685 341.266 448.878 349.767 447.662 349.767C446.446 349.767 437.798 324.649 446.446 323.011C452.718 321.823 454.121 322.865 459.983 320.323L459.156 321.102C463.036 323.923 468.436 322.184 472.863 320.348C477.303 318.523 482.691 316.784 486.583 319.594C489.027 321.357 490.061 324.422 491.582 327.024C493.102 329.639 495.911 332.108 498.806 331.305C501.129 330.661 502.467 328.058 502.455 325.65C502.443 323.242 499.307 320.951 500.363 318.791C503.493 312.388 500.678 308.025 493.856 305.012C491.375 304.635 488.894 304.25 486.412 303.856C487.713 302.056 489.289 300.471 491.083 299.162C490.325 297.219 489.014 295.54 487.312 294.334C485.33 293.154 482.873 293.239 480.574 293.361C475.442 293.628 470.313 293.896 465.189 294.164C461.394 294.358 457.465 294.589 454.072 296.328C449.839 298.505 447.066 302.75 445.047 307.067C440.523 316.772 441.24 324.58 442.797 335.173Z" fill="#2F2E41"/>
<path d="M326.145 851.626L601.933 852C602.317 852 602.685 851.848 602.957 851.576C603.228 851.304 603.381 850.936 603.381 850.552C603.381 850.168 603.228 849.8 602.957 849.528C602.685 849.257 602.317 849.104 601.933 849.104L326.145 848.73C325.761 848.73 325.392 848.883 325.121 849.154C324.849 849.426 324.696 849.794 324.696 850.178C324.696 850.562 324.849 850.931 325.121 851.202C325.392 851.474 325.761 851.626 326.145 851.626Z" fill="#CACACA"/>
<path d="M226.399 725.399C226.907 721.905 223.247 718.48 218.224 717.749C213.201 717.018 208.717 719.259 208.209 722.753C207.7 726.247 211.36 729.672 216.383 730.402C221.406 731.133 225.89 728.893 226.399 725.399Z" fill="#E6E6E6"/>
<path d="M286.204 719.564C286.713 716.07 283.053 712.645 278.03 711.914C273.007 711.183 268.523 713.423 268.014 716.917C267.506 720.411 271.166 723.836 276.189 724.567C281.212 725.298 285.696 723.058 286.204 719.564Z" fill="#3F3D56"/>
<path d="M210.022 676.985C210.531 673.491 206.871 670.066 201.848 669.336C196.825 668.605 192.34 670.845 191.832 674.339C191.324 677.833 194.984 681.258 200.007 681.989C205.03 682.72 209.514 680.479 210.022 676.985Z" fill="#FF6584"/>
<path d="M184.035 657.155C184.06 653.947 182.27 651.333 180.038 651.316C177.807 651.299 175.978 653.886 175.954 657.094C175.93 660.301 177.719 662.915 179.951 662.932C182.182 662.949 184.011 660.362 184.035 657.155Z" fill="#E6E6E6"/>
<path d="M175.222 620.218C175.247 617.01 173.457 614.396 171.226 614.379C168.994 614.362 167.165 616.949 167.141 620.157C167.117 623.364 168.906 625.978 171.138 625.995C173.369 626.012 175.198 623.425 175.222 620.218Z" fill="#3F3D56"/>
<path d="M243.753 685.224C243.777 682.017 241.988 679.403 239.756 679.386C237.525 679.369 235.696 681.955 235.672 685.163C235.648 688.371 237.437 690.985 239.669 691.002C241.9 691.019 243.729 688.432 243.753 685.224Z" fill="#E6E6E6"/>
<path d="M214.852 699.653C214.877 696.445 213.087 693.831 210.856 693.814C208.624 693.797 206.795 696.384 206.771 699.592C206.747 702.799 208.536 705.413 210.768 705.43C212.999 705.447 214.828 702.86 214.852 699.653Z" fill="#FF6584"/>
<path d="M255.083 726.321C255.108 723.113 253.318 720.499 251.087 720.482C248.855 720.465 247.026 723.052 247.002 726.26C246.978 729.467 248.767 732.081 250.999 732.098C253.23 732.115 255.059 729.528 255.083 726.321Z" fill="#3F3D56"/>
<path d="M686.147 538.109C686.656 534.615 682.996 531.19 677.973 530.459C672.95 529.728 668.465 531.968 667.957 535.462C667.449 538.957 671.108 542.381 676.132 543.112C681.155 543.843 685.639 541.603 686.147 538.109Z" fill="#E6E6E6"/>
<path d="M745.953 532.274C746.461 528.78 742.801 525.355 737.778 524.624C732.755 523.893 728.271 526.133 727.763 529.627C727.254 533.121 730.914 536.546 735.937 537.277C740.96 538.008 745.444 535.768 745.953 532.274Z" fill="#3F3D56"/>
<path d="M669.77 489.696C670.278 486.201 666.618 482.777 661.595 482.046C656.572 481.315 652.088 483.555 651.579 487.049C651.071 490.543 654.731 493.968 659.754 494.699C664.777 495.43 669.261 493.19 669.77 489.696Z" fill="#FF6584"/>
<path d="M643.784 469.865C643.808 466.657 642.019 464.043 639.787 464.026C637.555 464.009 635.727 466.596 635.702 469.804C635.678 473.011 637.468 475.625 639.699 475.642C641.931 475.659 643.76 473.073 643.784 469.865Z" fill="#E6E6E6"/>
<path d="M634.971 432.928C634.995 429.72 633.206 427.106 630.974 427.089C628.743 427.072 626.914 429.659 626.89 432.867C626.865 436.074 628.655 438.688 630.886 438.705C633.118 438.722 634.947 436.136 634.971 432.928Z" fill="#3F3D56"/>
<path d="M703.502 497.934C703.526 494.727 701.737 492.113 699.505 492.096C697.273 492.079 695.445 494.665 695.42 497.873C695.396 501.081 697.186 503.695 699.417 503.712C701.649 503.729 703.477 501.142 703.502 497.934Z" fill="#E6E6E6"/>
<path d="M674.601 512.363C674.625 509.155 672.836 506.541 670.604 506.524C668.372 506.508 666.544 509.094 666.52 512.302C666.495 515.51 668.285 518.124 670.516 518.14C672.748 518.157 674.577 515.571 674.601 512.363Z" fill="#FF6584"/>
<path d="M714.832 539.031C714.856 535.823 713.066 533.209 710.835 533.192C708.603 533.175 706.774 535.762 706.75 538.97C706.726 542.177 708.515 544.791 710.747 544.808C712.979 544.825 714.807 542.238 714.832 539.031Z" fill="#3F3D56"/>
<path d="M463.571 191.501C464.079 188.007 460.419 184.582 455.396 183.852C450.373 183.121 445.889 185.361 445.38 188.855C444.872 192.349 448.532 195.774 453.555 196.505C458.578 197.235 463.062 194.995 463.571 191.501Z" fill="white"/>
<path d="M523.376 185.666C523.885 182.172 520.225 178.747 515.202 178.016C510.179 177.285 505.694 179.525 505.186 183.019C504.678 186.513 508.337 189.938 513.361 190.669C518.384 191.4 522.868 189.16 523.376 185.666Z" fill="#3F3D56"/>
<path d="M447.194 143.088C447.703 139.594 444.043 136.169 439.02 135.438C433.996 134.707 429.512 136.947 429.004 140.441C428.495 143.936 432.155 147.36 437.178 148.091C442.201 148.822 446.686 146.582 447.194 143.088Z" fill="#FF6584"/>
<path d="M421.207 123.257C421.231 120.049 419.442 117.435 417.21 117.418C414.979 117.402 413.15 119.988 413.126 123.196C413.101 126.404 414.891 129.018 417.122 129.034C419.354 129.051 421.183 126.465 421.207 123.257Z" fill="#E6E6E6"/>
<path d="M412.395 86.32C412.419 83.1123 410.629 80.4983 408.398 80.4814C406.166 80.4645 404.337 83.0512 404.313 86.2589C404.289 89.4665 406.078 92.0806 408.31 92.0974C410.542 92.1143 412.37 89.5277 412.395 86.32Z" fill="#3F3D56"/>
<path d="M480.925 151.327C480.949 148.119 479.16 145.505 476.928 145.488C474.697 145.471 472.868 148.058 472.844 151.265C472.819 154.473 474.609 157.087 476.84 157.104C479.072 157.121 480.901 154.534 480.925 151.327Z" fill="#E6E6E6"/>
<path d="M452.024 165.755C452.048 162.547 450.259 159.933 448.027 159.917C445.796 159.9 443.967 162.486 443.943 165.694C443.919 168.902 445.708 171.516 447.94 171.533C450.171 171.549 452 168.963 452.024 165.755Z" fill="#FF6584"/>
<path d="M492.255 192.423C492.279 189.215 490.49 186.601 488.258 186.584C486.027 186.568 484.198 189.154 484.174 192.362C484.15 195.57 485.939 198.184 488.171 198.2C490.402 198.217 492.231 195.631 492.255 192.423Z" fill="#3F3D56"/>
</g>
<defs>
<clipPath id="clip0_237_9456">
<rect width="746" height="852" fill="white"/>
</clipPath>
</defs>
</svg>
