<svg width="250" height="184" viewBox="0 0 250 184" fill="none" xmlns="http://www.w3.org/2000/svg">
<g clip-path="url(#clip0_237_9593)">
<path d="M160.587 11.4993C160.592 14.3963 159.498 17.1874 157.527 19.3098C157.378 19.4727 157.22 19.6303 157.06 19.7826C151.12 15.2094 144.891 11.0256 138.411 7.25755C138.491 7.05454 138.576 6.85421 138.67 6.65654C139.773 4.28189 141.652 2.35485 143.999 1.19414C146.345 0.0334307 149.017 -0.291422 151.573 0.273308C154.129 0.838038 156.415 2.25852 158.054 4.29983C159.694 6.34114 160.587 8.88099 160.587 11.4993V11.4993Z" fill="#F2F2F2"/>
<path d="M169.909 34.8986L169.898 35.0188C162.339 34.4979 154.78 33.9761 147.223 33.4535C141.762 33.0768 136.112 32.6495 131.287 30.0638C129.455 29.0835 127.671 27.7746 125.594 27.6838C123.017 27.5689 120.769 29.372 119.001 31.2524C108.552 42.3858 105.527 59.409 93.8044 69.1881C101.198 50.9498 110.025 33.3264 120.203 16.4837C122.082 13.3718 124.312 10.0489 127.802 9.03383C131.132 8.0642 134.539 9.47991 137.605 11.2963C138.261 11.6863 138.902 12.095 139.522 12.501C144.245 15.5942 148.892 18.8058 153.46 22.1358C159.071 26.22 164.554 30.4743 169.909 34.8986Z" fill="#F2F2F2"/>
<path d="M194.358 58.5115C186.278 47.1026 176.89 36.6792 166.387 27.4541C163.367 24.799 160.258 22.2418 157.06 19.7825C151.12 15.2094 144.891 11.0256 138.411 7.25753C136.285 6.02346 134.135 4.83836 131.96 3.70223C130.269 2.82343 128.47 2.0194 126.52 2.14495C125.157 2.26155 123.854 2.76263 122.763 3.59004C120.368 5.33965 118.782 8.07223 117.476 10.6766C116.333 12.9604 115.268 15.2897 114.181 17.6056C113.719 18.5912 113.257 19.5742 112.779 20.5518C111.113 23.9763 109.408 27.382 107.663 30.769C105.415 35.1337 103.101 39.4654 100.723 43.7641C95.7271 52.8006 90.4551 61.6742 84.9072 70.3848C76.7523 83.1876 68.0277 95.6022 58.7335 107.629C57.5933 109.1 57.1233 109.442 55.9671 110.903C55.7001 111.245 55.2248 110.765 55.4891 110.425C65.1314 98.2342 73.5266 86.7162 81.9913 73.6757C88.3732 63.8432 94.4044 53.7925 100.085 43.5237C101.909 40.2302 103.694 36.9162 105.441 33.5817C108.269 28.1833 110.999 22.7341 113.631 17.2343C114.325 15.7865 115.012 14.3334 115.692 12.8749C117.853 8.24584 120.998 1.36229 127.073 1.45578C128.859 1.4825 130.518 2.20637 132.082 3.00772C133.677 3.82776 135.241 4.69855 136.803 5.5827C137.428 5.93529 138.05 6.29323 138.67 6.6565C141.124 8.08289 143.541 9.56894 145.922 11.1147C149.896 13.6923 153.764 16.424 157.527 19.3097C159.314 20.68 161.073 22.0815 162.806 23.5141C173.68 32.5136 183.457 42.762 191.936 54.048C192.959 55.4077 193.96 56.7824 194.94 58.1723C195.191 58.5276 194.606 58.8641 194.358 58.5115Z" fill="#E4E4E4"/>
<path d="M166.988 24.0544C167.341 23.6608 167.692 23.2672 168.047 22.8736C170.849 19.7741 173.855 16.7107 177.702 14.9338C179.537 14.0598 181.539 13.5955 183.571 13.573C185.667 13.6306 187.734 14.0815 189.664 14.9023C190.581 15.269 191.479 15.6851 192.362 16.1282C193.372 16.6365 194.363 17.1785 195.35 17.7251C197.203 18.7507 199.032 19.8214 200.837 20.937C204.427 23.157 207.906 25.5464 211.272 28.1053C213.017 29.4323 214.725 30.8028 216.398 32.2168C217.954 33.5304 219.479 34.8791 220.972 36.2632C221.291 36.5578 221.768 36.081 221.448 35.7863C221.055 35.4197 220.657 35.0553 220.259 34.6955C219.135 33.6788 217.992 32.6817 216.832 31.704C214.716 29.9181 212.546 28.2012 210.321 26.5533C206.86 23.9892 203.281 21.599 199.582 19.3828C197.734 18.2762 195.86 17.216 193.961 16.2024C193.388 15.8965 192.807 15.5974 192.221 15.3139C190.889 14.6421 189.506 14.0787 188.083 13.6293C186.069 12.9774 183.938 12.768 181.835 13.0153C179.805 13.3107 177.849 13.9876 176.07 15.0103C172.293 17.1223 169.363 20.3882 166.512 23.5753C166.224 23.8992 166.698 24.3783 166.988 24.0544Z" fill="#E4E4E4"/>
<path d="M89.5915 56.1726L80.5399 52.8608L76.0458 51.2165C74.5938 50.6317 73.1129 50.1215 71.6089 49.6879C70.294 49.3122 68.8979 49.33 67.593 49.7391C66.4293 50.17 65.3641 50.8305 64.4607 51.6815C63.5377 52.5317 62.679 53.449 61.8915 54.4261C60.9131 55.6024 59.949 56.791 58.9807 57.9756C54.9843 62.8648 51.0139 67.7752 47.0697 72.7068C43.1256 77.6384 39.2078 82.5909 35.3165 87.5644C31.4156 92.55 27.5415 97.5564 23.6943 102.584C23.223 103.2 22.7521 103.816 22.2816 104.432C22.0217 104.773 21.4356 104.437 21.6992 104.092C25.5748 99.0138 29.4775 93.9568 33.4071 88.9205C37.3464 83.8721 41.3129 78.8452 45.3067 73.8397C49.3003 68.8343 53.321 63.8506 57.3686 58.8886C58.377 57.6524 59.3871 56.4176 60.3988 55.1841C61.2522 54.1437 62.096 53.092 63.0321 52.1235C64.7503 50.3459 66.8969 48.775 69.4665 48.7324C70.9773 48.7073 72.4394 49.1869 73.8431 49.6949C75.3564 50.2425 76.866 50.8004 78.3773 51.3533L87.4921 54.6882L89.7708 55.522C90.1752 55.6699 90.0005 56.3223 89.5915 56.1726L89.5915 56.1726Z" fill="#E4E4E4"/>
<path d="M178.894 18.8339C183.493 16.4691 189.384 16.9322 193.611 19.8868C185.548 21.2782 177.574 23.14 169.729 25.4626C172.987 23.5528 175.535 20.5606 178.894 18.8339Z" fill="#F2F2F2"/>
<path d="M193.656 19.8784L194.542 20.5984C194.242 20.3464 193.931 20.1101 193.611 19.8866C193.626 19.884 193.641 19.881 193.656 19.8784Z" fill="#F2F2F2"/>
<path d="M64.8015 56.2056C65.6925 55.1206 66.6558 53.9846 67.9885 53.5439L69.2328 53.593C59.761 70.3356 46.9688 84.9651 31.6411 96.5837C42.6946 83.1243 53.748 69.665 64.8015 56.2056Z" fill="#F2F2F2"/>
<path d="M170.544 59.6382C169.757 62.0494 168.045 64.0492 165.785 65.198C163.524 66.3468 160.9 66.5506 158.489 65.7644C158.216 65.6754 157.949 65.5744 157.688 65.4615C155.494 64.5209 153.731 62.7932 152.746 60.6181C151.761 58.4431 151.625 55.9781 152.365 53.708C152.6 52.9851 152.921 52.2932 153.321 51.6471C154.55 49.6561 156.466 48.1849 158.706 47.5121C160.947 46.8392 163.356 47.0114 165.478 47.9959C167.6 48.9805 169.288 50.7091 170.221 52.8546C171.155 55.0001 171.27 57.4136 170.544 59.6382Z" fill="#A0616A"/>
<path d="M152.426 54.1869C153.751 54.84 155.252 53.8934 156.412 52.952L155.997 53.3032C158.009 55.302 158.929 58.1576 159.365 60.9637C159.801 63.7669 159.823 66.6293 160.38 69.4138C160.937 72.1954 162.123 74.9967 164.375 76.72C167.391 79.0283 171.585 78.9252 175.322 78.2656C175.372 78.256 175.419 78.2489 175.468 78.2393C174.495 75.3299 174.118 72.2537 174.362 69.1952C175.33 72.2726 177.004 75.0812 179.249 77.3972C181.729 76.7419 184.153 75.8867 186.495 74.8402C188.011 74.1612 189.645 73.2282 190.08 71.6244C190.516 70.0328 189.558 68.3489 188.266 67.3277C186.973 66.3066 185.379 65.7644 183.901 65.0312C182.426 64.3014 180.97 63.2676 180.392 61.7235C179.06 58.1714 183.001 54.1517 181.517 50.6582C180.785 48.9403 178.959 47.9912 177.241 47.2562C174.619 46.1372 171.923 45.1967 169.174 44.4414C166.76 43.7779 164.238 43.2556 161.769 43.6488C159.299 44.0421 156.868 45.5173 155.957 47.8504C154.471 48.3357 152.893 48.8837 151.93 50.1206C150.968 51.3545 151.022 53.4964 152.426 54.1869Z" fill="#2F2E41"/>
<path d="M98.5894 127.244C106.605 126.162 114.586 129.071 122.657 129.596C130.689 130.119 138.813 128.097 145.792 124.097C150.726 121.268 156.785 121.689 161.495 124.876C161.614 124.957 161.734 125.034 161.855 125.108C165.745 127.49 170.549 127.651 175.109 127.744L220.108 128.66C220.108 128.66 230.901 131.22 232.457 136.612C234.013 142.005 230.566 147.842 225.802 150.808C221.038 153.773 215.259 154.507 209.676 155.067C173.774 158.662 137.57 157.921 101.846 152.86C95.2233 151.921 87.4557 149.917 85.1984 143.619C82.4688 136.003 90.5738 128.325 98.5894 127.244Z" fill="#CCCCCC"/>
<path d="M199.656 137.926L171.396 134.535C168.76 134.219 166.357 132.868 164.717 130.78C163.076 128.691 162.332 126.037 162.648 123.399C162.965 120.762 164.315 118.359 166.403 116.718C168.49 115.077 171.144 114.333 173.78 114.649L202.04 118.039C204.675 118.357 207.077 119.708 208.716 121.796C210.356 123.884 211.099 126.538 210.783 129.174C210.467 131.811 209.117 134.214 207.031 135.855C204.944 137.496 202.292 138.241 199.656 137.926Z" fill="#2F2E41"/>
<path d="M194.115 66.8316L198.257 70.8507L203.552 73.2001C203.552 73.2001 201.991 105.451 203.793 107.745C205.595 110.04 203.741 109.873 203.834 112.583C203.926 115.294 204.272 120.869 204.272 120.869C189.572 126.53 177.632 125.296 169.087 115.583C169.029 115.039 169.157 114.49 169.453 114.029C169.748 113.568 170.192 113.222 170.711 113.047C172.606 112.315 169.711 107.491 171.256 106.928C172.8 106.365 171.52 99.7176 171.52 99.7176L174.464 86.5227L173.659 84.2604L177.815 71.5074L182.506 70.4048L184.82 66.2935L194.115 66.8316Z" fill="#3A7540"/>
<path d="M138.735 97.1812C139.185 96.8121 139.71 96.5462 140.274 96.4022C140.837 96.2582 141.426 96.2397 141.998 96.3478C142.569 96.4559 143.11 96.6881 143.583 97.028C144.055 97.3679 144.447 97.8073 144.731 98.3151L158.655 95.834L155.747 102.586L142.971 103.907C142.086 104.328 141.078 104.41 140.137 104.137C139.197 103.864 138.389 103.255 137.866 102.426C137.344 101.597 137.144 100.605 137.304 99.6388C137.464 98.672 137.973 97.7976 138.735 97.1812V97.1812Z" fill="#FFB6B6"/>
<path d="M147.788 103.983L173.306 101.976L173.357 101.88C173.415 101.769 176.907 95.1528 180.004 88.96C180.481 88.0063 180.949 87.0627 181.393 86.1544C181.585 85.7624 181.772 85.3777 181.954 85.0002C183.183 82.4536 184.163 80.3007 184.546 79.1698C185.431 76.6387 185.424 73.8808 184.526 71.3541L184.501 71.293L184.443 71.2598C183.267 70.5861 181.896 70.3334 180.558 70.5434C179.219 70.7535 177.991 71.4137 177.078 72.4152C172.693 77.2741 169.497 83.086 167.742 89.3921L166.748 92.9804L148.491 97.0711L147.788 103.983Z" fill="#3A7540"/>
<path d="M100.72 171.005L96.6785 169.071L102.23 152.173L108.195 155.027L100.72 171.005Z" fill="#A0616A"/>
<path d="M127.814 168.281C127.52 168.465 127.226 168.646 126.93 168.827C126.339 169.189 125.742 169.546 125.146 169.896C124.846 170.071 124.543 170.247 124.243 170.419V170.428L124.225 170.431L124.219 170.434L123.762 170.546L123.106 168.812L122.803 168.013L122.376 166.882L121.592 164.812L117.466 153.914L123.881 152.331L124.121 153.314H124.124L124.243 153.801L126.484 162.894L126.941 164.753L126.956 164.809L127.232 165.92L127.47 166.882L127.734 167.957L127.814 168.281Z" fill="#A0616A"/>
<path d="M166.083 130.008C165.676 130.661 165.261 131.312 164.842 131.956C164.064 133.156 163.266 134.338 162.446 135.502C162.446 135.505 162.443 135.505 162.44 135.508C161.962 135.951 161.434 136.336 160.867 136.657C160.843 136.675 160.817 136.687 160.793 136.702C160.375 136.933 159.93 137.111 159.469 137.233C159.303 137.275 159.133 137.316 158.967 137.358C158.368 137.5 157.774 137.622 157.183 137.729C156.132 137.916 155.093 138.05 154.06 138.133C153.977 138.142 153.894 138.148 153.811 138.154C149.563 138.466 145.428 137.964 141.111 137.141C138.98 136.737 136.804 136.253 134.551 135.751C133.814 135.585 133.075 135.422 132.327 135.258C132.271 135.246 132.211 135.232 132.152 135.22C131.083 134.985 129.997 134.754 128.884 134.525C127.483 134.237 126.037 133.958 124.535 133.693L124.642 135.811C124.731 137.439 125.069 139.045 125.645 140.571C126.286 142.448 126.794 143.933 125.722 147.024L125.206 148.52C125.473 149.264 125.565 150.059 125.474 150.844C125.383 151.628 125.111 152.381 124.68 153.043L124.576 153.201L128.884 164.102L129.163 164.809H126.957L124.244 164.812H119.646L113.011 151.496L112.693 150.861V150.828L113.379 125.239C113.388 125.013 113.406 124.785 113.435 124.559C113.556 123.533 113.88 122.541 114.388 121.642C114.896 120.743 115.579 119.954 116.395 119.321C117.177 118.709 118.073 118.259 119.031 117.997C119.988 117.735 120.988 117.666 121.973 117.794L124.244 118.088L128.884 118.688L132.152 119.113L132.217 119.122L141.856 120.369L142.548 117.548L142.676 117.5L146.734 116.013L160.769 110.866L160.805 110.854L161.728 110.516L161.838 110.694C161.87 110.748 161.903 110.801 161.933 110.854C162.845 112.491 163.588 114.216 164.15 116.004C165.095 118.924 165.873 121.895 166.481 124.903C166.507 125.034 166.531 125.153 166.552 125.26L166.561 125.292C166.57 125.343 166.576 125.376 166.579 125.385C166.902 126.733 166.677 128.378 166.083 130.008Z" fill="#2F2E41"/>
<path d="M166.675 120.578C166.631 120.388 166.574 120.195 166.515 120.008C166.044 118.591 165.494 117.201 164.87 115.845C164.17 114.3 163.33 112.646 162.329 110.856C161.845 109.989 161.325 109.087 160.768 108.15C160.489 107.681 160.199 107.203 159.898 106.716C159.886 106.694 159.873 106.672 159.859 106.651L159.773 106.508L145.886 108.367L140.715 109.059L140.406 111.637L140.332 112.275C140.329 112.275 140.329 112.275 140.332 112.278L140.124 114.018V114.021L139.848 116.32L139.824 116.317L132.151 115.322L124.242 114.297L119.994 113.748C119.01 113.62 118.01 113.689 117.052 113.951C116.094 114.213 115.198 114.663 114.416 115.274C113.6 115.907 112.918 116.697 112.41 117.596C111.902 118.495 111.578 119.487 111.457 120.513C111.43 120.721 111.412 120.934 111.403 121.145L107.396 130.645C104.998 136.326 103.47 142.337 102.866 148.474L99.9268 157.873L100.345 157.912L106.573 158.491L108.218 158.645L111.84 153.356C112.252 152.753 112.644 152.133 113.009 151.497C113.61 150.459 114.145 149.384 114.609 148.278L122.443 129.629C123.049 129.733 123.649 129.832 124.242 129.926C126.988 130.372 129.624 130.735 132.151 131.016C140.365 131.934 147.477 132.005 153.809 131.227C155.587 131.01 157.306 130.725 158.966 130.372C159.574 130.244 160.175 130.107 160.768 129.959C160.907 129.926 161.044 129.894 161.18 129.858C162.407 129.542 163.535 128.922 164.461 128.057C165.386 127.192 166.08 126.108 166.479 124.905C166.955 123.511 167.023 122.01 166.675 120.578Z" fill="#2F2E41"/>
<path d="M102.011 168.246L97.6381 166.149L96.9524 165.82L95.857 168.51L88.2099 170.194C87.8318 170.277 87.4901 170.478 87.2348 170.769C86.9794 171.06 86.8238 171.425 86.7906 171.811C86.7574 172.197 86.8485 172.583 87.0504 172.914C87.2524 173.244 87.5546 173.501 87.9131 173.647L95.385 176.697L97.7568 174.562L97.175 177.428L99.9892 178.577L103.074 168.756L102.011 168.246Z" fill="#2F2E41"/>
<path d="M128.884 164.102L129.163 164.809H128.884V164.102Z" fill="#2F2E41"/>
<path d="M127.361 164.96L122.779 166.548L122.06 166.796L123.174 169.479L118.924 176.058C118.714 176.383 118.613 176.767 118.636 177.153C118.66 177.54 118.806 177.909 119.054 178.206C119.301 178.504 119.638 178.714 120.014 178.807C120.389 178.899 120.785 178.869 121.143 178.721L128.597 175.629L128.781 172.442L130.383 174.888L133.191 173.724L128.475 164.575L127.361 164.96Z" fill="#2F2E41"/>
<path d="M109.26 47.0837C109.305 47.5575 109.453 48.0156 109.694 48.4259C109.935 48.8362 110.263 49.1885 110.655 49.4582C111.047 49.7279 111.494 49.9084 111.963 49.9869C112.432 50.0653 112.913 50.04 113.371 49.9125L119.95 59.4263L122.194 53.8496L115.602 45.6701C115.337 44.914 114.804 44.2815 114.104 43.8924C113.404 43.5032 112.585 43.3846 111.803 43.5588C111.022 43.7331 110.331 44.1881 109.862 44.8378C109.393 45.4875 109.179 46.2866 109.26 47.0837Z" fill="#A0616A"/>
<path d="M114.916 52.3324L120.986 49.2471L133.96 66.127L157.319 73.0558C158.473 73.3983 159.538 73.9909 160.438 74.7915C161.338 75.5921 162.051 76.581 162.526 77.6881C163.001 78.7952 163.226 79.9934 163.186 81.1974C163.146 82.4015 162.842 83.5819 162.294 84.655C161.303 86.5921 159.585 88.0568 157.515 88.7279C155.446 89.3989 153.195 89.2214 151.257 88.2344L126.814 75.7558L114.916 52.3324Z" fill="#3F3D56"/>
<path d="M165.499 76.9203C163.121 75.6986 161.279 73.5885 160.453 69.7933L156.593 69.4963L143.805 82.03C137.144 90.1751 141.984 95.7923 142.274 96.6276L139.962 107.291L140.48 110.859L140.739 111.919L167.128 125.713L164.905 107.21L167 91.1535C169.381 83.7341 170.348 83.0198 165.499 76.9203Z" fill="#3F3D56"/>
<path d="M144.56 138.819C144.969 138.577 145.321 138.248 145.59 137.856C145.858 137.463 146.038 137.016 146.115 136.547C146.193 136.077 146.166 135.596 146.038 135.138C145.91 134.68 145.682 134.255 145.372 133.894L151.185 123.894L145.185 124.232L140.585 133.677C140.013 134.238 139.668 134.99 139.613 135.789C139.559 136.589 139.799 137.38 140.289 138.014C140.779 138.648 141.484 139.08 142.271 139.229C143.058 139.377 143.873 139.231 144.56 138.819V138.819Z" fill="#A0616A"/>
<path d="M146.905 131.467L141.534 127.282L151.294 108.36L147.637 84.2638C147.456 83.0728 147.54 81.8565 147.882 80.7014C148.224 79.5463 148.816 78.4806 149.616 77.5801C150.416 76.6796 151.404 75.9663 152.511 75.4909C153.617 75.0154 154.815 74.7895 156.019 74.8292C158.193 74.9032 160.248 75.8369 161.735 77.4253C163.222 79.0138 164.018 81.1274 163.948 83.3022L163.045 110.739L146.905 131.467Z" fill="#3F3D56"/>
<path d="M169.229 171.05L172.748 174.262L186.807 162.213L181.614 157.472L169.229 171.05Z" fill="#FFB6B6"/>
<path d="M169.38 169.082L170.37 169.986L175.672 171.942L176.31 175.407L176.31 175.407C177.481 176.477 178.18 177.967 178.252 179.552C178.325 181.136 177.765 182.685 176.696 183.856L176.566 184L165.219 173.643L169.38 169.082Z" fill="#2F2E41"/>
<path d="M195.887 133.564L192.849 127.698C193.103 121.757 198.254 117.116 204.169 117.708C207.462 118.038 210.485 120 211.559 125.537C214.321 139.776 181.006 167.959 181.006 167.959L175.22 164.079L175.09 160.201L178.482 158.279L178.607 154.981L181.825 153.598L195.887 133.564Z" fill="#2F2E41"/>
<path d="M195.973 56.4715C196.453 51.4775 192.795 47.0399 187.803 46.5598C182.81 46.0797 178.374 49.739 177.894 54.733C177.414 59.727 181.072 64.1646 186.065 64.6447C191.057 65.1247 195.493 61.4655 195.973 56.4715Z" fill="#FFB6B6"/>
<path d="M180.318 47.1261C181.269 45.0341 185.114 43.8895 191.133 44.2577C197.152 44.626 197.994 51.8445 197.994 51.8445C201.687 55.4795 192.569 63.3839 192.199 63.032L192.536 61.4146C193.094 58.7356 194.565 56.7448 193.224 53.7679L191.675 53.6368L188.684 53.9193C188.498 53.9369 188.311 53.8927 188.152 53.7935C187.994 53.6943 187.872 53.5456 187.806 53.3703C187.74 53.195 187.733 53.0029 187.787 52.8236C187.841 52.6443 187.953 52.4876 188.104 52.3779L188.133 52.3568L188.077 52.2471C186.997 52.6223 185.889 52.9599 184.752 52.9177C183.472 52.8702 182.13 52.23 181.629 51.0519C181.496 50.7285 181.429 50.3817 181.432 50.032C179.651 50.5527 178.663 52.5926 178.663 52.5926C178.663 52.5926 179.366 49.218 180.318 47.1261Z" fill="#2F2E41"/>
<path d="M194.245 170.159L190.269 172.784L178.257 158.691L184.126 154.818L194.245 170.159Z" fill="#FFB6B6"/>
<path d="M197.802 173.346L184.982 181.808L184.875 181.646C184.001 180.322 183.69 178.705 184.008 177.151C184.326 175.597 185.249 174.234 186.572 173.36L186.572 173.36L187.742 170.037L193.284 168.93L194.403 168.191L197.802 173.346Z" fill="#2F2E41"/>
<path d="M176.072 132.995L179.832 126.881C180.506 120.973 176.141 115.586 170.206 115.249C166.901 115.062 163.61 116.529 161.687 121.831C156.742 135.466 185.261 168.496 185.261 168.496L191.581 165.565L192.313 161.755L189.261 159.328L189.651 156.051L186.688 154.183L176.072 132.995Z" fill="#2F2E41"/>
<path d="M190.156 124.011C190.205 123.431 190.381 122.869 190.67 122.364C190.96 121.859 191.356 121.424 191.832 121.089C192.308 120.754 192.851 120.528 193.424 120.425C193.997 120.323 194.585 120.348 195.147 120.498L203.069 108.778L205.885 115.569L197.931 125.657C197.617 126.585 196.973 127.366 196.122 127.851C195.271 128.336 194.271 128.491 193.313 128.288C192.355 128.086 191.504 127.538 190.922 126.75C190.34 125.961 190.068 124.987 190.157 124.011H190.156Z" fill="#FFB6B6"/>
<path d="M201.341 122.253L217.681 102.544L217.648 102.44C217.609 102.321 215.297 95.2056 213.014 88.6685C212.663 87.6618 212.312 86.6688 211.97 85.7172C211.822 85.3065 211.677 84.9043 211.533 84.5105C210.564 81.8539 209.702 79.651 209.158 78.5883C207.96 76.1896 205.977 74.2731 203.54 73.1569L203.478 73.1328L203.414 73.1509C202.112 73.5255 200.976 74.3329 200.193 75.4401C199.411 76.5473 199.029 77.888 199.111 79.2414C199.54 85.7732 201.481 92.1158 204.781 97.7687L206.661 100.982L196.875 116.933L201.341 122.253Z" fill="#3A7540"/>
<path d="M46.9045 172.781C69.6115 172.781 88.0192 167.023 88.0192 159.92C88.0192 152.817 69.6115 147.059 46.9045 147.059C24.1975 147.059 5.78979 152.817 5.78979 159.92C5.78979 167.023 24.1975 172.781 46.9045 172.781Z" fill="#F2F2F2"/>
<path d="M46.9047 170.279C65.1949 170.279 80.022 165.641 80.022 159.92C80.022 154.199 65.1949 149.561 46.9047 149.561C28.6145 149.561 13.7874 154.199 13.7874 159.92C13.7874 165.641 28.6145 170.279 46.9047 170.279Z" fill="#E6E6E6"/>
<path d="M64.2179 152.579C62.2937 152.319 60.3778 153.018 58.4403 153.144C56.8183 153.234 55.1988 152.928 53.7213 152.252C52.2437 151.577 50.9525 150.552 49.9587 149.267C50.5452 150.192 49.9645 151.495 49.0307 152.066C48.097 152.638 46.9438 152.677 45.8492 152.699L35.047 152.919L35.251 153.851C34.3557 152.845 32.456 153.533 32.0825 154.828C31.709 156.123 32.5364 157.524 33.6801 158.236C34.8237 158.947 36.211 159.124 37.5513 159.258C46.1696 160.121 54.8605 159.943 63.4363 158.728C65.026 158.503 66.8906 158.022 67.4325 156.51C68.0878 154.682 66.1421 152.839 64.2179 152.579Z" fill="#3F3D56"/>
<path d="M71.3436 152.884C70.9214 150.989 69.6038 149.432 68.8153 147.657C68.1699 146.166 67.8966 144.54 68.019 142.919C68.1413 141.299 68.6556 139.733 69.5175 138.355C68.853 139.226 67.43 139.131 66.5707 138.453C65.7113 137.774 65.2762 136.705 64.8766 135.685L60.9335 125.623L60.1296 126.137C60.7641 124.948 59.461 123.403 58.1176 123.501C56.7741 123.598 55.7461 124.859 55.474 126.179C55.202 127.499 55.5166 128.862 55.8542 130.166C58.0261 138.554 61.1994 146.649 65.3054 154.278C66.0668 155.692 67.163 157.276 68.7685 157.261C70.71 157.244 71.7657 154.78 71.3436 152.884Z" fill="#3F3D56"/>
<path d="M70.4191 123.615C69.3914 122.188 67.9272 121.02 66.1974 120.595C65.3727 120.39 64.512 120.378 63.6818 120.559C62.8515 120.74 62.0741 121.11 61.4095 121.64C61.0357 121.937 60.6944 122.272 60.3914 122.641C59.728 123.448 59.0233 124.221 58.2803 124.955C57.6155 120.64 56.2403 116.466 54.2106 112.601C53.1614 110.61 51.9238 108.723 50.5149 106.968C49.3521 105.522 48.0911 103.992 46.2544 103.422C45.5589 103.212 44.826 103.156 44.1068 103.258C43.3875 103.361 42.6992 103.618 42.0897 104.014C40.7789 104.899 39.8264 106.223 39.4028 107.747C39.1503 108.617 39.0394 109.522 39.0744 110.427C39.1138 111.559 39.417 112.651 39.606 113.763C40.0189 116.215 40.1299 118.709 39.9366 121.188C39.5881 125.73 38.2191 130.279 35.6812 134.086C35.5262 134.318 35.3665 134.548 35.2023 134.774C34.2237 132.089 32.7255 129.624 30.7935 127.52C30.4535 127.15 30.1 126.794 29.7332 126.45C29.432 126.126 29.071 125.862 28.6698 125.674C27.1503 125.086 26.0582 126.809 26.2105 128.147C26.3208 129.117 26.9556 129.702 27.5533 130.413C28.2249 131.214 28.8317 132.067 29.3681 132.965C30.4753 134.784 31.2519 136.784 31.6621 138.874C32.0932 141.154 31.8926 143.433 31.4021 145.686C30.4993 149.833 28.9137 154.263 30.493 158.464C31.1299 160.158 32.2946 161.623 33.9858 162.347C34.6938 162.669 35.467 162.821 36.2441 162.793C37.0212 162.764 37.7809 162.554 38.4632 162.181C38.6373 162.079 38.8043 161.966 38.9629 161.841C39.0068 161.924 39.0558 162.004 39.1095 162.081C39.2938 162.338 39.5866 162.308 39.8727 162.319C40.1788 162.331 40.4851 162.337 40.7914 162.339C41.9756 162.343 43.1586 162.268 44.3328 162.115C46.6891 161.811 48.9975 161.21 51.2033 160.327C55.7943 158.456 59.8867 155.542 63.1561 151.814C66.727 147.758 69.3552 142.961 70.8517 137.768C71.6642 135.064 72.1129 132.264 72.1857 129.441C72.229 127.36 71.6104 125.32 70.4191 123.615Z" fill="#FF6B6B"/>
<path d="M28.1828 158.301C30.107 158.042 32.0229 158.74 33.9604 158.866C35.5824 158.956 37.202 158.65 38.6795 157.974C40.157 157.299 41.4483 156.274 42.4421 154.989C41.8556 155.914 42.4363 157.217 43.37 157.789C44.3038 158.36 45.457 158.399 46.5516 158.421L57.3537 158.641L57.1498 159.574C58.045 158.567 59.9448 159.256 60.3183 160.55C60.6918 161.845 59.8643 163.246 58.7207 163.958C57.5771 164.67 56.1897 164.846 54.8495 164.98C46.2311 165.843 37.5403 165.665 28.9645 164.45C27.3748 164.225 25.5101 163.744 24.9683 162.232C24.313 160.404 26.2586 158.561 28.1828 158.301Z" fill="#3F3D56"/>
<path d="M61.1076 160.01C60.4382 158.187 58.9262 156.818 57.9097 155.164C56.927 153.537 56.4305 151.664 56.4789 149.764C56.5032 149.079 56.3364 148.4 55.9973 147.804C55.6582 147.208 55.16 146.718 54.5585 146.389C54.5275 146.373 54.4969 146.355 54.4667 146.338C53.5252 145.779 52.9523 144.777 52.4213 143.819L47.1812 134.367C47.1812 134.367 45.428 132.362 44.1092 132.637C42.7905 132.911 41.9384 134.297 41.8434 135.641C41.7484 136.985 42.2406 138.295 42.7479 139.543C46.1777 147.98 50.661 155.949 56.0909 163.26C56.5841 163.94 57.3008 164.425 58.1155 164.63C60.7892 165.264 61.8844 162.126 61.1076 160.01Z" fill="#3F3D56"/>
<path d="M24.033 159.57C24.7024 157.747 26.2144 156.378 27.2309 154.723C28.2136 153.097 28.7101 151.223 28.6616 149.324C28.6374 148.638 28.8042 147.96 29.1433 147.364C29.4824 146.768 29.9806 146.278 30.5821 145.949C30.6131 145.932 30.6437 145.915 30.6739 145.897C31.6154 145.338 32.1883 144.336 32.7193 143.379L37.9593 133.927L38.6882 134.543C38.2165 133.281 39.7126 131.922 41.0314 132.196C42.3501 132.471 43.2022 133.857 43.2972 135.201C43.3922 136.545 42.8999 137.855 42.3927 139.103C38.9629 147.54 34.4796 155.509 29.0497 162.819C28.5565 163.5 27.8398 163.985 27.0251 164.19C24.3514 164.824 23.2562 161.686 24.033 159.57Z" fill="#3F3D56"/>
<path d="M32.2512 121.722L32.3004 121.647C32.6899 121.633 33.0695 121.52 33.4032 121.318C33.7369 121.117 34.0137 120.834 34.2075 120.495C34.4013 120.157 34.5057 119.775 34.5109 119.385C34.516 118.995 34.4217 118.61 34.2368 118.267L32.2512 121.722Z" fill="#FD6584"/>
<path d="M57.7684 107.603C57.5568 107.572 57.3409 107.604 57.1472 107.694C56.7169 107.929 56.6825 108.575 56.9422 108.991C57.2423 109.381 57.633 109.692 58.0804 109.897C58.5291 110.104 58.899 110.45 59.1348 110.884C59.3248 111.336 59.1229 111.979 58.6404 112.067L58.2849 113.348C58.9493 113.168 59.529 112.76 59.9224 112.195C60.3158 111.63 60.4976 110.944 60.4359 110.259C60.3743 109.573 60.0731 108.931 59.5853 108.445C59.0974 107.959 58.4542 107.661 57.7684 107.603H57.7684Z" fill="#FD6584"/>
<path d="M67.7263 111.279C68.285 113.046 68.2303 114.951 67.571 116.683C67.941 116.341 68.239 115.929 68.4475 115.471C68.656 115.012 68.7709 114.517 68.7853 114.014C68.7998 113.51 68.7136 113.009 68.5317 112.539C68.3499 112.07 68.0761 111.641 67.7263 111.279Z" fill="#FD6584"/>
<path d="M67.489 116.908C67.5197 116.834 67.5426 116.757 67.5711 116.683C67.3868 116.858 67.1849 117.014 66.9685 117.148L67.489 116.908Z" fill="#FD6584"/>
<path d="M106.39 51.1217L110.3 36.8921C110.434 36.4054 110.756 35.9918 111.195 35.7422C111.633 35.4926 112.153 35.4273 112.64 35.5606L115.74 36.413C116.227 36.5474 116.64 36.8693 116.89 37.3082C117.139 37.7471 117.204 38.2671 117.071 38.754L113.161 52.9837C113.027 53.4704 112.705 53.8839 112.266 54.1335C111.828 54.3832 111.308 54.4485 110.821 54.3152L107.721 53.4627C107.234 53.3284 106.821 53.0065 106.571 52.5676C106.322 52.1287 106.256 51.6087 106.39 51.1217Z" fill="#3F3D56"/>
<path d="M112.803 36.386C112.541 36.3142 112.261 36.3494 112.024 36.484C111.788 36.6185 111.615 36.8413 111.542 37.1036L107.632 51.3332C107.56 51.5957 107.596 51.8759 107.73 52.1124C107.864 52.3489 108.087 52.5224 108.349 52.5948L111.45 53.4473C111.712 53.5191 111.992 53.4839 112.229 53.3493C112.465 53.2148 112.638 52.992 112.711 52.7297L116.621 38.5001C116.693 38.2376 116.657 37.9574 116.523 37.7209C116.389 37.4844 116.166 37.3109 115.904 37.2385L112.803 36.386Z" fill="#3A7540"/>
<path d="M15.3901 114.046C15.2583 114.052 15.1278 114.017 15.0163 113.947C14.9048 113.876 14.8177 113.773 14.7668 113.651C14.7158 113.529 14.7036 113.395 14.7317 113.266C14.7597 113.137 14.8267 113.019 14.9237 112.93L14.9678 112.754L14.9502 112.712C14.3577 111.299 10.5766 115.239 10.4131 116.567C10.3412 117.154 10.3715 117.75 10.5029 118.326C9.27816 115.654 8.64217 112.749 8.63808 109.809C8.63782 109.071 8.6788 108.334 8.76081 107.601C8.8286 107 8.92264 106.403 9.04293 105.811C9.69937 102.596 11.1088 99.5826 13.1554 97.0185C14.3259 97.0838 15.3517 96.9055 15.4507 94.6363C15.4683 94.2326 15.7676 93.8831 15.8336 93.4855C15.7218 93.5002 15.6083 93.5093 15.4965 93.5166C15.4617 93.5185 15.4251 93.5203 15.3903 93.5221L15.3771 93.5227C15.2543 93.5283 15.1326 93.4981 15.0265 93.436C14.9204 93.3739 14.8345 93.2824 14.7791 93.1726C14.7238 93.0628 14.7014 92.9393 14.7146 92.8171C14.7277 92.6948 14.776 92.579 14.8534 92.4835C14.9017 92.4241 14.95 92.3647 14.9983 92.3054C15.0715 92.2138 15.1466 92.124 15.2199 92.0324C15.2284 92.0236 15.2363 92.0145 15.2437 92.0049C15.328 91.9004 15.4123 91.7978 15.4965 91.6933C15.3427 91.4545 15.1358 91.2545 14.892 91.1088C14.0475 90.614 12.8825 90.9567 12.2725 91.7208C11.6606 92.4849 11.5452 93.557 11.7577 94.5117C11.9667 95.324 12.3123 96.0949 12.7799 96.7912C12.7341 96.8499 12.6865 96.9067 12.6407 96.9653C11.8035 98.0422 11.0739 99.1985 10.4622 100.418C10.6353 99.0655 8.51903 94.1821 7.70064 93.1477C7.48418 92.8698 7.19024 92.6624 6.85595 92.5516C6.52167 92.4408 6.16205 92.4317 5.82257 92.5253C5.48308 92.6189 5.17897 92.8111 4.94866 93.0776C4.71835 93.3441 4.57219 93.6729 4.52865 94.0225C4.52697 94.0377 4.52534 94.053 4.52374 94.0682C4.6453 94.1368 4.76429 94.2096 4.88072 94.2866C5.02697 94.3844 5.1403 94.5241 5.20585 94.6874C5.2714 94.8506 5.28612 95.0299 5.24807 95.2017C5.21003 95.3735 5.12099 95.5298 4.99263 95.6501C4.86427 95.7704 4.70257 95.8491 4.52873 95.8759L4.51091 95.8787C2.88377 98.2027 8.09997 104.252 9.40562 102.893C8.79107 104.636 8.40559 106.45 8.25887 108.292C8.17581 109.378 8.18071 110.47 8.27353 111.555L8.26803 111.517C7.97793 109.152 3.00107 105.637 1.54774 105.929C0.710521 106.098 -0.114101 106.06 0.013031 106.905L0.0192186 106.945C0.244795 107.037 0.46443 107.143 0.676847 107.262C0.798408 107.331 0.917396 107.403 1.03382 107.48C1.18007 107.578 1.2934 107.718 1.35895 107.881C1.4245 108.044 1.43921 108.224 1.40117 108.395C1.36312 108.567 1.27408 108.724 1.14572 108.844C1.01737 108.964 0.855674 109.043 0.681829 109.07L0.664019 109.072C0.6512 109.074 0.640203 109.076 0.627396 109.078C-0.113262 111.627 5.37944 115.742 8.71867 114.432H8.72051C9.05143 115.871 9.5309 117.271 10.1512 118.61H15.262C15.2804 118.554 15.2969 118.495 15.3133 118.438C14.8403 118.468 14.3653 118.44 13.8991 118.354C14.2783 117.888 14.6575 117.419 15.0367 116.954C15.0452 116.945 15.0531 116.936 15.0605 116.926C15.2529 116.688 15.4471 116.452 15.6394 116.214L15.6395 116.213C15.6498 115.483 15.566 114.755 15.3903 114.046L15.3901 114.046ZM9.5375 102.529L9.5402 102.525L9.5375 102.532V102.529ZM8.40543 112.737L8.36147 112.638C8.36331 112.567 8.36331 112.496 8.36147 112.422C8.36147 112.402 8.35781 112.382 8.35781 112.362C8.37429 112.488 8.38894 112.615 8.40726 112.741L8.40543 112.737Z" fill="#F2F2F2"/>
<path d="M234.61 123.251C234.434 123.96 234.35 124.689 234.361 125.419L234.361 125.419C234.553 125.657 234.747 125.894 234.94 126.132C234.947 126.142 234.955 126.151 234.963 126.16C235.343 126.625 235.722 127.094 236.101 127.56C235.635 127.645 235.16 127.674 234.687 127.644C234.703 127.701 234.72 127.759 234.738 127.816H239.849C240.469 126.477 240.949 125.077 241.28 123.638H241.281C244.621 124.947 250.113 120.833 249.373 118.284C249.36 118.282 249.349 118.28 249.336 118.278L249.318 118.275C249.144 118.248 248.983 118.17 248.854 118.049C248.726 117.929 248.637 117.773 248.599 117.601C248.561 117.429 248.576 117.25 248.641 117.087C248.707 116.923 248.82 116.784 248.966 116.686C249.083 116.609 249.202 116.536 249.323 116.468C249.536 116.348 249.755 116.242 249.981 116.151L249.987 116.11C250.114 115.265 249.29 115.304 248.452 115.135C246.999 114.842 242.022 118.358 241.732 120.723L241.727 120.761C241.819 119.675 241.824 118.584 241.741 117.497C241.594 115.656 241.209 113.841 240.594 112.099C241.9 113.457 247.116 107.408 245.489 105.084L245.471 105.082C245.298 105.055 245.136 104.976 245.007 104.856C244.879 104.735 244.79 104.579 244.752 104.407C244.714 104.235 244.729 104.056 244.794 103.893C244.86 103.73 244.973 103.59 245.119 103.492C245.236 103.415 245.355 103.342 245.476 103.274C245.475 103.259 245.473 103.243 245.471 103.228C245.428 102.878 245.282 102.55 245.051 102.283C244.821 102.017 244.517 101.824 244.178 101.731C243.838 101.637 243.478 101.646 243.144 101.757C242.81 101.868 242.516 102.075 242.299 102.353C241.481 103.388 239.365 108.271 239.538 109.623C238.926 108.404 238.197 107.248 237.359 106.171C237.314 106.112 237.266 106.055 237.22 105.997C237.688 105.3 238.033 104.53 238.242 103.717C238.455 102.763 238.339 101.691 237.728 100.926C237.118 100.162 235.953 99.8196 235.108 100.314C234.864 100.46 234.657 100.66 234.504 100.899C234.588 101.003 234.672 101.106 234.756 101.21C234.764 101.22 234.772 101.229 234.78 101.238C234.853 101.33 234.929 101.419 235.002 101.511C235.05 101.57 235.098 101.63 235.147 101.689C235.224 101.785 235.272 101.9 235.286 102.023C235.299 102.145 235.276 102.268 235.221 102.378C235.166 102.488 235.08 102.579 234.974 102.642C234.868 102.704 234.746 102.734 234.623 102.728L234.61 102.728C234.575 102.726 234.538 102.724 234.504 102.722C234.392 102.715 234.278 102.706 234.167 102.691C234.232 103.089 234.532 103.438 234.549 103.842C234.648 106.111 235.674 106.289 236.845 106.224C238.891 108.788 240.301 111.801 240.957 115.016C241.078 115.608 241.172 116.205 241.239 116.807C241.321 117.54 241.362 118.277 241.362 119.015C241.358 121.955 240.722 124.859 239.497 127.532C239.629 126.955 239.659 126.36 239.587 125.773C239.423 124.445 235.642 120.504 235.05 121.918L235.032 121.96L235.076 122.135C235.173 122.225 235.24 122.342 235.268 122.471C235.297 122.6 235.284 122.735 235.233 122.856C235.182 122.978 235.095 123.081 234.984 123.152C234.872 123.223 234.742 123.257 234.61 123.251L234.61 123.251ZM240.463 111.738L240.46 111.731L240.463 111.734V111.738ZM241.593 121.947C241.611 121.82 241.626 121.694 241.642 121.567C241.642 121.588 241.639 121.608 241.639 121.628C241.637 121.701 241.637 121.773 241.639 121.844L241.595 121.943L241.593 121.947Z" fill="#F2F2F2"/>
</g>
<defs>
<clipPath id="clip0_237_9593">
<rect width="250" height="184" fill="white"/>
</clipPath>
</defs>
</svg>
