<svg width="17" height="17" viewBox="0 0 17 17" fill="none" xmlns="http://www.w3.org/2000/svg">
<path d="M7.7114 2.38474C8.7343 2.38381 9.73449 2.68628 10.5854 3.25389C11.4364 3.8215 12.0999 4.62875 12.492 5.57351C12.8841 6.51827 12.9872 7.5581 12.7882 8.56146C12.5892 9.56481 12.0971 10.4866 11.3741 11.2102C10.6512 11.9339 9.72981 12.4268 8.72664 12.6267C7.72347 12.8266 6.68355 12.7245 5.73842 12.3333C4.7933 11.942 3.98545 11.2793 3.41706 10.4288C2.84867 9.57839 2.54529 8.57847 2.54529 7.55558C2.55149 6.18691 3.09762 4.876 4.06498 3.90776C5.03234 2.93952 6.34274 2.39219 7.7114 2.38474V2.38474ZM7.7114 1.41669C6.49724 1.41669 5.31035 1.77673 4.30082 2.45128C3.29128 3.12583 2.50445 4.08459 2.03981 5.20632C1.57517 6.32806 1.4536 7.56239 1.69047 8.75321C1.92734 9.94404 2.51201 11.0379 3.37055 11.8964C4.22909 12.755 5.32294 13.3396 6.51376 13.5765C7.70459 13.8134 8.93892 13.6918 10.0607 13.2272C11.1824 12.7625 12.1412 11.9757 12.8157 10.9662C13.4903 9.95662 13.8503 8.76973 13.8503 7.55558C13.8503 5.92744 13.2035 4.36599 12.0523 3.21473C10.901 2.06346 9.33954 1.41669 7.7114 1.41669Z" fill="#0F172E"/>
<path d="M16.528 15.7203L13.0478 12.2164L12.3772 12.8822L15.8575 16.3861C15.9012 16.4301 15.9532 16.4651 16.0104 16.4891C16.0676 16.513 16.129 16.5254 16.1911 16.5257C16.2531 16.5259 16.3146 16.5139 16.372 16.4903C16.4294 16.4668 16.4816 16.4322 16.5257 16.3885C16.5697 16.3447 16.6047 16.2928 16.6286 16.2355C16.6526 16.1783 16.665 16.1169 16.6652 16.0548C16.6655 15.9928 16.6535 15.9313 16.6299 15.8739C16.6064 15.8165 16.5718 15.7643 16.528 15.7203Z" fill="#0F172E"/>
</svg>
