<svg width="258" height="174" viewBox="0 0 258 174" fill="none" xmlns="http://www.w3.org/2000/svg">
<g clip-path="url(#clip0_237_9735)">
<path d="M226.79 98.5712L232.4 93.6903C231.889 90.4547 231.168 87.2466 230.242 84.0816L227.044 85.4889L229.917 82.9899C228.726 79.086 227.653 76.5664 227.653 76.5664C227.653 76.5664 216.347 86.5785 210.503 98.3193L214.124 106.596L209.169 101.275C208.604 102.665 208.14 104.083 207.78 105.523C204.205 120.051 206.763 132.843 213.494 134.095C220.226 135.348 228.581 124.586 232.157 110.059C233.265 105.555 233.253 100.625 232.709 95.9659L226.79 98.5712Z" fill="#E6E6E6"/>
<path d="M243.463 108.709L251.167 107.053C252.653 104.053 253.943 100.983 255.032 97.8568L251.458 97.6245L255.402 96.7762C256.704 92.8993 257.284 90.2603 257.284 90.2603C257.284 90.2603 241.652 93.7493 229.67 101.173L227.849 109.886L226.771 103.105C225.462 104.04 224.221 105.046 223.057 106.117C211.36 116.946 205.945 129.046 210.962 133.144C215.98 137.241 229.53 131.784 241.228 120.955C244.854 117.598 247.774 113.372 250.079 109.139L243.463 108.709Z" fill="#E6E6E6"/>
<path d="M169.931 48.5292L171.824 35.6128C166.765 31.2967 161.429 27.2323 155.844 23.4387L152.94 28.7487L153.909 22.1355C146.949 17.5043 142.002 14.8206 142.002 14.8206C142.002 14.8206 138.421 41.1136 145.288 64.5027L161.682 73.2207L147.223 70.2528C148.225 72.8933 149.416 75.4765 150.79 77.9869C164.743 103.258 185.547 119.782 197.256 114.895C208.965 110.007 207.147 85.5583 193.194 60.2871C188.868 52.4528 182.304 45.1073 175.306 38.699L169.931 48.5292Z" fill="#E6E6E6"/>
<path d="M208.276 46.9238L217.575 36.7174C215.81 30.7489 213.659 24.8717 211.133 19.1138L205.49 22.3544L210.251 17.1287C207.046 10.0359 204.407 5.51538 204.407 5.51538C204.407 5.51538 185.71 26.4137 177.684 49.5222L186.535 64.3533L175.923 55.3144C175.21 58.0248 174.694 60.7715 174.378 63.5383C171.299 91.4425 179.284 114.938 192.214 116.016C205.143 117.095 218.121 95.3485 221.2 67.4442C222.155 58.7936 220.902 49.5555 218.721 40.9245L208.276 46.9238Z" fill="#E6E6E6"/>
<path d="M36.8514 50.4278L35.9107 36.875C29.7649 33.3058 23.3925 30.0408 16.8238 27.0955L15.0329 33.0254L14.5513 26.0864C6.38737 22.5147 0.720947 20.5989 0.720947 20.5989C0.720947 20.5989 2.91392 48.1413 15.1647 70.9473L33.9049 77.1162L18.4295 76.5125C20.0441 79.0491 21.8406 81.4949 23.8084 83.8354C43.7385 107.375 68.7372 120.799 79.6444 113.817C90.5517 106.836 83.2372 82.0932 63.307 58.5532C57.1285 51.2556 48.7656 44.8361 40.1668 39.4501L36.8514 50.4278Z" fill="#E6E6E6"/>
<path d="M75.78 42.3192L83.0317 30.2946C79.8926 24.4771 76.3785 18.8181 72.5063 13.3446L67.4479 17.6159L71.1609 11.4594C66.2955 4.73262 62.5837 0.545898 62.5837 0.545898C62.5837 0.545898 48.0873 25.1091 45.0165 50.138L57.3917 63.8414L44.5029 56.3694C44.3771 59.2665 44.461 62.1676 44.7541 65.0556C47.821 94.1642 61.2409 116.89 74.7285 115.816C88.216 114.742 96.6636 90.2738 93.5967 61.1652C92.646 52.1412 89.3033 42.8872 85.1443 34.4119L75.78 42.3192Z" fill="#E6E6E6"/>
<path d="M116.35 163.993C121.631 163.993 125.913 162.93 125.913 161.618C125.913 160.306 121.631 159.242 116.35 159.242C111.068 159.242 106.787 160.306 106.787 161.618C106.787 162.93 111.068 163.993 116.35 163.993Z" fill="#E6E6E6"/>
<path d="M220.45 173.259C225.731 173.259 230.013 172.195 230.013 170.883C230.013 169.571 225.731 168.507 220.45 168.507C215.168 168.507 210.887 169.571 210.887 170.883C210.887 172.195 215.168 173.259 220.45 173.259Z" fill="#E6E6E6"/>
<path d="M240.396 153.778C245.677 153.778 249.959 152.714 249.959 151.402C249.959 150.09 245.677 149.027 240.396 149.027C235.114 149.027 230.833 150.09 230.833 151.402C230.833 152.714 235.114 153.778 240.396 153.778Z" fill="#E6E6E6"/>
<path d="M201.187 146.888C205.186 146.888 208.428 146.083 208.428 145.09C208.428 144.096 205.186 143.291 201.187 143.291C197.188 143.291 193.947 144.096 193.947 145.09C193.947 146.083 197.188 146.888 201.187 146.888Z" fill="#E6E6E6"/>
<path d="M44.3538 145.192C46.9945 145.192 49.1353 144.614 49.1353 143.902C49.1353 143.19 46.9945 142.612 44.3538 142.612C41.713 142.612 39.5723 143.19 39.5723 143.902C39.5723 144.614 41.713 145.192 44.3538 145.192Z" fill="#E6E6E6"/>
<path d="M25.501 159.683C28.1417 159.683 30.2825 159.106 30.2825 158.394C30.2825 157.681 28.1417 157.104 25.501 157.104C22.8602 157.104 20.7195 157.681 20.7195 158.394C20.7195 159.106 22.8602 159.683 25.501 159.683Z" fill="#E6E6E6"/>
<path d="M25.501 136.877C28.1417 136.877 30.2825 136.299 30.2825 135.587C30.2825 134.875 28.1417 134.297 25.501 134.297C22.8602 134.297 20.7195 134.875 20.7195 135.587C20.7195 136.299 22.8602 136.877 25.501 136.877Z" fill="#E6E6E6"/>
<path d="M230.251 139.75L183.923 138.325L159.49 140.352L117.749 143.813L102.041 145.115L65.6635 155.663C65.5175 155.705 65.3606 155.711 65.2112 155.679C65.0617 155.647 64.9257 155.578 64.8191 155.482C64.7124 155.385 64.6393 155.265 64.6084 155.133C64.5775 155.002 64.59 154.866 64.6443 154.741L64.6471 154.739L70.9559 140.23L70.292 139.805L52.931 128.713L52.8381 128.654L30.3268 125.67C30.0098 125.627 29.7105 125.516 29.457 125.345C29.2036 125.174 29.0043 124.95 28.878 124.694C28.7517 124.438 28.7025 124.158 28.7351 123.88C28.7678 123.603 28.8811 123.337 29.0645 123.109L63.3492 80.3321L81.366 57.858L83.3196 55.4182L158.266 54.5178L231.44 137.75C231.605 137.938 231.705 138.162 231.729 138.397C231.752 138.632 231.699 138.868 231.574 139.078C231.45 139.287 231.259 139.462 231.025 139.581C230.791 139.7 230.522 139.759 230.251 139.75Z" fill="#3A7540"/>
<path opacity="0.2" d="M100.876 58.8897L70.2914 139.805L52.9324 128.713L63.3501 80.3326L81.3143 57.8044L81.3654 57.8569L100.876 58.8897Z" fill="black"/>
<path d="M73.5754 89.8872C70.105 97.141 68.8764 103.2 64.7601 102.106C59.1245 100.608 65.0417 95.3097 68.512 88.0558C71.9824 80.802 74.4344 75.2377 77.3273 75.8372C82.7207 76.955 77.0458 82.6333 73.5754 89.8872Z" fill="#3F3D56"/>
<path d="M81.4381 75.3675C81.4372 74.8874 81.3275 74.4122 81.1154 73.969C80.9033 73.5257 80.5929 73.1232 80.2018 72.7843C79.8108 72.4453 79.3468 72.1767 78.8364 71.9937C78.3259 71.8107 77.779 71.7169 77.2269 71.7177C77.1321 71.7178 77.0383 71.7217 76.945 71.7272L72.9775 71.3016C72.5222 71.1605 72.0423 71.0889 71.559 71.0899C71.4255 71.09 71.2937 71.0963 71.1634 71.107L71.0106 71.0906L71.0065 71.1231C70.0753 71.2317 69.2129 71.6084 68.5568 72.193C67.9006 72.7776 67.4886 73.5365 67.3863 74.3485C67.2841 75.1605 67.4975 75.9788 67.9927 76.673C68.4878 77.3672 69.236 77.8972 70.1181 78.1785L70.1098 78.2443L70.5001 78.2823C70.8502 78.3618 71.2106 78.4018 71.5725 78.4012C71.6126 78.4011 71.6523 78.3994 71.6921 78.3984L75.748 78.7934C76.2249 78.9502 76.7306 79.03 77.2404 79.029C77.4305 79.0285 77.6203 79.0168 77.8086 78.9941L78.1544 79.0277L78.1565 78.9396C79.089 78.7571 79.9221 78.3038 80.5186 77.6545C81.1151 77.0052 81.4394 76.1985 81.4381 75.3675Z" fill="#FF6B6B"/>
<path d="M25.2879 125.306L24.8022 125.085C37.2409 104.471 72.4219 60.4273 72.7758 59.9849L73.2261 60.2571C72.8724 60.6993 37.7107 104.719 25.2879 125.306Z" fill="#3F3D56"/>
<path d="M63.3891 156.198L62.8601 156.073C63.1164 155.254 88.5944 73.9951 97.4403 60.2876L97.9185 60.5208C89.1055 74.1777 63.6454 155.38 63.3891 156.198Z" fill="#3F3D56"/>
<path d="M233.596 140.444C220.013 120.989 168.719 60.7356 168.202 60.1292L168.643 59.8455C169.159 60.4519 220.469 120.723 234.065 140.197L233.596 140.444Z" fill="#3F3D56"/>
<path d="M62.4019 158.361C63.462 158.36 64.3196 157.398 64.3174 156.213C64.3152 155.028 63.454 154.068 62.394 154.07C61.3339 154.071 60.4764 155.033 60.4786 156.218C60.4808 157.403 61.3419 158.362 62.4019 158.361Z" fill="#3F3D56"/>
<path d="M25.4127 126.228C26.4727 126.226 27.3303 125.264 27.3281 124.079C27.3259 122.894 26.4648 121.935 25.4047 121.936C24.3447 121.938 23.4871 122.9 23.4893 124.085C23.4915 125.27 24.3526 126.229 25.4127 126.228Z" fill="#3F3D56"/>
<path d="M234.105 141.515C235.165 141.514 236.022 140.552 236.02 139.367C236.018 138.182 235.157 137.222 234.097 137.224C233.037 137.225 232.179 138.187 232.181 139.372C232.184 140.557 233.045 141.517 234.105 141.515Z" fill="#3F3D56"/>
<path d="M70.6443 62.3513L174.095 63.3152C174.023 55.9689 170.615 48.9449 164.614 43.7735C158.612 38.6021 150.503 35.7024 142.054 35.7061L102.574 35.7613C86.0599 35.7844 72.0771 47.013 70.7404 61.3243L70.6443 62.3513Z" fill="#3F3D56"/>
<path opacity="0.2" d="M161.54 92.0847H123.73C123.27 92.0843 122.814 92.1635 122.389 92.3176C121.964 92.4717 121.579 92.6976 121.255 92.9823C120.932 93.267 120.676 93.6047 120.504 93.9759C120.332 94.3471 120.246 94.7444 120.252 95.1446L120.285 97.5488L120.621 123.287L120.626 123.784L120.637 124.603L120.648 125.404L120.711 130.229C120.721 131.014 121.082 131.765 121.717 132.323C122.353 132.881 123.213 133.203 124.115 133.22C124.208 133.22 124.304 133.217 124.4 133.213L133.378 132.738L146.367 132.049L150.952 131.806L151.974 131.752L159.119 131.374H159.122L161.75 131.234C162.634 131.186 163.464 130.847 164.071 130.286C164.678 129.725 165.017 128.984 165.018 128.214V95.109C165.017 94.3072 164.65 93.5384 163.998 92.9714C163.346 92.4045 162.462 92.0856 161.54 92.0847Z" fill="black"/>
<path d="M169.326 87.8809C169.189 87.8903 169.056 87.926 168.937 87.9853C168.818 88.0447 168.716 88.1261 168.637 88.224L164.471 88.2298V87.2691C164.47 86.4673 164.104 85.6986 163.452 85.1316C162.8 84.5646 161.915 84.2457 160.993 84.2449H123.184C122.723 84.2445 122.268 84.3237 121.843 84.4777C121.418 84.6318 121.032 84.8578 120.709 85.1425C120.385 85.4271 120.13 85.7649 119.958 86.1361C119.785 86.5073 119.7 86.9045 119.706 87.3048L119.719 88.2924L117.032 88.2961C116.885 88.1598 116.683 88.0783 116.468 88.0688C115.526 88.0702 114.766 89.8583 114.77 92.0627C114.774 94.2672 115.541 96.0532 116.483 96.0519C116.647 96.0363 116.804 95.9866 116.942 95.907C117.079 95.8274 117.192 95.7202 117.272 95.5946L168.651 95.5227C168.73 95.6203 168.833 95.7015 168.952 95.7605C169.071 95.8195 169.204 95.8548 169.34 95.8638C170.282 95.8625 171.042 94.0744 171.038 91.87C171.034 89.6655 170.267 87.8795 169.326 87.8809Z" fill="#FF6B6B"/>
<path d="M165.093 138.35C164.843 138.553 164.542 138.704 164.213 138.79C163.885 138.875 163.538 138.894 163.201 138.843C162.863 138.793 162.543 138.676 162.266 138.5C161.989 138.325 161.762 138.096 161.604 137.831L159.548 134.4L160.366 132.859L164.773 135.311C165.058 135.47 165.298 135.683 165.474 135.935C165.65 136.186 165.757 136.469 165.788 136.762C165.819 137.056 165.772 137.351 165.652 137.626C165.531 137.901 165.34 138.149 165.093 138.35Z" fill="#FFB8B8"/>
<path d="M173.972 158.371C173.924 157.975 173.706 157.608 173.363 157.344C173.02 157.08 172.575 156.936 172.117 156.942C171.699 156.939 171.293 157.059 170.963 157.281C170.632 157.504 170.398 157.816 170.296 158.169L168.476 165.855C168.416 166.08 168.385 166.31 168.383 166.54C168.383 168.274 170.051 169.478 172.117 169.478C174.182 169.478 175.852 168.274 175.852 166.54C175.851 166.263 175.807 165.986 175.723 165.718L173.972 158.371Z" fill="#3F3D56"/>
<path d="M187.742 161.809C187.557 161.668 187.358 161.541 187.147 161.431L180.193 157.205C179.516 156.835 178.792 156.846 178.267 157.292C178.038 157.482 177.893 157.735 177.856 158.008C177.819 158.282 177.894 158.557 178.067 158.788L183.318 164.789C183.438 164.934 183.572 165.071 183.719 165.196C184.629 166.081 186.647 166.13 187.756 165.196C188.851 164.248 188.838 162.557 187.742 161.809Z" fill="#3F3D56"/>
<path d="M192.969 155.549H185.925C185.699 155.542 185.479 155.612 185.313 155.745C185.147 155.878 185.048 156.063 185.037 156.259C185.033 156.44 185.1 156.617 185.225 156.761C185.351 156.905 185.528 157.009 185.729 157.055L192.374 158.843C193.339 159.038 194.639 158.29 194.639 157.356C194.639 156.168 193.879 155.549 192.969 155.549Z" fill="#3F3D56"/>
<path d="M159.453 156.255C159.446 156.154 159.415 156.056 159.364 155.965C159.312 155.875 159.24 155.794 159.152 155.728C159.064 155.662 158.962 155.612 158.851 155.58C158.74 155.549 158.624 155.537 158.508 155.546H151.464C150.577 155.546 149.829 156.379 149.829 157.313C149.829 158.247 151.091 159.038 152.059 158.843L158.804 157.055C159.006 157.014 159.184 156.91 159.304 156.763C159.424 156.615 159.477 156.435 159.453 156.255Z" fill="#3F3D56"/>
<path d="M164.287 157.212L157.331 161.419C157.114 161.525 156.913 161.652 156.73 161.798C156.219 162.211 155.917 162.785 155.892 163.392C155.867 163.999 156.12 164.589 156.596 165.034C156.639 165.074 156.684 165.114 156.73 165.151C157.276 165.599 157.998 165.849 158.749 165.849C159.499 165.849 160.222 165.599 160.767 165.151C160.916 165.028 161.05 164.891 161.167 164.744L166.423 158.777C166.599 158.55 166.675 158.275 166.639 158.003C166.602 157.731 166.454 157.479 166.223 157.294C165.963 157.083 165.626 156.96 165.272 156.945C164.918 156.93 164.569 157.024 164.287 157.212Z" fill="#3F3D56"/>
<path d="M175.108 148.989C175.189 148.886 175.234 148.765 175.237 148.64C175.237 147.903 173.568 147.391 171.502 147.391C169.437 147.391 167.768 147.903 167.768 148.64C167.771 148.742 167.803 148.842 167.861 148.931L169.682 152.198C169.89 152.506 170.642 152.721 171.502 152.719C172.471 152.719 173.277 152.453 173.358 152.112L175.108 148.989Z" fill="#3F3D56"/>
<path d="M187.142 149.211C186.032 148.814 184.014 148.835 183.104 149.211C182.966 149.261 182.832 149.319 182.704 149.384L177.453 151.934C177.095 152.136 177.18 152.404 177.653 152.57C178.274 152.757 178.948 152.77 179.578 152.607L186.533 150.811C186.734 150.767 186.933 150.713 187.128 150.65C188.223 150.333 188.236 149.614 187.142 149.211Z" fill="#3F3D56"/>
<path d="M194.024 152.543C194.024 152.146 192.724 151.828 191.759 151.911L185.114 152.671C184.717 152.719 184.422 152.832 184.422 153.009C184.422 153.187 184.855 153.311 185.31 153.311H192.354C193.264 153.311 194.024 153.048 194.024 152.543Z" fill="#3F3D56"/>
<path d="M158.189 152.671L151.445 151.911C150.476 151.828 149.214 152.165 149.214 152.562C149.214 152.958 149.962 153.313 150.85 153.313H157.893C158.383 153.313 158.838 153.196 158.838 153.011C158.838 152.826 158.628 152.719 158.189 152.671Z" fill="#3F3D56"/>
<path d="M165.608 152.57C166.1 152.401 166.158 152.145 165.808 151.939L160.553 149.403C160.425 149.336 160.291 149.278 160.153 149.23C158.845 148.835 157.423 148.835 156.116 149.23C156.069 149.246 156.024 149.263 155.981 149.28C154.99 149.674 155.051 150.289 156.116 150.655C156.311 150.721 156.512 150.774 156.716 150.816L163.672 152.604C164.306 152.768 164.983 152.756 165.608 152.57Z" fill="#3F3D56"/>
<path d="M185.828 148.46C185.828 157.907 179.773 158.081 172.304 158.081C164.835 158.081 152.572 156.213 158.78 148.46C165.327 140.284 176.56 124.698 172.304 123.873C172.304 123.873 185.828 139.014 185.828 148.46Z" fill="#F9A825"/>
<path opacity="0.5" d="M177.067 154.273C177.067 158.012 174.67 158.082 171.713 158.082C168.757 158.082 163.903 157.342 166.36 154.273C168.952 151.037 173.398 144.868 171.713 144.541C171.713 144.541 177.067 150.534 177.067 154.273Z" fill="#FF6584"/>
<path d="M165.018 126.525V128.214C165.017 128.985 164.678 129.725 164.071 130.286C163.464 130.847 162.634 131.186 161.75 131.234L124.4 133.213C123.929 133.238 123.458 133.179 123.014 133.041C122.571 132.903 122.164 132.688 121.819 132.409C121.474 132.13 121.198 131.793 121.008 131.418C120.817 131.043 120.716 130.639 120.711 130.229L120.621 123.287L143.214 122.969L165.018 126.525Z" fill="#3F3D56"/>
<path d="M158.927 134.892L142.077 127.282C141.999 127.247 141.931 127.198 141.877 127.138C141.822 127.078 141.783 127.009 141.762 126.935L138.107 114.126C137.895 113.383 138.009 112.598 138.428 111.924C138.847 111.25 139.54 110.737 140.371 110.484L141.252 110.216C141.448 110.156 141.656 110.132 141.864 110.145C142.071 110.158 142.273 110.208 142.458 110.292C142.642 110.376 142.804 110.491 142.935 110.632C143.066 110.773 143.162 110.935 143.218 111.109L146.821 122.387C146.854 122.492 146.924 122.586 147.021 122.656L160.751 132.547C160.869 132.632 160.947 132.753 160.968 132.885C160.989 133.018 160.953 133.152 160.866 133.263L159.721 134.719C159.635 134.827 159.508 134.904 159.362 134.936C159.215 134.968 159.061 134.952 158.927 134.892Z" fill="#E6E6E6"/>
<path d="M147.827 114.964C139.654 111.223 131.099 109.344 121.93 110.461C124.694 106.388 126.747 102.622 126.61 99.8028C126.551 98.8969 126.748 97.9923 127.184 97.1681C127.621 96.344 128.283 95.6255 129.113 95.0756C130.449 94.2146 132.068 93.75 133.731 93.7506C135.215 93.175 136.897 93.1169 138.43 93.5882C139.081 93.8012 139.672 94.131 140.166 94.5563C140.66 94.9816 141.045 95.4926 141.296 96.0561C141.61 96.7165 142.285 97.2949 143.264 97.8045C144.17 98.2607 144.909 98.9319 145.394 99.7395C146.039 100.855 146.083 101.979 145.238 103.113C148.402 106.004 148.411 110.347 147.827 114.964Z" fill="#2F2E41"/>
<path d="M136.241 105.602C139.403 105.602 141.966 103.373 141.966 100.624C141.966 97.8752 139.403 95.6467 136.241 95.6467C133.08 95.6467 130.517 97.8752 130.517 100.624C130.517 103.373 133.08 105.602 136.241 105.602Z" fill="#FFB8B8"/>
<path d="M138.967 111.409L132.289 112.001C132.647 108.606 132.788 105.473 132.289 103.113H138.967C137.699 106.87 137.81 109.549 138.967 111.409Z" fill="#FFB8B8"/>
<path d="M142.545 111.28C142.539 111.801 142.526 112.315 142.506 112.824C142.367 116.469 141.84 119.75 140.403 122.166C140.111 122.666 139.762 123.139 139.362 123.579C139.359 123.584 139.355 123.588 139.351 123.591C139.323 123.624 139.293 123.656 139.26 123.686C138.967 124.003 138.64 124.297 138.285 124.563L135.55 127.057L135.424 127.171L134.626 127.635L130.517 130.015L120.648 125.404L120.637 124.603L120.626 123.784C122.82 121.08 124.189 117.564 125.058 113.561C125.296 112.466 125.498 111.333 125.67 110.168C125.788 109.363 125.891 108.541 125.982 107.707C125.995 107.451 126.095 107.204 126.268 106.997C126.268 106.997 126.268 106.996 126.269 106.996C126.269 106.996 126.269 106.995 126.269 106.995C126.269 106.995 126.27 106.995 126.27 106.995C126.27 106.995 126.271 106.994 126.271 106.995C126.692 106.529 127.528 106.538 128.539 106.491C129.957 106.424 131.353 105.785 132.607 106.389C132.638 106.401 132.669 106.415 132.697 106.431L136.378 109.986L138.069 108.401L138.148 108.327L141.632 109.624C141.988 109.758 142.277 110 142.445 110.304C142.612 110.608 142.648 110.955 142.545 111.28Z" fill="#E6E6E6"/>
<path d="M134.777 128.749C134.777 129.355 134.645 129.955 134.389 130.519L133.378 132.738L124.4 133.213C124.304 133.217 124.208 133.22 124.115 133.22C123.213 133.203 122.353 132.881 121.717 132.323C121.082 131.765 120.721 131.014 120.711 130.229L120.648 125.404L120.637 124.603L123.905 125.808L127.091 124.32C127.265 124.256 127.442 124.2 127.624 124.154C127.86 124.089 128.101 124.039 128.345 124.005H128.348C128.465 123.988 128.583 123.974 128.7 123.964C130.051 123.846 131.404 124.165 132.501 124.86C133.142 125.264 133.675 125.784 134.061 126.385C134.091 126.426 134.117 126.469 134.14 126.513C134.357 126.867 134.521 127.244 134.627 127.635C134.726 128 134.776 128.374 134.777 128.749Z" fill="#2F2E41"/>
<path opacity="0.2" d="M132.22 114.549L133.415 119.314L140.671 124.741L134.265 119.053L132.22 114.549Z" fill="black"/>
<path opacity="0.2" d="M125.542 116.801L127.722 124.504L134.129 126.519L128.131 123.911L125.542 116.801Z" fill="black"/>
<path d="M143.124 100.921C138.905 99.2329 134.135 98.7517 129.903 100.565L130.449 96.2987L139.717 94.9951L143.124 100.921Z" fill="#2F2E41"/>
<path d="M177.04 138.41L146.015 133.776L146.396 132.147L177.04 138.41Z" fill="#3F3D56"/>
<path d="M151.19 134.794C150.94 134.998 150.639 135.149 150.311 135.234C149.982 135.32 149.636 135.338 149.298 135.288C148.96 135.238 148.64 135.12 148.363 134.945C148.086 134.769 147.86 134.54 147.701 134.276L145.646 130.844L146.464 129.304L150.87 131.756C151.155 131.915 151.395 132.128 151.571 132.379C151.747 132.631 151.854 132.914 151.885 133.207C151.916 133.5 151.87 133.796 151.749 134.071C151.629 134.346 151.438 134.593 151.19 134.794Z" fill="#FFB8B8"/>
<path d="M145.025 131.336L128.174 123.727C128.097 123.692 128.028 123.643 127.974 123.583C127.92 123.523 127.881 123.454 127.86 123.38L124.205 110.571C123.993 109.828 124.107 109.042 124.526 108.369C124.945 107.695 125.637 107.181 126.469 106.928L127.349 106.66C127.546 106.601 127.754 106.577 127.961 106.59C128.169 106.603 128.371 106.653 128.555 106.736C128.739 106.82 128.902 106.936 129.033 107.077C129.164 107.217 129.26 107.38 129.316 107.554L132.918 118.831C132.952 118.937 133.022 119.031 133.119 119.101L146.848 128.992C146.967 129.077 147.044 129.198 147.066 129.33C147.087 129.462 147.051 129.597 146.964 129.707L145.818 131.163C145.733 131.271 145.605 131.349 145.459 131.381C145.313 131.413 145.158 131.397 145.025 131.336Z" fill="#E6E6E6"/>
<path d="M173.696 139.254C173.845 139.28 173.999 139.253 174.125 139.18C174.252 139.106 174.34 138.993 174.37 138.863L174.681 137.511C174.71 137.381 174.68 137.247 174.596 137.137C174.511 137.027 174.38 136.95 174.231 136.925L169.728 136.142C169.579 136.116 169.425 136.143 169.298 136.216C169.172 136.29 169.084 136.403 169.054 136.533L168.743 137.886C168.729 137.95 168.728 138.016 168.743 138.08C168.758 138.144 168.787 138.205 168.828 138.259C168.87 138.314 168.924 138.361 168.986 138.397C169.049 138.433 169.119 138.459 169.193 138.472L173.696 139.254Z" fill="#E6E6E6"/>
</g>
<defs>
<clipPath id="clip0_237_9735">
<rect width="256.563" height="172.713" fill="white" transform="translate(0.720947 0.545898)"/>
</clipPath>
</defs>
</svg>
