<svg width="852" height="579" viewBox="0 0 852 579" fill="none" xmlns="http://www.w3.org/2000/svg">
<g clip-path="url(#clip0_225_9609)">
<path d="M582.149 110.684C577.356 105.526 571.581 101.389 565.166 98.519C558.751 95.6492 551.828 94.1054 544.807 93.9792C537.787 93.8531 530.813 95.1472 524.3 97.7847C517.787 100.422 511.869 104.349 506.896 109.332L241.895 375.738C234.894 382.76 225.412 386.711 215.522 386.726C205.633 386.74 196.139 382.819 189.117 375.818L149.869 336.441C145.017 331.562 139.256 327.69 132.915 325.049C126.575 322.408 119.778 321.049 112.915 321.049C106.052 321.049 99.2553 322.408 92.9145 325.049C86.5738 327.69 80.8128 331.562 75.9606 336.441L0 412.887H851.581V401.989L582.149 110.684Z" fill="#B7B9C0"/>
<path d="M271.799 554.84C227.017 540.67 182.984 540.668 140.922 554.836L140.43 553.359C182.809 539.084 227.164 539.082 272.264 553.354L271.799 554.84Z" fill="#FAFAFA"/>
<path d="M739.003 519.79C694.222 505.619 650.188 505.617 608.126 519.786L607.634 518.309C650.012 504.033 694.368 504.032 739.468 518.304L739.003 519.79Z" fill="#FAFAFA"/>
<path d="M767.305 201.8C800.666 114.793 782.217 26.6308 726.097 4.88448C669.978 -16.8619 597.44 36.0423 564.079 123.049C530.718 210.056 549.167 298.218 605.287 319.964C661.406 341.711 733.944 288.807 767.305 201.8Z" fill="#3A7540"/>
<path d="M600.72 444.998C600.371 444.997 600.033 444.87 599.77 444.64C599.506 444.409 599.334 444.091 599.284 443.744C599.223 443.308 593.18 399.499 598.607 341.275C603.619 287.504 619.713 210.054 667.925 146.446C668.04 146.293 668.185 146.165 668.35 146.068C668.515 145.971 668.697 145.908 668.886 145.882C669.075 145.856 669.268 145.868 669.452 145.917C669.637 145.966 669.81 146.051 669.962 146.167C670.114 146.284 670.241 146.429 670.337 146.595C670.433 146.761 670.496 146.944 670.521 147.135C670.546 147.325 670.534 147.518 670.485 147.704C670.436 147.889 670.351 148.063 670.235 148.216C622.439 211.274 606.475 288.156 601.498 341.547C596.103 399.432 602.098 442.9 602.159 443.332C602.189 443.539 602.173 443.75 602.114 443.951C602.055 444.151 601.954 444.337 601.818 444.495C601.681 444.653 601.513 444.779 601.323 444.866C601.134 444.953 600.928 444.998 600.72 444.998V444.998Z" fill="#3F4558"/>
<path d="M624.821 230.554C624.515 230.554 624.216 230.457 623.967 230.275C623.719 230.094 623.534 229.839 623.439 229.546C623.345 229.253 623.344 228.937 623.439 228.643C623.534 228.35 623.718 228.094 623.967 227.913C624.142 227.785 641.779 215.01 668.147 205.304C692.521 196.333 729.587 188.2 767.745 200.409C768.112 200.526 768.418 200.785 768.595 201.129C768.772 201.473 768.805 201.873 768.689 202.242C768.572 202.611 768.314 202.918 767.972 203.096C767.63 203.274 767.232 203.308 766.865 203.191C729.488 191.233 693.095 199.231 669.145 208.046C643.154 217.613 625.846 230.149 625.674 230.275C625.426 230.456 625.128 230.554 624.821 230.554Z" fill="#3F4558"/>
<path d="M246.599 359.68C302.718 337.933 321.168 249.771 287.807 162.765C254.446 75.7576 181.908 22.8535 125.788 44.5999C69.669 66.3462 51.2197 154.508 84.5807 241.515C117.942 328.522 190.48 381.426 246.599 359.68Z" fill="#3A7540"/>
<path d="M251.166 484.713C251.515 484.712 251.852 484.586 252.116 484.355C252.38 484.125 252.552 483.807 252.601 483.459C252.663 483.023 258.705 439.214 253.279 380.99C248.267 327.219 232.173 249.77 183.961 186.162C183.845 186.009 183.701 185.88 183.536 185.783C183.371 185.686 183.189 185.623 183 185.597C182.811 185.572 182.618 185.583 182.433 185.632C182.249 185.681 182.076 185.766 181.924 185.883C181.772 185.999 181.644 186.144 181.548 186.31C181.452 186.476 181.39 186.66 181.365 186.85C181.339 187.04 181.352 187.234 181.401 187.419C181.45 187.605 181.535 187.779 181.651 187.931C229.446 250.99 245.411 327.871 250.387 381.263C255.782 439.148 249.787 482.615 249.726 483.047C249.697 483.255 249.713 483.466 249.772 483.666C249.83 483.867 249.932 484.052 250.068 484.21C250.205 484.368 250.373 484.495 250.563 484.581C250.752 484.668 250.958 484.713 251.166 484.713Z" fill="#3F4558"/>
<path d="M227.065 270.269C227.371 270.269 227.67 270.172 227.919 269.991C228.167 269.81 228.352 269.554 228.447 269.261C228.542 268.968 228.542 268.652 228.447 268.359C228.352 268.065 228.168 267.81 227.919 267.629C227.744 267.501 210.107 254.725 183.739 245.019C159.365 236.048 122.299 227.915 84.1406 240.124C83.9585 240.182 83.7896 240.275 83.6435 240.399C83.4973 240.522 83.3769 240.674 83.289 240.844C83.2011 241.014 83.1475 241.201 83.1312 241.392C83.115 241.583 83.1364 241.776 83.1943 241.959C83.2522 242.142 83.3455 242.311 83.4687 242.458C83.5919 242.604 83.7426 242.725 83.9123 242.813C84.082 242.901 84.2673 242.955 84.4575 242.971C84.6478 242.986 84.8393 242.964 85.0211 242.906C122.398 230.948 158.792 238.946 182.741 247.761C208.732 257.328 226.04 269.865 226.212 269.99C226.46 270.171 226.758 270.269 227.065 270.269Z" fill="#3F4558"/>
<path d="M175.669 546.743C175.595 546.519 168.375 524.062 181.153 504.024L182.457 504.865C170.089 524.262 177.068 546.033 177.14 546.251L175.669 546.743Z" fill="#FAFAFA"/>
<path d="M189.775 507.482C189.414 508.773 188.802 509.979 187.976 511.033C187.151 512.086 186.127 512.966 184.963 513.622C183.799 514.277 182.518 514.696 181.193 514.854C179.868 515.012 178.525 514.906 177.24 514.542C174.647 513.807 172.45 512.067 171.133 509.704C170.481 508.534 170.064 507.246 169.907 505.914C169.75 504.582 169.855 503.232 170.217 501.941C171.739 496.511 180.955 483.042 186.355 484.572C191.756 486.102 191.297 502.052 189.775 507.482Z" fill="#FAFAFA"/>
<path d="M188.438 532.721C183.538 538.044 174.772 537.9 174.772 537.9C174.772 537.9 173.95 529.125 178.851 523.802C183.751 518.479 192.517 518.623 192.517 518.623C192.517 518.623 193.338 527.398 188.438 532.721Z" fill="#FAFAFA"/>
<path d="M686.262 508.577C686.188 508.352 678.968 485.896 691.746 465.858L693.05 466.698C680.682 486.096 687.66 507.867 687.732 508.085L686.262 508.577Z" fill="#FAFAFA"/>
<path d="M700.882 468.74C700.608 470.053 700.078 471.299 699.325 472.407C698.571 473.514 697.608 474.461 696.489 475.195C695.371 475.928 694.121 476.432 692.808 476.679C691.496 476.926 690.149 476.91 688.843 476.634C687.536 476.357 686.297 475.824 685.196 475.065C684.095 474.307 683.153 473.337 682.425 472.213C681.696 471.088 681.196 469.83 680.951 468.511C680.706 467.192 680.723 465.837 680.999 464.524C682.157 459.005 691.974 445.268 697.464 446.432C702.955 447.596 702.04 463.22 700.882 468.74Z" fill="#FAFAFA"/>
<path d="M699.031 494.555C694.131 499.878 685.365 499.734 685.365 499.734C685.365 499.734 684.543 490.959 689.443 485.636C694.343 480.312 703.109 480.457 703.109 480.457C703.109 480.457 703.931 489.232 699.031 494.555Z" fill="#FAFAFA"/>
<path d="M252.661 483.408C252.661 483.408 349.511 276.219 457.208 308.154C564.905 340.089 490.525 505.996 490.525 505.996L252.661 483.408Z" fill="#6F7482"/>
<path d="M250.949 488.544L264.121 470.629L397.386 427.01L621.466 449.136L622.023 457.777L550.796 532.162L250.949 488.544Z" fill="#3F4558"/>
<path d="M392.891 543.831H399.939L403.292 516.502H392.891L392.891 543.831Z" fill="#FFB6B6"/>
<path d="M391.094 541.517L404.973 541.517H404.974C407.32 541.517 409.57 542.454 411.228 544.121C412.887 545.789 413.819 548.051 413.819 550.409V550.698L391.094 550.699L391.094 541.517Z" fill="#272E43"/>
<path d="M365.362 529.141L359.653 533.294L341 513.13L349.427 507L365.362 529.141Z" fill="#FFB6B6"/>
<path d="M371.071 533.821L352.659 547.213L352.491 546.979C351.116 545.069 350.552 542.687 350.923 540.359C351.295 538.03 352.571 535.945 354.472 534.563L354.472 534.562L365.717 526.383L371.071 533.821Z" fill="#272E43"/>
<path d="M373.323 423.084C373.323 423.084 365.929 417.516 357.933 423.084L352.4 469.484H369.016L371.477 454.636L377.016 432.364L373.323 423.084Z" fill="#272E43"/>
<path d="M389.97 494.745L360.149 484.956L345.932 496.297L361.035 519.507L353.136 529.922L352.91 529.663C351.93 528.541 328.909 502.094 328.975 494.593C329.146 489.504 330.002 484.461 331.518 479.602L338.996 468.932L349.61 465.794L384.747 470.751L384.805 470.76L399.002 479.447C400.407 480.354 401.591 481.567 402.467 482.996C403.343 484.425 403.889 486.033 404.064 487.703C404.674 493.219 405.9 537.392 405.912 537.838L405.92 538.128H390.586L389.97 494.745Z" fill="#272E43"/>
<path d="M371.056 483.661C365.873 481.346 359.253 472.304 358.162 470.779C356.03 471.946 340.477 480.302 336.092 478.154C335.456 478.507 332.577 480.234 332.058 482.84L331.928 483.493L331.553 482.944C331.483 482.843 324.728 472.746 333.467 466.47C341.435 460.749 343.578 454.969 343.803 454.307L339.48 431.335L339.593 431.229C339.948 430.898 348.364 423.114 356.043 422.188L360.781 421.348L360.988 439.478V462.688C364.815 462.205 370.871 421.65 370.871 421.65L374.035 422.816C374.853 422.973 384.041 424.819 386.48 428.496L386.559 428.615L378.202 451.331L375.757 455.03V459.766L390.037 472.249L389.834 472.462C389.348 472.974 378.818 483.984 372.684 483.983C372.125 483.992 371.57 483.882 371.056 483.661Z" fill="#272E43"/>
<path d="M365.767 416.68C373.371 416.68 379.534 410.484 379.534 402.84C379.534 395.196 373.371 389 365.767 389C358.164 389 352 395.196 352 402.84C352 410.484 358.164 416.68 365.767 416.68Z" fill="#FFB6B6"/>
<path d="M362.146 487.783C362.245 486.997 362.513 486.242 362.934 485.572C363.354 484.902 363.915 484.332 364.578 483.904C365.24 483.475 365.989 483.198 366.77 483.091C367.55 482.985 368.345 483.052 369.098 483.287L376.988 473.778L383.906 477.189L372.575 490.461C372.098 491.705 371.183 492.73 370.004 493.342C368.824 493.953 367.463 494.109 366.178 493.779C364.892 493.449 363.772 492.656 363.029 491.551C362.285 490.446 361.971 489.105 362.146 487.783V487.783Z" fill="#FA8181"/>
<path d="M367.723 479.719L380.103 462.918L377.036 446.273L382.011 427.519L382.136 427.465C382.237 427.421 384.618 426.413 386.43 427.169C386.801 427.323 387.136 427.552 387.414 427.843C387.692 428.133 387.907 428.478 388.046 428.857C389.277 431.952 392.246 463.476 392.372 464.871C392.347 465.126 391.737 471.139 390.498 473.631C389.264 476.112 378.01 488.629 377.531 489.161L377.334 489.38L367.723 479.719Z" fill="#272E43"/>
<path d="M377.439 399.313C372.856 405.107 365.002 404.045 358.717 401.925C359.083 406.563 357.83 411.185 355.174 414.996C355.986 411.709 352.567 411.055 350.572 409.833C349.804 408.855 350.442 407.397 350.126 406.192C346.544 401.97 344.171 398.784 348.769 393.83C351.46 390.208 354.691 385.685 359.82 386.637C363.878 381.878 370.528 383.115 375.066 386.444C377.105 387.962 378.961 389.715 380.594 391.667C380.072 394.236 379.1 396.692 377.722 398.919" fill="#272E43"/>
<path d="M427.766 497.428L547.31 515.416L620.915 449.209C620.915 449.209 586.05 305.112 460.532 294.987C335.015 284.861 244.363 488.933 244.363 488.933L257.508 489.498C257.508 489.498 325.717 330.816 418.693 326.143C511.669 321.469 427.766 497.428 427.766 497.428Z" fill="#FA8181"/>
<path d="M451.397 349.826H372.368C368.052 349.826 363.914 348.102 360.863 345.035C357.811 341.967 356.097 337.807 356.097 333.469C356.097 329.131 357.811 324.97 360.863 321.903C363.914 318.835 368.052 317.112 372.368 317.112H451.397C455.713 317.112 459.851 318.835 462.902 321.903C465.954 324.97 467.668 329.131 467.668 333.469C467.668 337.807 465.954 341.967 462.902 345.035C459.851 348.102 455.713 349.826 451.397 349.826Z" fill="#6F7482"/>
<path d="M526.823 448.365C526.156 447.962 525.585 447.417 525.15 446.768C524.715 446.119 524.427 445.382 524.307 444.61C524.186 443.837 524.235 443.047 524.451 442.295C524.666 441.543 525.043 440.848 525.555 440.259L518.637 370.468L530.189 371.239L533.389 439.961C534.317 440.891 534.874 442.131 534.953 443.446C535.032 444.761 534.629 446.059 533.82 447.095C533.01 448.131 531.851 448.833 530.561 449.067C529.272 449.301 527.942 449.051 526.823 448.365Z" fill="#FA8181"/>
<path d="M534.869 367.883L531.84 391.023L532.261 405.206L519.556 406.375L517.009 394.58L515.606 363.352C515.501 360.996 516.287 358.688 517.806 356.893C519.326 355.097 521.467 353.947 523.796 353.675C526.213 353.392 528.644 354.076 530.563 355.58C532.483 357.083 533.738 359.284 534.057 361.709L534.869 367.883Z" fill="#272E43"/>
<path d="M486.213 571.49L478.506 571.489L474.84 541.604L486.214 541.605L486.213 571.49Z" fill="#FFB6B6"/>
<path d="M488.178 579L463.328 578.999V578.683C463.328 576.104 464.347 573.631 466.161 571.808C467.975 569.984 470.435 568.96 473 568.959H473.001L488.179 568.96L488.178 579Z" fill="#272E43"/>
<path d="M549.851 571.49L542.144 571.489L538.478 541.604L549.853 541.605L549.851 571.49Z" fill="#FFB6B6"/>
<path d="M551.817 579L526.966 578.999V578.683C526.966 576.104 527.985 573.631 529.799 571.808C531.613 569.984 534.073 568.96 536.639 568.959H536.639L551.817 568.96L551.817 579Z" fill="#272E43"/>
<path d="M519.71 342.596C528.938 342.596 536.419 335.075 536.419 325.798C536.419 316.521 528.938 309 519.71 309C510.481 309 503 316.521 503 325.798C503 335.075 510.481 342.596 519.71 342.596Z" fill="#FFB6B6"/>
<path d="M517.722 349.495L529.319 350.827C532.138 354.847 533.967 359.484 534.653 364.354C535.339 369.225 534.863 374.19 533.264 378.839L524.514 404.285C524.514 404.285 536.661 428.764 536.661 451.491C536.661 474.218 559.792 555.344 559.792 555.344L527.232 558.758L513.025 472.337L493.447 558.41L471.097 554.752L483.407 441.901L491.541 404.757L491.888 386.642C491.888 386.642 488.429 373.05 497.085 364.348L507.654 349.543L517.722 349.495Z" fill="#272E43"/>
<path d="M500.403 319.878H524.958V309.118C519.568 306.966 514.294 305.135 511.106 309.118C508.268 309.118 505.545 310.252 503.538 312.269C501.531 314.287 500.403 317.024 500.403 319.878Z" fill="#272E43"/>
<path d="M526.317 307.219C540.996 307.219 545.104 325.716 545.104 336.151C545.104 341.971 542.486 344.052 538.373 344.756L536.92 336.967L533.517 345.091C532.361 345.097 531.147 345.075 529.889 345.051L528.735 342.663L526.162 345.008C515.858 345.024 507.53 346.534 507.53 336.151C507.53 325.716 511.133 307.219 526.317 307.219Z" fill="#272E43"/>
<path opacity="0.2" d="M504.609 409.385L503.988 382.29L502.342 370.261L498.272 382.177L504.609 409.385Z" fill="#0F172E"/>
<path d="M551.964 428.17L525.391 425.886L524.272 350.014L537.228 350.85C538.048 350.906 538.841 351.171 539.531 351.621C540.222 352.07 540.786 352.689 541.172 353.419L558.172 385.842L557.179 423.483C557.146 424.74 556.626 425.934 555.731 426.813C554.836 427.691 553.636 428.184 552.385 428.188C552.246 428.188 552.105 428.182 551.964 428.17Z" fill="#3A7540"/>
<path d="M492.246 377.507C492.246 360.708 502.418 347.041 514.922 347.041C527.425 347.041 537.598 360.708 537.598 377.507C537.598 394.306 527.425 407.973 514.922 407.973C502.418 407.973 492.246 394.306 492.246 377.507ZM495.213 377.507C495.213 392.661 504.054 404.99 514.922 404.99C525.789 404.99 534.631 392.661 534.631 377.507C534.631 362.353 525.789 350.024 514.922 350.024C504.054 350.024 495.213 362.353 495.213 377.507Z" fill="#3A7540"/>
<path d="M551.161 424.184L552.908 385.878L535.008 350.702L534.253 351.09L552.051 386.064L550.314 424.145L551.161 424.184Z" fill="#3F4558"/>
<path d="M507.6 451.186C506.894 450.705 506.301 450.074 505.864 449.338C505.427 448.602 505.155 447.779 505.068 446.926C504.982 446.073 505.083 445.212 505.363 444.402C505.644 443.592 506.097 442.855 506.692 442.24L503.25 365.472L515.843 367.006L515.28 442.383C516.241 443.456 516.776 444.846 516.785 446.289C516.794 447.732 516.276 449.129 515.329 450.214C514.382 451.299 513.073 451.997 511.648 452.176C510.223 452.355 508.783 452.003 507.6 451.186Z" fill="#FFB6B6"/>
<path d="M521.162 363.614L516.48 388.75L516.101 404.291L502.132 404.811L500.043 391.754L500.355 357.505C500.379 354.922 501.375 352.444 503.144 350.57C504.913 348.696 507.323 347.566 509.888 347.407C512.549 347.243 515.167 348.137 517.178 349.896C519.19 351.655 520.432 354.139 520.638 356.811L521.162 363.614Z" fill="#272E43"/>
<path d="M318.366 478.037C317.566 478.035 316.799 477.72 316.227 477.158C315.654 476.597 315.322 475.833 315.301 475.029L314.666 450.965L325.535 430.236C325.781 429.769 326.143 429.373 326.584 429.086C327.025 428.798 327.532 428.629 328.057 428.593L336.34 428.059L335.624 476.566L318.635 478.026C318.545 478.034 318.455 478.038 318.366 478.037Z" fill="#3A7540"/>
<path d="M342.318 465.114C334.324 465.114 327.82 456.376 327.82 445.636C327.82 434.896 334.324 426.158 342.318 426.158C350.311 426.158 356.815 434.896 356.815 445.636C356.815 456.376 350.311 465.114 342.318 465.114ZM342.318 428.065C335.37 428.065 329.717 435.947 329.717 445.636C329.717 455.324 335.37 463.207 342.318 463.207C349.265 463.207 354.918 455.324 354.918 445.636C354.918 435.947 349.265 428.065 342.318 428.065Z" fill="#3A7540"/>
<path d="M319.149 475.478L318.032 450.987L329.476 428.498L329.958 428.746L318.58 451.107L319.69 475.453L319.149 475.478Z" fill="#3F4558"/>
<path d="M376.654 494.248C376.565 494.282 376.472 494.306 376.378 494.32L364.779 495.947C364.498 495.988 364.212 495.931 363.968 495.786C363.724 495.641 363.536 495.418 363.435 495.151L353.451 469.034C353.386 468.865 353.359 468.684 353.37 468.503C353.381 468.322 353.431 468.146 353.516 467.987C353.601 467.827 353.72 467.688 353.863 467.578C354.007 467.469 354.172 467.392 354.348 467.352H354.348L365.256 464.905C365.34 464.886 365.421 464.856 365.498 464.816L376.107 459.24C376.189 459.197 376.276 459.163 376.365 459.139L388.041 456.01C388.34 455.929 388.658 455.963 388.934 456.104C389.209 456.246 389.423 456.485 389.534 456.775L398.239 479.548C398.316 479.746 398.341 479.961 398.312 480.172C398.283 480.382 398.201 480.582 398.075 480.753L395.064 484.817C394.922 485.008 394.729 485.155 394.508 485.241L387.928 487.783C387.881 487.801 387.836 487.823 387.792 487.848L376.828 494.165C376.772 494.197 376.714 494.225 376.654 494.248Z" fill="#FAFAFA"/>
<path d="M382.05 459.491L380.568 459.889L376.639 460.942L376.632 460.944L371.252 463.771L369.256 464.821L369.255 464.821L366.257 466.397L366.175 466.416L363.06 467.114L361.555 467.452L355.416 468.829L365.054 494.042L371.38 493.154L372.932 492.936L376.238 492.472L376.276 492.467L386.901 486.345L393.365 483.848L396.317 479.863L387.927 457.917L382.05 459.491Z" fill="#FAFAFA"/>
<path d="M389.309 461.532L357.346 473.881L357.894 475.313L389.856 462.964L389.309 461.532Z" fill="#FAFAFA"/>
<path d="M391.133 466.305L359.171 478.654L359.718 480.085L391.681 467.737L391.133 466.305Z" fill="#FAFAFA"/>
<path d="M394.819 475.946L362.856 488.294L363.404 489.726L395.366 477.378L394.819 475.946Z" fill="#FAFAFA"/>
<path d="M382.05 459.491L391.619 484.522L390.195 485.072L380.567 459.889L382.05 459.491Z" fill="#FAFAFA"/>
<path d="M371.253 463.771L369.287 469.267L368.606 471.173L367.017 475.622L366.676 476.573L366.335 477.528L365.887 478.783L362.666 487.795L361.828 485.605L364.455 478.255L365.049 476.591L365.136 476.349L365.838 474.382L366.725 471.901L367.407 469.994L369.255 464.821L369.256 464.821L371.253 463.771Z" fill="#FAFAFA"/>
<path d="M363.06 467.114L372.931 492.936L371.38 493.154L361.555 467.452L363.06 467.114Z" fill="#FAFAFA"/>
<path d="M366.76 492.005C366.662 491.219 366.393 490.464 365.973 489.794C365.553 489.124 364.991 488.554 364.329 488.126C363.666 487.697 362.918 487.42 362.137 487.313C361.356 487.207 360.561 487.274 359.809 487.509L351.918 478L345 481.411L356.331 494.683C356.809 495.927 357.724 496.953 358.903 497.564C360.082 498.176 361.443 498.331 362.729 498.001C364.014 497.671 365.135 496.878 365.878 495.773C366.621 494.668 366.935 493.327 366.76 492.005V492.005Z" fill="#FFB6B6"/>
<path d="M351.616 490.125C350.91 489.593 334.311 477.05 332.456 473.322C330.599 469.587 331.059 458.528 331.083 458.025C331.112 457.851 334.002 440.568 336.447 434.425C338.983 428.051 345.363 430.53 345.427 430.556L345.62 430.633L342.842 463.214L357.994 483.42L351.821 490.279L351.616 490.125Z" fill="#272E43"/>
</g>
<defs>
<clipPath id="clip0_225_9609">
<rect width="852" height="579" fill="white"/>
</clipPath>
</defs>
</svg>
