<svg width="764" height="511" viewBox="0 0 764 511" fill="none" xmlns="http://www.w3.org/2000/svg">
<path d="M330 41.422C330 118.466 258.253 201.422 179 201.422C99.7471 201.422 0 234.466 0 157.422C0 80.3784 90.2471 18.4221 169.5 18.4221C248.753 18.4221 330 -35.6217 330 41.422Z" fill="#FF5656"/>
<path d="M763.586 150.242C763.586 227.285 692.256 289.391 613.003 289.391C533.75 289.391 470.003 300.785 470.003 223.741C470.003 146.698 468.333 150.242 547.586 150.242C626.838 150.242 763.586 73.198 763.586 150.242Z" fill="#FF5656"/>
<path d="M337.5 458.115C337.5 535.159 241.507 475.874 162.254 475.874C83.0009 475.874 22.7538 552.918 22.7538 475.874C22.7538 398.83 123.747 337.374 203 337.374C282.253 337.374 337.5 381.072 337.5 458.115Z" fill="#FF5656"/>
<path d="M50.7633 104V93.56H56.1633C56.7899 93.56 57.3099 93.6867 57.7233 93.94C58.1366 94.18 58.4433 94.4933 58.6433 94.88C58.8566 95.2667 58.9633 95.68 58.9633 96.12C58.9633 96.68 58.8299 97.1867 58.5633 97.64C58.2966 98.08 57.9099 98.4133 57.4033 98.64C58.0033 98.8133 58.4899 99.1267 58.8633 99.58C59.2366 100.02 59.4233 100.567 59.4233 101.22C59.4233 101.807 59.2833 102.307 59.0033 102.72C58.7233 103.133 58.3299 103.453 57.8233 103.68C57.3166 103.893 56.7299 104 56.0633 104H50.7633ZM52.4433 102.76H56.0233C56.3433 102.76 56.6299 102.68 56.8833 102.52C57.1499 102.36 57.3566 102.147 57.5033 101.88C57.6499 101.613 57.7233 101.333 57.7233 101.04C57.7233 100.72 57.6499 100.433 57.5033 100.18C57.3699 99.9133 57.1766 99.7067 56.9233 99.56C56.6833 99.4 56.4033 99.32 56.0833 99.32H52.4433V102.76ZM52.4433 98.16H55.7033C56.0233 98.16 56.3033 98.08 56.5433 97.92C56.7833 97.7467 56.9699 97.5267 57.1033 97.26C57.2366 96.9933 57.3033 96.7133 57.3033 96.42C57.3033 95.98 57.1566 95.6 56.8633 95.28C56.5833 94.96 56.2166 94.8 55.7633 94.8H52.4433V98.16ZM61.6422 104V93.56H63.4022V97.12H65.5222C66.7489 97.12 67.6755 97.4333 68.3022 98.06C68.9422 98.6733 69.2622 99.48 69.2622 100.48C69.2622 101.147 69.1222 101.747 68.8422 102.28C68.5755 102.813 68.1755 103.233 67.6422 103.54C67.1089 103.847 66.4422 104 65.6422 104H61.6422ZM63.4022 102.62H65.4022C65.8955 102.62 66.2889 102.527 66.5822 102.34C66.8889 102.14 67.1155 101.88 67.2622 101.56C67.4089 101.24 67.4822 100.893 67.4822 100.52C67.4822 100.16 67.4155 99.8267 67.2822 99.52C67.1489 99.2133 66.9289 98.9667 66.6222 98.78C66.3155 98.5933 65.8955 98.5 65.3622 98.5H63.4022V102.62ZM71.0622 104V93.58H72.8222V104H71.0622ZM80.5861 104.2C78.8661 104.2 77.5661 103.68 76.6861 102.64C75.8061 101.6 75.3661 100.133 75.3661 98.24C75.3661 96.9467 75.4728 95.86 75.6861 94.98C75.8994 94.0867 76.2194 93.3533 76.6461 92.78C77.0728 92.1933 77.5994 91.72 78.2261 91.36C78.8528 90.9867 79.5728 90.68 80.3861 90.44L84.8061 89.1L84.9061 90.62L80.6061 91.92C79.8728 92.16 79.2594 92.4667 78.7661 92.84C78.2728 93.2133 77.8861 93.6933 77.6061 94.28C77.3261 94.8667 77.1394 95.62 77.0461 96.54C77.3928 95.8333 77.9128 95.2867 78.6061 94.9C79.2994 94.5 80.1061 94.3 81.0261 94.3C82.0128 94.3 82.8594 94.5067 83.5661 94.92C84.2861 95.32 84.8328 95.8867 85.2061 96.62C85.5928 97.34 85.7861 98.1733 85.7861 99.12C85.7861 100.133 85.5861 101.02 85.1861 101.78C84.7861 102.54 84.1994 103.133 83.4261 103.56C82.6528 103.987 81.7061 104.2 80.5861 104.2ZM80.5861 102.68C81.6661 102.68 82.4994 102.367 83.0861 101.74C83.6861 101.1 83.9861 100.253 83.9861 99.2C83.9861 98.1733 83.6928 97.34 83.1061 96.7C82.5194 96.06 81.6794 95.74 80.5861 95.74C79.9461 95.74 79.3661 95.8733 78.8461 96.14C78.3394 96.4067 77.9328 96.8 77.6261 97.32C77.3328 97.8267 77.1861 98.4533 77.1861 99.2C77.1861 99.8667 77.3128 100.467 77.5661 101C77.8328 101.52 78.2194 101.933 78.7261 102.24C79.2328 102.533 79.8528 102.68 80.5861 102.68ZM87.9117 104V93.58H89.6717V101.64L95.5117 93.56H97.1117V104H95.3517V96.1L89.5917 104H87.9117ZM105.544 104.2C104.691 104.2 103.931 103.987 103.264 103.56C102.597 103.133 102.071 102.593 101.684 101.94V108.26H99.9239V93.56H101.484V95.52C101.897 94.88 102.437 94.3667 103.104 93.98C103.771 93.58 104.497 93.38 105.284 93.38C106.004 93.38 106.664 93.5267 107.264 93.82C107.864 94.1133 108.384 94.5133 108.824 95.02C109.264 95.5267 109.604 96.1067 109.844 96.76C110.097 97.4 110.224 98.0733 110.224 98.78C110.224 99.7667 110.024 100.673 109.624 101.5C109.237 102.327 108.691 102.987 107.984 103.48C107.277 103.96 106.464 104.2 105.544 104.2ZM105.004 102.68C105.524 102.68 105.991 102.573 106.404 102.36C106.831 102.133 107.191 101.84 107.484 101.48C107.791 101.107 108.024 100.687 108.184 100.22C108.344 99.7533 108.424 99.2733 108.424 98.78C108.424 98.26 108.331 97.7667 108.144 97.3C107.971 96.8333 107.717 96.42 107.384 96.06C107.064 95.7 106.684 95.42 106.244 95.22C105.817 95.0067 105.351 94.9 104.844 94.9C104.524 94.9 104.191 94.96 103.844 95.08C103.511 95.2 103.191 95.3733 102.884 95.6C102.577 95.8133 102.317 96.06 102.104 96.34C101.891 96.62 101.751 96.92 101.684 97.24V100.22C101.884 100.673 102.151 101.087 102.484 101.46C102.817 101.833 103.204 102.133 103.644 102.36C104.084 102.573 104.537 102.68 105.004 102.68ZM111.565 100.98C111.565 100.313 111.752 99.74 112.125 99.26C112.512 98.7667 113.038 98.3867 113.705 98.12C114.372 97.8533 115.145 97.72 116.025 97.72C116.492 97.72 116.985 97.76 117.505 97.84C118.025 97.9067 118.485 98.0133 118.885 98.16V97.4C118.885 96.6 118.645 95.9733 118.165 95.52C117.685 95.0533 117.005 94.82 116.125 94.82C115.552 94.82 114.998 94.9267 114.465 95.14C113.945 95.34 113.392 95.6333 112.805 96.02L112.165 94.78C112.845 94.3133 113.525 93.9667 114.205 93.74C114.885 93.5 115.592 93.38 116.325 93.38C117.658 93.38 118.712 93.7533 119.485 94.5C120.258 95.2333 120.645 96.26 120.645 97.58V102C120.645 102.213 120.685 102.373 120.765 102.48C120.858 102.573 121.005 102.627 121.205 102.64V104C121.032 104.027 120.878 104.047 120.745 104.06C120.625 104.073 120.525 104.08 120.445 104.08C120.032 104.08 119.718 103.967 119.505 103.74C119.305 103.513 119.192 103.273 119.165 103.02L119.125 102.36C118.672 102.947 118.078 103.4 117.345 103.72C116.612 104.04 115.885 104.2 115.165 104.2C114.472 104.2 113.852 104.06 113.305 103.78C112.758 103.487 112.332 103.1 112.025 102.62C111.718 102.127 111.565 101.58 111.565 100.98ZM118.365 101.72C118.525 101.533 118.652 101.347 118.745 101.16C118.838 100.96 118.885 100.793 118.885 100.66V99.36C118.472 99.2 118.038 99.08 117.585 99C117.132 98.9067 116.685 98.86 116.245 98.86C115.352 98.86 114.625 99.04 114.065 99.4C113.518 99.7467 113.245 100.227 113.245 100.84C113.245 101.173 113.332 101.5 113.505 101.82C113.692 102.127 113.958 102.38 114.305 102.58C114.665 102.78 115.105 102.88 115.625 102.88C116.172 102.88 116.692 102.773 117.185 102.56C117.678 102.333 118.072 102.053 118.365 101.72ZM123.439 104V93.58H125.199V101.64L131.039 93.56H132.639V104H130.879V96.1L125.119 104H123.439ZM128.059 92.38C127.099 92.38 126.372 92.1533 125.879 91.7C125.386 91.2333 125.139 90.66 125.139 89.98H126.379C126.379 90.3533 126.506 90.6667 126.759 90.92C127.026 91.16 127.459 91.28 128.059 91.28C128.646 91.28 129.059 91.1667 129.299 90.94C129.539 90.7 129.686 90.38 129.739 89.98H130.979C130.979 90.66 130.732 91.2333 130.239 91.7C129.746 92.1533 129.019 92.38 128.059 92.38ZM145.07 104.2C144.283 104.2 143.57 104.06 142.93 103.78C142.29 103.487 141.737 103.093 141.27 102.6C140.803 102.093 140.443 101.513 140.19 100.86C139.937 100.207 139.81 99.52 139.81 98.8C139.81 98.0667 139.937 97.3733 140.19 96.72C140.443 96.0667 140.803 95.4933 141.27 95C141.737 94.4933 142.29 94.1 142.93 93.82C143.583 93.5267 144.297 93.38 145.07 93.38C145.857 93.38 146.57 93.5267 147.21 93.82C147.85 94.1 148.403 94.4933 148.87 95C149.35 95.4933 149.717 96.0667 149.97 96.72C150.223 97.3733 150.35 98.0667 150.35 98.8C150.35 99.52 150.223 100.207 149.97 100.86C149.717 101.513 149.357 102.093 148.89 102.6C148.423 103.093 147.863 103.487 147.21 103.78C146.57 104.06 145.857 104.2 145.07 104.2ZM141.61 98.82C141.61 99.54 141.763 100.193 142.07 100.78C142.39 101.367 142.81 101.833 143.33 102.18C143.85 102.513 144.43 102.68 145.07 102.68C145.71 102.68 146.29 102.507 146.81 102.16C147.343 101.813 147.763 101.347 148.07 100.76C148.39 100.16 148.55 99.5 148.55 98.78C148.55 98.06 148.39 97.4067 148.07 96.82C147.763 96.2333 147.343 95.7667 146.81 95.42C146.29 95.0733 145.71 94.9 145.07 94.9C144.43 94.9 143.85 95.08 143.33 95.44C142.81 95.7867 142.39 96.2533 142.07 96.84C141.763 97.4267 141.61 98.0867 141.61 98.82ZM157.403 104.2C155.683 104.2 154.383 103.68 153.503 102.64C152.623 101.6 152.183 100.133 152.183 98.24C152.183 96.9467 152.289 95.86 152.503 94.98C152.716 94.0867 153.036 93.3533 153.463 92.78C153.889 92.1933 154.416 91.72 155.043 91.36C155.669 90.9867 156.389 90.68 157.203 90.44L161.622 89.1L161.723 90.62L157.423 91.92C156.689 92.16 156.076 92.4667 155.583 92.84C155.089 93.2133 154.703 93.6933 154.423 94.28C154.143 94.8667 153.956 95.62 153.863 96.54C154.209 95.8333 154.729 95.2867 155.423 94.9C156.116 94.5 156.923 94.3 157.843 94.3C158.829 94.3 159.676 94.5067 160.383 94.92C161.103 95.32 161.649 95.8867 162.023 96.62C162.409 97.34 162.603 98.1733 162.603 99.12C162.603 100.133 162.403 101.02 162.003 101.78C161.603 102.54 161.016 103.133 160.243 103.56C159.469 103.987 158.523 104.2 157.403 104.2ZM157.403 102.68C158.483 102.68 159.316 102.367 159.903 101.74C160.503 101.1 160.803 100.253 160.803 99.2C160.803 98.1733 160.509 97.34 159.923 96.7C159.336 96.06 158.496 95.74 157.403 95.74C156.763 95.74 156.183 95.8733 155.663 96.14C155.156 96.4067 154.749 96.8 154.443 97.32C154.149 97.8267 154.002 98.4533 154.002 99.2C154.002 99.8667 154.129 100.467 154.383 101C154.649 101.52 155.036 101.933 155.543 102.24C156.049 102.533 156.669 102.68 157.403 102.68ZM169.308 104.2C168.521 104.2 167.808 104.06 167.168 103.78C166.528 103.487 165.975 103.093 165.508 102.6C165.041 102.093 164.681 101.513 164.428 100.86C164.175 100.207 164.048 99.52 164.048 98.8C164.048 98.0667 164.175 97.3733 164.428 96.72C164.681 96.0667 165.041 95.4933 165.508 95C165.975 94.4933 166.528 94.1 167.168 93.82C167.821 93.5267 168.535 93.38 169.308 93.38C170.095 93.38 170.808 93.5267 171.448 93.82C172.088 94.1 172.641 94.4933 173.108 95C173.588 95.4933 173.955 96.0667 174.208 96.72C174.461 97.3733 174.588 98.0667 174.588 98.8C174.588 99.52 174.461 100.207 174.208 100.86C173.955 101.513 173.595 102.093 173.128 102.6C172.661 103.093 172.101 103.487 171.448 103.78C170.808 104.06 170.095 104.2 169.308 104.2ZM165.848 98.82C165.848 99.54 166.001 100.193 166.308 100.78C166.628 101.367 167.048 101.833 167.568 102.18C168.088 102.513 168.668 102.68 169.308 102.68C169.948 102.68 170.528 102.507 171.048 102.16C171.581 101.813 172.001 101.347 172.308 100.76C172.628 100.16 172.788 99.5 172.788 98.78C172.788 98.06 172.628 97.4067 172.308 96.82C172.001 96.2333 171.581 95.7667 171.048 95.42C170.528 95.0733 169.948 94.9 169.308 94.9C168.668 94.9 168.088 95.08 167.568 95.44C167.048 95.7867 166.628 96.2533 166.308 96.84C166.001 97.4267 165.848 98.0867 165.848 98.82ZM182.341 104.2C181.487 104.2 180.727 103.987 180.061 103.56C179.394 103.133 178.867 102.593 178.481 101.94V108.26H176.721V93.56H178.281V95.52C178.694 94.88 179.234 94.3667 179.901 93.98C180.567 93.58 181.294 93.38 182.081 93.38C182.801 93.38 183.461 93.5267 184.061 93.82C184.661 94.1133 185.181 94.5133 185.621 95.02C186.061 95.5267 186.401 96.1067 186.641 96.76C186.894 97.4 187.021 98.0733 187.021 98.78C187.021 99.7667 186.821 100.673 186.421 101.5C186.034 102.327 185.487 102.987 184.781 103.48C184.074 103.96 183.261 104.2 182.341 104.2ZM181.801 102.68C182.321 102.68 182.787 102.573 183.201 102.36C183.627 102.133 183.987 101.84 184.281 101.48C184.587 101.107 184.821 100.687 184.981 100.22C185.141 99.7533 185.221 99.2733 185.221 98.78C185.221 98.26 185.127 97.7667 184.941 97.3C184.767 96.8333 184.514 96.42 184.181 96.06C183.861 95.7 183.481 95.42 183.041 95.22C182.614 95.0067 182.147 94.9 181.641 94.9C181.321 94.9 180.987 94.96 180.641 95.08C180.307 95.2 179.987 95.3733 179.681 95.6C179.374 95.8133 179.114 96.06 178.901 96.34C178.687 96.62 178.547 96.92 178.481 97.24V100.22C178.681 100.673 178.947 101.087 179.281 101.46C179.614 101.833 180.001 102.133 180.441 102.36C180.881 102.573 181.334 102.68 181.801 102.68ZM190.13 108.38C189.903 108.38 189.67 108.347 189.43 108.28C189.203 108.213 188.97 108.113 188.73 107.98L189.33 106.78C189.45 106.847 189.563 106.893 189.67 106.92C189.79 106.96 189.903 106.98 190.01 106.98C190.33 106.98 190.63 106.827 190.91 106.52C191.203 106.227 191.477 105.773 191.73 105.16L192.23 103.9L187.65 93.56H189.51L193.03 102.22L196.21 93.56H197.95L193.07 105.7C192.83 106.3 192.557 106.793 192.25 107.18C191.943 107.58 191.61 107.88 191.25 108.08C190.89 108.28 190.517 108.38 190.13 108.38ZM198.569 106.46V102.44H198.789C199.082 102.44 199.349 102.353 199.589 102.18C199.842 102.007 200.062 101.707 200.249 101.28C200.449 100.84 200.609 100.24 200.729 99.48C200.849 98.72 200.929 97.7533 200.969 96.58L201.069 93.56H208.169V102.44H209.589V106.46H208.029V104H200.129V106.46H198.569ZM201.249 102.44H206.409V95.12H202.629L202.569 96.74C202.529 97.8733 202.449 98.8267 202.329 99.6C202.222 100.36 202.075 100.967 201.889 101.42C201.715 101.873 201.502 102.213 201.249 102.44ZM216.105 104.2C215.318 104.2 214.605 104.06 213.965 103.78C213.325 103.487 212.772 103.093 212.305 102.6C211.838 102.093 211.478 101.513 211.225 100.86C210.972 100.207 210.845 99.52 210.845 98.8C210.845 98.0667 210.972 97.3733 211.225 96.72C211.478 96.0667 211.838 95.4933 212.305 95C212.772 94.4933 213.325 94.1 213.965 93.82C214.618 93.5267 215.332 93.38 216.105 93.38C216.892 93.38 217.605 93.5267 218.245 93.82C218.885 94.1 219.438 94.4933 219.905 95C220.385 95.4933 220.752 96.0667 221.005 96.72C221.258 97.3733 221.385 98.0667 221.385 98.8C221.385 99.52 221.258 100.207 221.005 100.86C220.752 101.513 220.392 102.093 219.925 102.6C219.458 103.093 218.898 103.487 218.245 103.78C217.605 104.06 216.892 104.2 216.105 104.2ZM212.645 98.82C212.645 99.54 212.798 100.193 213.105 100.78C213.425 101.367 213.845 101.833 214.365 102.18C214.885 102.513 215.465 102.68 216.105 102.68C216.745 102.68 217.325 102.507 217.845 102.16C218.378 101.813 218.798 101.347 219.105 100.76C219.425 100.16 219.585 99.5 219.585 98.78C219.585 98.06 219.425 97.4067 219.105 96.82C218.798 96.2333 218.378 95.7667 217.845 95.42C217.325 95.0733 216.745 94.9 216.105 94.9C215.465 94.9 214.885 95.08 214.365 95.44C213.845 95.7867 213.425 96.2533 213.105 96.84C212.798 97.4267 212.645 98.0867 212.645 98.82ZM223.498 104V93.56H228.898C229.524 93.56 230.044 93.6867 230.458 93.94C230.871 94.18 231.178 94.4933 231.378 94.88C231.591 95.2667 231.698 95.68 231.698 96.12C231.698 96.68 231.564 97.1867 231.298 97.64C231.031 98.08 230.644 98.4133 230.138 98.64C230.738 98.8133 231.224 99.1267 231.598 99.58C231.971 100.02 232.158 100.567 232.158 101.22C232.158 101.807 232.018 102.307 231.738 102.72C231.458 103.133 231.064 103.453 230.558 103.68C230.051 103.893 229.464 104 228.798 104H223.498ZM225.178 102.76H228.758C229.078 102.76 229.364 102.68 229.618 102.52C229.884 102.36 230.091 102.147 230.238 101.88C230.384 101.613 230.458 101.333 230.458 101.04C230.458 100.72 230.384 100.433 230.238 100.18C230.104 99.9133 229.911 99.7067 229.658 99.56C229.418 99.4 229.138 99.32 228.818 99.32H225.178V102.76ZM225.178 98.16H228.438C228.758 98.16 229.038 98.08 229.278 97.92C229.518 97.7467 229.704 97.5267 229.838 97.26C229.971 96.9933 230.038 96.7133 230.038 96.42C230.038 95.98 229.891 95.6 229.598 95.28C229.318 94.96 228.951 94.8 228.498 94.8H225.178V98.16ZM233.577 100.98C233.577 100.313 233.763 99.74 234.137 99.26C234.523 98.7667 235.05 98.3867 235.717 98.12C236.383 97.8533 237.157 97.72 238.037 97.72C238.503 97.72 238.997 97.76 239.517 97.84C240.037 97.9067 240.497 98.0133 240.897 98.16V97.4C240.897 96.6 240.657 95.9733 240.177 95.52C239.697 95.0533 239.017 94.82 238.137 94.82C237.563 94.82 237.01 94.9267 236.477 95.14C235.957 95.34 235.403 95.6333 234.817 96.02L234.177 94.78C234.857 94.3133 235.537 93.9667 236.217 93.74C236.897 93.5 237.603 93.38 238.337 93.38C239.67 93.38 240.723 93.7533 241.497 94.5C242.27 95.2333 242.657 96.26 242.657 97.58V102C242.657 102.213 242.697 102.373 242.777 102.48C242.87 102.573 243.017 102.627 243.217 102.64V104C243.043 104.027 242.89 104.047 242.757 104.06C242.637 104.073 242.537 104.08 242.457 104.08C242.043 104.08 241.73 103.967 241.517 103.74C241.317 103.513 241.203 103.273 241.177 103.02L241.137 102.36C240.683 102.947 240.09 103.4 239.357 103.72C238.623 104.04 237.897 104.2 237.177 104.2C236.483 104.2 235.863 104.06 235.317 103.78C234.77 103.487 234.343 103.1 234.037 102.62C233.73 102.127 233.577 101.58 233.577 100.98ZM240.377 101.72C240.537 101.533 240.663 101.347 240.757 101.16C240.85 100.96 240.897 100.793 240.897 100.66V99.36C240.483 99.2 240.05 99.08 239.597 99C239.143 98.9067 238.697 98.86 238.257 98.86C237.363 98.86 236.637 99.04 236.077 99.4C235.53 99.7467 235.257 100.227 235.257 100.84C235.257 101.173 235.343 101.5 235.517 101.82C235.703 102.127 235.97 102.38 236.317 102.58C236.677 102.78 237.117 102.88 237.637 102.88C238.183 102.88 238.703 102.773 239.197 102.56C239.69 102.333 240.083 102.053 240.377 101.72ZM245.451 104V93.56H247.211V97.88H252.651V93.56H254.411V104H252.651V99.44H247.211V104H245.451ZM257.228 104V93.58H258.988V101.64L264.828 93.56H266.428V104H264.668V96.1L258.908 104H257.228ZM273.86 104.2C273.074 104.2 272.354 104.06 271.7 103.78C271.06 103.487 270.5 103.093 270.02 102.6C269.554 102.093 269.187 101.513 268.92 100.86C268.667 100.207 268.54 99.5133 268.54 98.78C268.54 97.7933 268.767 96.8933 269.22 96.08C269.674 95.2667 270.3 94.6133 271.1 94.12C271.914 93.6267 272.84 93.38 273.88 93.38C274.934 93.38 275.847 93.6333 276.62 94.14C277.407 94.6333 278.014 95.2867 278.44 96.1C278.88 96.9 279.1 97.7667 279.1 98.7C279.1 98.8333 279.094 98.9667 279.08 99.1C279.08 99.22 279.074 99.3133 279.06 99.38H270.4C270.454 100.06 270.64 100.667 270.96 101.2C271.294 101.72 271.72 102.133 272.24 102.44C272.76 102.733 273.32 102.88 273.92 102.88C274.56 102.88 275.16 102.72 275.72 102.4C276.294 102.08 276.687 101.66 276.9 101.14L278.42 101.56C278.194 102.067 277.854 102.52 277.4 102.92C276.96 103.32 276.434 103.633 275.82 103.86C275.22 104.087 274.567 104.2 273.86 104.2ZM270.34 98.16H277.46C277.407 97.48 277.214 96.88 276.88 96.36C276.547 95.84 276.12 95.4333 275.6 95.14C275.08 94.8467 274.507 94.7 273.88 94.7C273.267 94.7 272.7 94.8467 272.18 95.14C271.66 95.4333 271.234 95.84 270.9 96.36C270.58 96.88 270.394 97.48 270.34 98.16ZM100.558 132V121.58H102.318V129.64L108.158 121.56H109.758V132H107.998V124.1L102.238 132H100.558ZM121.449 132.18C120.809 132.18 120.189 132.08 119.589 131.88C119.002 131.68 118.476 131.393 118.009 131.02C117.542 130.647 117.176 130.193 116.909 129.66L118.329 129C118.649 129.6 119.076 130.047 119.609 130.34C120.156 130.62 120.729 130.76 121.329 130.76C121.969 130.76 122.542 130.607 123.049 130.3C123.569 129.98 123.996 129.56 124.329 129.04C124.662 128.507 124.856 127.927 124.909 127.3H120.409V126.1H124.889C124.822 125.54 124.636 125.013 124.329 124.52C124.036 124.013 123.636 123.607 123.129 123.3C122.636 122.98 122.042 122.82 121.349 122.82C120.776 122.82 120.229 122.947 119.709 123.2C119.202 123.453 118.782 123.88 118.449 124.48L117.089 123.78C117.476 123.06 118.036 122.48 118.769 122.04C119.502 121.6 120.382 121.38 121.409 121.38C122.262 121.38 123.016 121.533 123.669 121.84C124.336 122.133 124.889 122.54 125.329 123.06C125.782 123.567 126.122 124.14 126.349 124.78C126.589 125.42 126.709 126.073 126.709 126.74C126.709 127.433 126.589 128.107 126.349 128.76C126.109 129.4 125.756 129.98 125.289 130.5C124.836 131.007 124.282 131.413 123.629 131.72C122.989 132.027 122.262 132.18 121.449 132.18ZM128.82 132V121.56H130.58V125.86H131.74L135.02 121.56H137.02L133.12 126.62L137.48 132H135.44L131.74 127.48H130.58V132H128.82ZM139.191 132V121.58H140.951V129.64L146.791 121.56H148.391V132H146.631V124.1L140.871 132H139.191ZM151.183 132V121.56H159.843V132H158.083V123.12H152.943V132H151.183ZM162.668 132V121.58H164.428V129.64L170.268 121.56H171.868V132H170.108V124.1L164.348 132H162.668ZM180.3 132.2C179.446 132.2 178.686 131.987 178.02 131.56C177.353 131.133 176.826 130.593 176.44 129.94V136.26H174.68V121.56H176.24V123.52C176.653 122.88 177.193 122.367 177.86 121.98C178.526 121.58 179.253 121.38 180.04 121.38C180.76 121.38 181.42 121.527 182.02 121.82C182.62 122.113 183.14 122.513 183.58 123.02C184.02 123.527 184.36 124.107 184.6 124.76C184.853 125.4 184.98 126.073 184.98 126.78C184.98 127.767 184.78 128.673 184.38 129.5C183.993 130.327 183.446 130.987 182.74 131.48C182.033 131.96 181.22 132.2 180.3 132.2ZM179.76 130.68C180.28 130.68 180.746 130.573 181.16 130.36C181.586 130.133 181.946 129.84 182.24 129.48C182.546 129.107 182.78 128.687 182.94 128.22C183.1 127.753 183.18 127.273 183.18 126.78C183.18 126.26 183.086 125.767 182.9 125.3C182.726 124.833 182.473 124.42 182.14 124.06C181.82 123.7 181.44 123.42 181 123.22C180.573 123.007 180.106 122.9 179.6 122.9C179.28 122.9 178.946 122.96 178.6 123.08C178.266 123.2 177.946 123.373 177.64 123.6C177.333 123.813 177.073 124.06 176.86 124.34C176.646 124.62 176.506 124.92 176.44 125.24V128.22C176.64 128.673 176.906 129.087 177.24 129.46C177.573 129.833 177.96 130.133 178.4 130.36C178.84 130.573 179.293 130.68 179.76 130.68ZM191.701 132.2C190.914 132.2 190.201 132.06 189.561 131.78C188.921 131.487 188.367 131.093 187.901 130.6C187.434 130.093 187.074 129.513 186.821 128.86C186.567 128.207 186.441 127.52 186.441 126.8C186.441 126.067 186.567 125.373 186.821 124.72C187.074 124.067 187.434 123.493 187.901 123C188.367 122.493 188.921 122.1 189.561 121.82C190.214 121.527 190.927 121.38 191.701 121.38C192.487 121.38 193.201 121.527 193.841 121.82C194.481 122.1 195.034 122.493 195.501 123C195.981 123.493 196.347 124.067 196.601 124.72C196.854 125.373 196.981 126.067 196.981 126.8C196.981 127.52 196.854 128.207 196.601 128.86C196.347 129.513 195.987 130.093 195.521 130.6C195.054 131.093 194.494 131.487 193.841 131.78C193.201 132.06 192.487 132.2 191.701 132.2ZM188.241 126.82C188.241 127.54 188.394 128.193 188.701 128.78C189.021 129.367 189.441 129.833 189.961 130.18C190.481 130.513 191.061 130.68 191.701 130.68C192.341 130.68 192.921 130.507 193.441 130.16C193.974 129.813 194.394 129.347 194.701 128.76C195.021 128.16 195.181 127.5 195.181 126.78C195.181 126.06 195.021 125.407 194.701 124.82C194.394 124.233 193.974 123.767 193.441 123.42C192.921 123.073 192.341 122.9 191.701 122.9C191.061 122.9 190.481 123.08 189.961 123.44C189.441 123.787 189.021 124.253 188.701 124.84C188.394 125.427 188.241 126.087 188.241 126.82ZM199.093 132V121.56H204.493C205.12 121.56 205.64 121.687 206.053 121.94C206.467 122.18 206.773 122.493 206.973 122.88C207.187 123.267 207.293 123.68 207.293 124.12C207.293 124.68 207.16 125.187 206.893 125.64C206.627 126.08 206.24 126.413 205.733 126.64C206.333 126.813 206.82 127.127 207.193 127.58C207.567 128.02 207.753 128.567 207.753 129.22C207.753 129.807 207.613 130.307 207.333 130.72C207.053 131.133 206.66 131.453 206.153 131.68C205.647 131.893 205.06 132 204.393 132H199.093ZM200.773 130.76H204.353C204.673 130.76 204.96 130.68 205.213 130.52C205.48 130.36 205.687 130.147 205.833 129.88C205.98 129.613 206.053 129.333 206.053 129.04C206.053 128.72 205.98 128.433 205.833 128.18C205.7 127.913 205.507 127.707 205.253 127.56C205.013 127.4 204.733 127.32 204.413 127.32H200.773V130.76ZM200.773 126.16H204.033C204.353 126.16 204.633 126.08 204.873 125.92C205.113 125.747 205.3 125.527 205.433 125.26C205.567 124.993 205.633 124.713 205.633 124.42C205.633 123.98 205.487 123.6 205.193 123.28C204.913 122.96 204.547 122.8 204.093 122.8H200.773V126.16ZM209.972 132V121.56H211.732V125.86H212.892L216.172 121.56H218.172L214.272 126.62L218.632 132H216.592L212.892 127.48H211.732V132H209.972ZM221.663 136.38C221.437 136.38 221.203 136.347 220.963 136.28C220.737 136.213 220.503 136.113 220.263 135.98L220.863 134.78C220.983 134.847 221.097 134.893 221.203 134.92C221.323 134.96 221.437 134.98 221.543 134.98C221.863 134.98 222.163 134.827 222.443 134.52C222.737 134.227 223.01 133.773 223.263 133.16L223.763 131.9L219.183 121.56H221.043L224.563 130.22L227.743 121.56H229.483L224.603 133.7C224.363 134.3 224.09 134.793 223.783 135.18C223.477 135.58 223.143 135.88 222.783 136.08C222.423 136.28 222.05 136.38 221.663 136.38Z" fill="#FAFAFA"/>
<path d="M112.746 414.2C111.959 414.2 111.246 414.06 110.606 413.78C109.966 413.487 109.412 413.093 108.946 412.6C108.479 412.093 108.119 411.513 107.866 410.86C107.612 410.207 107.486 409.52 107.486 408.8C107.486 408.067 107.612 407.373 107.866 406.72C108.119 406.067 108.479 405.493 108.946 405C109.412 404.493 109.966 404.1 110.606 403.82C111.259 403.527 111.972 403.38 112.746 403.38C113.532 403.38 114.246 403.527 114.886 403.82C115.526 404.1 116.079 404.493 116.546 405C117.026 405.493 117.392 406.067 117.646 406.72C117.899 407.373 118.026 408.067 118.026 408.8C118.026 409.52 117.899 410.207 117.646 410.86C117.392 411.513 117.032 412.093 116.566 412.6C116.099 413.093 115.539 413.487 114.886 413.78C114.246 414.06 113.532 414.2 112.746 414.2ZM109.286 408.82C109.286 409.54 109.439 410.193 109.746 410.78C110.066 411.367 110.486 411.833 111.006 412.18C111.526 412.513 112.106 412.68 112.746 412.68C113.386 412.68 113.966 412.507 114.486 412.16C115.019 411.813 115.439 411.347 115.746 410.76C116.066 410.16 116.226 409.5 116.226 408.78C116.226 408.06 116.066 407.407 115.746 406.82C115.439 406.233 115.019 405.767 114.486 405.42C113.966 405.073 113.386 404.9 112.746 404.9C112.106 404.9 111.526 405.08 111.006 405.44C110.486 405.787 110.066 406.253 109.746 406.84C109.439 407.427 109.286 408.087 109.286 408.82ZM119.438 414L123.278 408.62L119.778 403.56H121.758L124.758 407.9H125.878V403.56H127.678V407.9H128.838L131.778 403.56H133.778L130.278 408.62L134.138 414H132.118L128.838 409.44H127.678V414H125.878V409.44H124.758L121.458 414H119.438ZM136.232 414V403.58H137.992V411.64L143.832 403.56H145.432V414H143.672V406.1L137.912 414H136.232ZM147.084 416.46V412.44H147.304C147.598 412.44 147.864 412.353 148.104 412.18C148.358 412.007 148.578 411.707 148.764 411.28C148.964 410.84 149.124 410.24 149.244 409.48C149.364 408.72 149.444 407.753 149.484 406.58L149.584 403.56H156.684V412.44H158.104V416.46H156.544V414H148.644V416.46H147.084ZM149.764 412.44H154.924V405.12H151.144L151.084 406.74C151.044 407.873 150.964 408.827 150.844 409.6C150.738 410.36 150.591 410.967 150.404 411.42C150.231 411.873 150.018 412.213 149.764 412.44ZM159.241 410.98C159.241 410.313 159.427 409.74 159.801 409.26C160.187 408.767 160.714 408.387 161.381 408.12C162.047 407.853 162.821 407.72 163.701 407.72C164.167 407.72 164.661 407.76 165.181 407.84C165.701 407.907 166.161 408.013 166.561 408.16V407.4C166.561 406.6 166.321 405.973 165.841 405.52C165.361 405.053 164.681 404.82 163.801 404.82C163.227 404.82 162.674 404.927 162.141 405.14C161.621 405.34 161.067 405.633 160.481 406.02L159.841 404.78C160.521 404.313 161.201 403.967 161.881 403.74C162.561 403.5 163.267 403.38 164.001 403.38C165.334 403.38 166.387 403.753 167.161 404.5C167.934 405.233 168.321 406.26 168.321 407.58V412C168.321 412.213 168.361 412.373 168.441 412.48C168.534 412.573 168.681 412.627 168.881 412.64V414C168.707 414.027 168.554 414.047 168.421 414.06C168.301 414.073 168.201 414.08 168.121 414.08C167.707 414.08 167.394 413.967 167.181 413.74C166.981 413.513 166.867 413.273 166.841 413.02L166.801 412.36C166.347 412.947 165.754 413.4 165.021 413.72C164.287 414.04 163.561 414.2 162.841 414.2C162.147 414.2 161.527 414.06 160.981 413.78C160.434 413.487 160.007 413.1 159.701 412.62C159.394 412.127 159.241 411.58 159.241 410.98ZM166.041 411.72C166.201 411.533 166.327 411.347 166.421 411.16C166.514 410.96 166.561 410.793 166.561 410.66V409.36C166.147 409.2 165.714 409.08 165.261 409C164.807 408.907 164.361 408.86 163.921 408.86C163.027 408.86 162.301 409.04 161.741 409.4C161.194 409.747 160.921 410.227 160.921 410.84C160.921 411.173 161.007 411.5 161.181 411.82C161.367 412.127 161.634 412.38 161.981 412.58C162.341 412.78 162.781 412.88 163.301 412.88C163.847 412.88 164.367 412.773 164.861 412.56C165.354 412.333 165.747 412.053 166.041 411.72ZM171.115 414V403.58H172.875V411.64L178.715 403.56H180.315V414H178.555V406.1L172.795 414H171.115ZM175.735 402.38C174.775 402.38 174.048 402.153 173.555 401.7C173.062 401.233 172.815 400.66 172.815 399.98H174.055C174.055 400.353 174.182 400.667 174.435 400.92C174.702 401.16 175.135 401.28 175.735 401.28C176.322 401.28 176.735 401.167 176.975 400.94C177.215 400.7 177.362 400.38 177.415 399.98H178.655C178.655 400.66 178.408 401.233 177.915 401.7C177.422 402.153 176.695 402.38 175.735 402.38ZM191.446 414.14C190.432 414.14 189.572 413.953 188.866 413.58C188.172 413.193 187.639 412.66 187.266 411.98L188.706 411.34C188.946 411.767 189.286 412.1 189.726 412.34C190.179 412.58 190.726 412.7 191.366 412.7C192.126 412.7 192.726 412.533 193.166 412.2C193.606 411.867 193.826 411.42 193.826 410.86C193.826 410.353 193.646 409.947 193.286 409.64C192.939 409.32 192.446 409.153 191.806 409.14H190.746V407.98H191.866C192.146 407.98 192.392 407.913 192.606 407.78C192.832 407.633 193.006 407.44 193.126 407.2C193.259 406.96 193.326 406.693 193.326 406.4C193.326 405.933 193.159 405.56 192.826 405.28C192.492 404.987 191.992 404.84 191.326 404.84C190.779 404.84 190.319 404.947 189.946 405.16C189.586 405.373 189.292 405.693 189.066 406.12L187.726 405.4C188.059 404.773 188.539 404.287 189.166 403.94C189.806 403.58 190.552 403.4 191.406 403.4C192.086 403.4 192.686 403.513 193.206 403.74C193.739 403.953 194.152 404.267 194.446 404.68C194.752 405.093 194.906 405.593 194.906 406.18C194.906 406.673 194.786 407.133 194.546 407.56C194.319 407.973 193.979 408.287 193.526 408.5C194.152 408.687 194.632 409.013 194.966 409.48C195.299 409.933 195.466 410.473 195.466 411.1C195.466 411.74 195.292 412.287 194.946 412.74C194.599 413.193 194.126 413.54 193.526 413.78C192.926 414.02 192.232 414.14 191.446 414.14ZM197.56 414V403.56H202.96C203.587 403.56 204.107 403.687 204.52 403.94C204.933 404.18 205.24 404.493 205.44 404.88C205.653 405.267 205.76 405.68 205.76 406.12C205.76 406.68 205.627 407.187 205.36 407.64C205.093 408.08 204.707 408.413 204.2 408.64C204.8 408.813 205.287 409.127 205.66 409.58C206.033 410.02 206.22 410.567 206.22 411.22C206.22 411.807 206.08 412.307 205.8 412.72C205.52 413.133 205.127 413.453 204.62 413.68C204.113 413.893 203.527 414 202.86 414H197.56ZM199.24 412.76H202.82C203.14 412.76 203.427 412.68 203.68 412.52C203.947 412.36 204.153 412.147 204.3 411.88C204.447 411.613 204.52 411.333 204.52 411.04C204.52 410.72 204.447 410.433 204.3 410.18C204.167 409.913 203.973 409.707 203.72 409.56C203.48 409.4 203.2 409.32 202.88 409.32H199.24V412.76ZM199.24 408.16H202.5C202.82 408.16 203.1 408.08 203.34 407.92C203.58 407.747 203.767 407.527 203.9 407.26C204.033 406.993 204.1 406.713 204.1 406.42C204.1 405.98 203.953 405.6 203.66 405.28C203.38 404.96 203.013 404.8 202.56 404.8H199.24V408.16ZM213.019 414.2C212.232 414.2 211.519 414.06 210.879 413.78C210.239 413.487 209.686 413.093 209.219 412.6C208.752 412.093 208.392 411.513 208.139 410.86C207.886 410.207 207.759 409.52 207.759 408.8C207.759 408.067 207.886 407.373 208.139 406.72C208.392 406.067 208.752 405.493 209.219 405C209.686 404.493 210.239 404.1 210.879 403.82C211.532 403.527 212.246 403.38 213.019 403.38C213.806 403.38 214.519 403.527 215.159 403.82C215.799 404.1 216.352 404.493 216.819 405C217.299 405.493 217.666 406.067 217.919 406.72C218.172 407.373 218.299 408.067 218.299 408.8C218.299 409.52 218.172 410.207 217.919 410.86C217.666 411.513 217.306 412.093 216.839 412.6C216.372 413.093 215.812 413.487 215.159 413.78C214.519 414.06 213.806 414.2 213.019 414.2ZM209.559 408.82C209.559 409.54 209.712 410.193 210.019 410.78C210.339 411.367 210.759 411.833 211.279 412.18C211.799 412.513 212.379 412.68 213.019 412.68C213.659 412.68 214.239 412.507 214.759 412.16C215.292 411.813 215.712 411.347 216.019 410.76C216.339 410.16 216.499 409.5 216.499 408.78C216.499 408.06 216.339 407.407 216.019 406.82C215.712 406.233 215.292 405.767 214.759 405.42C214.239 405.073 213.659 404.9 213.019 404.9C212.379 404.9 211.799 405.08 211.279 405.44C210.759 405.787 210.339 406.253 210.019 406.84C209.712 407.427 209.559 408.087 209.559 408.82ZM220.412 414V403.56H222.172V407.88H227.612V403.56H229.372V414H227.612V409.44H222.172V414H220.412ZM232.189 414V403.56H233.949V407.86H235.109L238.389 403.56H240.389L236.489 408.62L240.849 414H238.809L235.109 409.48H233.949V414H232.189ZM241.76 410.98C241.76 410.313 241.947 409.74 242.32 409.26C242.707 408.767 243.233 408.387 243.9 408.12C244.567 407.853 245.34 407.72 246.22 407.72C246.687 407.72 247.18 407.76 247.7 407.84C248.22 407.907 248.68 408.013 249.08 408.16V407.4C249.08 406.6 248.84 405.973 248.36 405.52C247.88 405.053 247.2 404.82 246.32 404.82C245.747 404.82 245.193 404.927 244.66 405.14C244.14 405.34 243.587 405.633 243 406.02L242.36 404.78C243.04 404.313 243.72 403.967 244.4 403.74C245.08 403.5 245.787 403.38 246.52 403.38C247.853 403.38 248.907 403.753 249.68 404.5C250.453 405.233 250.84 406.26 250.84 407.58V412C250.84 412.213 250.88 412.373 250.96 412.48C251.053 412.573 251.2 412.627 251.4 412.64V414C251.227 414.027 251.073 414.047 250.94 414.06C250.82 414.073 250.72 414.08 250.64 414.08C250.227 414.08 249.913 413.967 249.7 413.74C249.5 413.513 249.387 413.273 249.36 413.02L249.32 412.36C248.867 412.947 248.273 413.4 247.54 413.72C246.807 414.04 246.08 414.2 245.36 414.2C244.667 414.2 244.047 414.06 243.5 413.78C242.953 413.487 242.527 413.1 242.22 412.62C241.913 412.127 241.76 411.58 241.76 410.98ZM248.56 411.72C248.72 411.533 248.847 411.347 248.94 411.16C249.033 410.96 249.08 410.793 249.08 410.66V409.36C248.667 409.2 248.233 409.08 247.78 409C247.327 408.907 246.88 408.86 246.44 408.86C245.547 408.86 244.82 409.04 244.26 409.4C243.713 409.747 243.44 410.227 243.44 410.84C243.44 411.173 243.527 411.5 243.7 411.82C243.887 412.127 244.153 412.38 244.5 412.58C244.86 412.78 245.3 412.88 245.82 412.88C246.367 412.88 246.887 412.773 247.38 412.56C247.873 412.333 248.267 412.053 248.56 411.72ZM133.546 442.2C132.76 442.2 132.046 442.06 131.406 441.78C130.766 441.487 130.213 441.093 129.746 440.6C129.28 440.093 128.92 439.513 128.666 438.86C128.413 438.207 128.286 437.52 128.286 436.8C128.286 436.067 128.413 435.373 128.666 434.72C128.92 434.067 129.28 433.493 129.746 433C130.213 432.493 130.766 432.1 131.406 431.82C132.06 431.527 132.773 431.38 133.546 431.38C134.333 431.38 135.046 431.527 135.686 431.82C136.326 432.1 136.88 432.493 137.346 433C137.826 433.493 138.193 434.067 138.446 434.72C138.7 435.373 138.826 436.067 138.826 436.8C138.826 437.52 138.7 438.207 138.446 438.86C138.193 439.513 137.833 440.093 137.366 440.6C136.9 441.093 136.34 441.487 135.686 441.78C135.046 442.06 134.333 442.2 133.546 442.2ZM130.086 436.82C130.086 437.54 130.24 438.193 130.546 438.78C130.866 439.367 131.286 439.833 131.806 440.18C132.326 440.513 132.906 440.68 133.546 440.68C134.186 440.68 134.766 440.507 135.286 440.16C135.82 439.813 136.24 439.347 136.546 438.76C136.866 438.16 137.026 437.5 137.026 436.78C137.026 436.06 136.866 435.407 136.546 434.82C136.24 434.233 135.82 433.767 135.286 433.42C134.766 433.073 134.186 432.9 133.546 432.9C132.906 432.9 132.326 433.08 131.806 433.44C131.286 433.787 130.866 434.253 130.546 434.84C130.24 435.427 130.086 436.087 130.086 436.82ZM140.939 442V431.56H149.599V442H147.839V433.12H142.699V442H140.939ZM157.063 442.2C156.277 442.2 155.557 442.06 154.903 441.78C154.263 441.487 153.703 441.093 153.223 440.6C152.757 440.093 152.39 439.513 152.123 438.86C151.87 438.207 151.743 437.513 151.743 436.78C151.743 435.793 151.97 434.893 152.423 434.08C152.877 433.267 153.503 432.613 154.303 432.12C155.117 431.627 156.043 431.38 157.083 431.38C158.137 431.38 159.05 431.633 159.823 432.14C160.61 432.633 161.217 433.287 161.643 434.1C162.083 434.9 162.303 435.767 162.303 436.7C162.303 436.833 162.297 436.967 162.283 437.1C162.283 437.22 162.277 437.313 162.263 437.38H153.603C153.657 438.06 153.843 438.667 154.163 439.2C154.497 439.72 154.923 440.133 155.443 440.44C155.963 440.733 156.523 440.88 157.123 440.88C157.763 440.88 158.363 440.72 158.923 440.4C159.497 440.08 159.89 439.66 160.103 439.14L161.623 439.56C161.397 440.067 161.057 440.52 160.603 440.92C160.163 441.32 159.637 441.633 159.023 441.86C158.423 442.087 157.77 442.2 157.063 442.2ZM153.543 436.16H160.663C160.61 435.48 160.417 434.88 160.083 434.36C159.75 433.84 159.323 433.433 158.803 433.14C158.283 432.847 157.71 432.7 157.083 432.7C156.47 432.7 155.903 432.847 155.383 433.14C154.863 433.433 154.437 433.84 154.103 434.36C153.783 434.88 153.597 435.48 153.543 436.16ZM169.88 442.2C169.027 442.2 168.267 441.987 167.6 441.56C166.933 441.133 166.407 440.593 166.02 439.94V446.26H164.26V431.56H165.82V433.52C166.233 432.88 166.773 432.367 167.44 431.98C168.107 431.58 168.833 431.38 169.62 431.38C170.34 431.38 171 431.527 171.6 431.82C172.2 432.113 172.72 432.513 173.16 433.02C173.6 433.527 173.94 434.107 174.18 434.76C174.433 435.4 174.56 436.073 174.56 436.78C174.56 437.767 174.36 438.673 173.96 439.5C173.573 440.327 173.027 440.987 172.32 441.48C171.613 441.96 170.8 442.2 169.88 442.2ZM169.34 440.68C169.86 440.68 170.327 440.573 170.74 440.36C171.167 440.133 171.527 439.84 171.82 439.48C172.127 439.107 172.36 438.687 172.52 438.22C172.68 437.753 172.76 437.273 172.76 436.78C172.76 436.26 172.667 435.767 172.48 435.3C172.307 434.833 172.053 434.42 171.72 434.06C171.4 433.7 171.02 433.42 170.58 433.22C170.153 433.007 169.687 432.9 169.18 432.9C168.86 432.9 168.527 432.96 168.18 433.08C167.847 433.2 167.527 433.373 167.22 433.6C166.913 433.813 166.653 434.06 166.44 434.34C166.227 434.62 166.087 434.92 166.02 435.24V438.22C166.22 438.673 166.487 439.087 166.82 439.46C167.153 439.833 167.54 440.133 167.98 440.36C168.42 440.573 168.873 440.68 169.34 440.68ZM175.901 438.98C175.901 438.313 176.087 437.74 176.461 437.26C176.847 436.767 177.374 436.387 178.041 436.12C178.707 435.853 179.481 435.72 180.361 435.72C180.827 435.72 181.321 435.76 181.841 435.84C182.361 435.907 182.821 436.013 183.221 436.16V435.4C183.221 434.6 182.981 433.973 182.501 433.52C182.021 433.053 181.341 432.82 180.461 432.82C179.887 432.82 179.334 432.927 178.801 433.14C178.281 433.34 177.727 433.633 177.141 434.02L176.501 432.78C177.181 432.313 177.861 431.967 178.541 431.74C179.221 431.5 179.927 431.38 180.661 431.38C181.994 431.38 183.047 431.753 183.821 432.5C184.594 433.233 184.981 434.26 184.981 435.58V440C184.981 440.213 185.021 440.373 185.101 440.48C185.194 440.573 185.341 440.627 185.541 440.64V442C185.367 442.027 185.214 442.047 185.081 442.06C184.961 442.073 184.861 442.08 184.781 442.08C184.367 442.08 184.054 441.967 183.841 441.74C183.641 441.513 183.527 441.273 183.501 441.02L183.461 440.36C183.007 440.947 182.414 441.4 181.681 441.72C180.947 442.04 180.221 442.2 179.501 442.2C178.807 442.2 178.187 442.06 177.641 441.78C177.094 441.487 176.667 441.1 176.361 440.62C176.054 440.127 175.901 439.58 175.901 438.98ZM182.701 439.72C182.861 439.533 182.987 439.347 183.081 439.16C183.174 438.96 183.221 438.793 183.221 438.66V437.36C182.807 437.2 182.374 437.08 181.921 437C181.467 436.907 181.021 436.86 180.581 436.86C179.687 436.86 178.961 437.04 178.401 437.4C177.854 437.747 177.581 438.227 177.581 438.84C177.581 439.173 177.667 439.5 177.841 439.82C178.027 440.127 178.294 440.38 178.641 440.58C179.001 440.78 179.441 440.88 179.961 440.88C180.507 440.88 181.027 440.773 181.521 440.56C182.014 440.333 182.407 440.053 182.701 439.72ZM190.218 442V433.12H186.618V431.56H195.578V433.12H191.978V442H190.218ZM201.906 442.2C201.119 442.2 200.406 442.06 199.766 441.78C199.126 441.487 198.572 441.093 198.106 440.6C197.639 440.093 197.279 439.513 197.026 438.86C196.772 438.207 196.646 437.52 196.646 436.8C196.646 436.067 196.772 435.373 197.026 434.72C197.279 434.067 197.639 433.493 198.106 433C198.572 432.493 199.126 432.1 199.766 431.82C200.419 431.527 201.132 431.38 201.906 431.38C202.692 431.38 203.406 431.527 204.046 431.82C204.686 432.1 205.239 432.493 205.706 433C206.186 433.493 206.552 434.067 206.806 434.72C207.059 435.373 207.186 436.067 207.186 436.8C207.186 437.52 207.059 438.207 206.806 438.86C206.552 439.513 206.192 440.093 205.726 440.6C205.259 441.093 204.699 441.487 204.046 441.78C203.406 442.06 202.692 442.2 201.906 442.2ZM198.446 436.82C198.446 437.54 198.599 438.193 198.906 438.78C199.226 439.367 199.646 439.833 200.166 440.18C200.686 440.513 201.266 440.68 201.906 440.68C202.546 440.68 203.126 440.507 203.646 440.16C204.179 439.813 204.599 439.347 204.906 438.76C205.226 438.16 205.386 437.5 205.386 436.78C205.386 436.06 205.226 435.407 204.906 434.82C204.599 434.233 204.179 433.767 203.646 433.42C203.126 433.073 202.546 432.9 201.906 432.9C201.266 432.9 200.686 433.08 200.166 433.44C199.646 433.787 199.226 434.253 198.906 434.84C198.599 435.427 198.446 436.087 198.446 436.82ZM214.938 442.2C214.085 442.2 213.325 441.987 212.658 441.56C211.992 441.133 211.465 440.593 211.078 439.94V446.26H209.318V431.56H210.878V433.52C211.292 432.88 211.832 432.367 212.498 431.98C213.165 431.58 213.892 431.38 214.678 431.38C215.398 431.38 216.058 431.527 216.658 431.82C217.258 432.113 217.778 432.513 218.218 433.02C218.658 433.527 218.998 434.107 219.238 434.76C219.492 435.4 219.618 436.073 219.618 436.78C219.618 437.767 219.418 438.673 219.018 439.5C218.632 440.327 218.085 440.987 217.378 441.48C216.672 441.96 215.858 442.2 214.938 442.2ZM214.398 440.68C214.918 440.68 215.385 440.573 215.798 440.36C216.225 440.133 216.585 439.84 216.878 439.48C217.185 439.107 217.418 438.687 217.578 438.22C217.738 437.753 217.818 437.273 217.818 436.78C217.818 436.26 217.725 435.767 217.538 435.3C217.365 434.833 217.112 434.42 216.778 434.06C216.458 433.7 216.078 433.42 215.638 433.22C215.212 433.007 214.745 432.9 214.238 432.9C213.918 432.9 213.585 432.96 213.238 433.08C212.905 433.2 212.585 433.373 212.278 433.6C211.972 433.813 211.712 434.06 211.498 434.34C211.285 434.62 211.145 434.92 211.078 435.24V438.22C211.278 438.673 211.545 439.087 211.878 439.46C212.212 439.833 212.598 440.133 213.038 440.36C213.478 440.573 213.932 440.68 214.398 440.68ZM220.959 438.98C220.959 438.313 221.146 437.74 221.519 437.26C221.906 436.767 222.433 436.387 223.099 436.12C223.766 435.853 224.539 435.72 225.419 435.72C225.886 435.72 226.379 435.76 226.899 435.84C227.419 435.907 227.879 436.013 228.279 436.16V435.4C228.279 434.6 228.039 433.973 227.559 433.52C227.079 433.053 226.399 432.82 225.519 432.82C224.946 432.82 224.393 432.927 223.859 433.14C223.339 433.34 222.786 433.633 222.199 434.02L221.559 432.78C222.239 432.313 222.919 431.967 223.599 431.74C224.279 431.5 224.986 431.38 225.719 431.38C227.053 431.38 228.106 431.753 228.879 432.5C229.653 433.233 230.039 434.26 230.039 435.58V440C230.039 440.213 230.079 440.373 230.159 440.48C230.253 440.573 230.399 440.627 230.599 440.64V442C230.426 442.027 230.273 442.047 230.139 442.06C230.019 442.073 229.919 442.08 229.839 442.08C229.426 442.08 229.113 441.967 228.899 441.74C228.699 441.513 228.586 441.273 228.559 441.02L228.519 440.36C228.066 440.947 227.473 441.4 226.739 441.72C226.006 442.04 225.279 442.2 224.559 442.2C223.866 442.2 223.246 442.06 222.699 441.78C222.153 441.487 221.726 441.1 221.419 440.62C221.113 440.127 220.959 439.58 220.959 438.98ZM227.759 439.72C227.919 439.533 228.046 439.347 228.139 439.16C228.233 438.96 228.279 438.793 228.279 438.66V437.36C227.866 437.2 227.433 437.08 226.979 437C226.526 436.907 226.079 436.86 225.639 436.86C224.746 436.86 224.019 437.04 223.459 437.4C222.913 437.747 222.639 438.227 222.639 438.84C222.639 439.173 222.726 439.5 222.899 439.82C223.086 440.127 223.353 440.38 223.699 440.58C224.059 440.78 224.499 440.88 225.019 440.88C225.566 440.88 226.086 440.773 226.579 440.56C227.073 440.333 227.466 440.053 227.759 439.72Z" fill="#FAFAFA"/>
<path d="M530.835 208.2C530.049 208.2 529.335 208.06 528.695 207.78C528.055 207.487 527.502 207.093 527.035 206.6C526.569 206.093 526.209 205.513 525.955 204.86C525.702 204.207 525.575 203.52 525.575 202.8C525.575 202.067 525.702 201.373 525.955 200.72C526.209 200.067 526.569 199.493 527.035 199C527.502 198.493 528.055 198.1 528.695 197.82C529.349 197.527 530.062 197.38 530.835 197.38C531.622 197.38 532.335 197.527 532.975 197.82C533.615 198.1 534.169 198.493 534.635 199C535.115 199.493 535.482 200.067 535.735 200.72C535.989 201.373 536.115 202.067 536.115 202.8C536.115 203.52 535.989 204.207 535.735 204.86C535.482 205.513 535.122 206.093 534.655 206.6C534.189 207.093 533.629 207.487 532.975 207.78C532.335 208.06 531.622 208.2 530.835 208.2ZM527.375 202.82C527.375 203.54 527.529 204.193 527.835 204.78C528.155 205.367 528.575 205.833 529.095 206.18C529.615 206.513 530.195 206.68 530.835 206.68C531.475 206.68 532.055 206.507 532.575 206.16C533.109 205.813 533.529 205.347 533.835 204.76C534.155 204.16 534.315 203.5 534.315 202.78C534.315 202.06 534.155 201.407 533.835 200.82C533.529 200.233 533.109 199.767 532.575 199.42C532.055 199.073 531.475 198.9 530.835 198.9C530.195 198.9 529.615 199.08 529.095 199.44C528.575 199.787 528.155 200.253 527.835 200.84C527.529 201.427 527.375 202.087 527.375 202.82ZM543.068 212.26V208H542.668C541.615 208 540.701 207.76 539.928 207.28C539.168 206.8 538.581 206.167 538.168 205.38C537.755 204.593 537.548 203.733 537.548 202.8C537.548 201.853 537.755 200.987 538.168 200.2C538.595 199.413 539.188 198.78 539.948 198.3C540.721 197.82 541.628 197.58 542.668 197.58H543.068V193.4H544.828V197.58H545.248C546.288 197.58 547.188 197.82 547.948 198.3C548.721 198.78 549.315 199.413 549.728 200.2C550.155 200.987 550.368 201.853 550.368 202.8C550.368 203.733 550.161 204.593 549.748 205.38C549.335 206.167 548.741 206.8 547.968 207.28C547.208 207.76 546.301 208 545.248 208H544.828V212.26H543.068ZM542.668 206.56H543.148V199.02H542.668C542.015 199.02 541.428 199.193 540.908 199.54C540.401 199.873 540.001 200.327 539.708 200.9C539.415 201.473 539.268 202.113 539.268 202.82C539.268 203.527 539.408 204.167 539.688 204.74C539.981 205.3 540.381 205.747 540.888 206.08C541.395 206.4 541.988 206.56 542.668 206.56ZM544.748 206.56H545.248C545.915 206.56 546.501 206.4 547.008 206.08C547.528 205.747 547.928 205.3 548.208 204.74C548.501 204.167 548.648 203.527 548.648 202.82C548.648 202.113 548.501 201.473 548.208 200.9C547.915 200.327 547.515 199.873 547.008 199.54C546.501 199.193 545.915 199.02 545.248 199.02H544.748V206.56ZM557.066 208.2C556.279 208.2 555.566 208.06 554.926 207.78C554.286 207.487 553.733 207.093 553.266 206.6C552.799 206.093 552.439 205.513 552.186 204.86C551.933 204.207 551.806 203.52 551.806 202.8C551.806 202.067 551.933 201.373 552.186 200.72C552.439 200.067 552.799 199.493 553.266 199C553.733 198.493 554.286 198.1 554.926 197.82C555.579 197.527 556.293 197.38 557.066 197.38C557.853 197.38 558.566 197.527 559.206 197.82C559.846 198.1 560.399 198.493 560.866 199C561.346 199.493 561.713 200.067 561.966 200.72C562.219 201.373 562.346 202.067 562.346 202.8C562.346 203.52 562.219 204.207 561.966 204.86C561.713 205.513 561.353 206.093 560.886 206.6C560.419 207.093 559.859 207.487 559.206 207.78C558.566 208.06 557.853 208.2 557.066 208.2ZM553.606 202.82C553.606 203.54 553.759 204.193 554.066 204.78C554.386 205.367 554.806 205.833 555.326 206.18C555.846 206.513 556.426 206.68 557.066 206.68C557.706 206.68 558.286 206.507 558.806 206.16C559.339 205.813 559.759 205.347 560.066 204.76C560.386 204.16 560.546 203.5 560.546 202.78C560.546 202.06 560.386 201.407 560.066 200.82C559.759 200.233 559.339 199.767 558.806 199.42C558.286 199.073 557.706 198.9 557.066 198.9C556.426 198.9 555.846 199.08 555.326 199.44C554.806 199.787 554.386 200.253 554.066 200.84C553.759 201.427 553.606 202.087 553.606 202.82ZM570.099 208.2C569.245 208.2 568.485 207.987 567.819 207.56C567.152 207.133 566.625 206.593 566.239 205.94V212.26H564.479V197.56H566.039V199.52C566.452 198.88 566.992 198.367 567.659 197.98C568.325 197.58 569.052 197.38 569.839 197.38C570.559 197.38 571.219 197.527 571.819 197.82C572.419 198.113 572.939 198.513 573.379 199.02C573.819 199.527 574.159 200.107 574.399 200.76C574.652 201.4 574.779 202.073 574.779 202.78C574.779 203.767 574.579 204.673 574.179 205.5C573.792 206.327 573.245 206.987 572.539 207.48C571.832 207.96 571.019 208.2 570.099 208.2ZM569.559 206.68C570.079 206.68 570.545 206.573 570.959 206.36C571.385 206.133 571.745 205.84 572.039 205.48C572.345 205.107 572.579 204.687 572.739 204.22C572.899 203.753 572.979 203.273 572.979 202.78C572.979 202.26 572.885 201.767 572.699 201.3C572.525 200.833 572.272 200.42 571.939 200.06C571.619 199.7 571.239 199.42 570.799 199.22C570.372 199.007 569.905 198.9 569.399 198.9C569.079 198.9 568.745 198.96 568.399 199.08C568.065 199.2 567.745 199.373 567.439 199.6C567.132 199.813 566.872 200.06 566.659 200.34C566.445 200.62 566.305 200.92 566.239 201.24V204.22C566.439 204.673 566.705 205.087 567.039 205.46C567.372 205.833 567.759 206.133 568.199 206.36C568.639 206.573 569.092 206.68 569.559 206.68ZM576.92 208V197.56H578.74L582.62 204.4L586.52 197.56H588.3V208H586.62V200.1L583.18 206.14H582.06L578.6 200.1V208H576.92ZM590.219 208.08V206.5C590.565 206.5 590.872 206.413 591.139 206.24C591.419 206.053 591.665 205.747 591.879 205.32C592.092 204.88 592.259 204.28 592.379 203.52C592.512 202.747 592.599 201.767 592.639 200.58L592.759 197.56H599.859V208H598.099V199.12H594.319L594.279 200.74C594.225 202.167 594.105 203.353 593.919 204.3C593.732 205.247 593.472 205.993 593.139 206.54C592.805 207.087 592.392 207.48 591.899 207.72C591.419 207.96 590.859 208.08 590.219 208.08ZM601.921 208L604.881 203.8C604.201 203.667 603.655 203.347 603.241 202.84C602.828 202.32 602.621 201.627 602.621 200.76C602.621 200.133 602.768 199.58 603.061 199.1C603.355 198.62 603.761 198.24 604.281 197.96C604.815 197.68 605.435 197.54 606.141 197.54H610.421V208H608.661V204.08H606.621L603.861 208H601.921ZM606.261 202.78H608.661V198.92H606.461C605.835 198.92 605.335 199.1 604.961 199.46C604.588 199.807 604.401 200.253 604.401 200.8C604.401 201.347 604.555 201.813 604.861 202.2C605.181 202.587 605.648 202.78 606.261 202.78ZM613.248 208V197.58H615.008V205.64L620.848 197.56H622.448V208H620.688V200.1L614.928 208H613.248ZM617.868 196.38C616.908 196.38 616.181 196.153 615.688 195.7C615.194 195.233 614.948 194.66 614.948 193.98H616.188C616.188 194.353 616.314 194.667 616.568 194.92C616.834 195.16 617.268 195.28 617.868 195.28C618.454 195.28 618.868 195.167 619.108 194.94C619.348 194.7 619.494 194.38 619.548 193.98H620.788C620.788 194.66 620.541 195.233 620.048 195.7C619.554 196.153 618.828 196.38 617.868 196.38ZM633.578 208.14C632.565 208.14 631.705 207.953 630.998 207.58C630.305 207.193 629.772 206.66 629.398 205.98L630.838 205.34C631.078 205.767 631.418 206.1 631.858 206.34C632.312 206.58 632.858 206.7 633.498 206.7C634.258 206.7 634.858 206.533 635.298 206.2C635.738 205.867 635.958 205.42 635.958 204.86C635.958 204.353 635.778 203.947 635.418 203.64C635.072 203.32 634.578 203.153 633.938 203.14H632.878V201.98H633.998C634.278 201.98 634.525 201.913 634.738 201.78C634.965 201.633 635.138 201.44 635.258 201.2C635.392 200.96 635.458 200.693 635.458 200.4C635.458 199.933 635.292 199.56 634.958 199.28C634.625 198.987 634.125 198.84 633.458 198.84C632.912 198.84 632.452 198.947 632.078 199.16C631.718 199.373 631.425 199.693 631.198 200.12L629.858 199.4C630.192 198.773 630.672 198.287 631.298 197.94C631.938 197.58 632.685 197.4 633.538 197.4C634.218 197.4 634.818 197.513 635.338 197.74C635.872 197.953 636.285 198.267 636.578 198.68C636.885 199.093 637.038 199.593 637.038 200.18C637.038 200.673 636.918 201.133 636.678 201.56C636.452 201.973 636.112 202.287 635.658 202.5C636.285 202.687 636.765 203.013 637.098 203.48C637.432 203.933 637.598 204.473 637.598 205.1C637.598 205.74 637.425 206.287 637.078 206.74C636.732 207.193 636.258 207.54 635.658 207.78C635.058 208.02 634.365 208.14 633.578 208.14ZM638.893 204.98C638.893 204.313 639.08 203.74 639.453 203.26C639.84 202.767 640.366 202.387 641.033 202.12C641.7 201.853 642.473 201.72 643.353 201.72C643.82 201.72 644.313 201.76 644.833 201.84C645.353 201.907 645.813 202.013 646.213 202.16V201.4C646.213 200.6 645.973 199.973 645.493 199.52C645.013 199.053 644.333 198.82 643.453 198.82C642.88 198.82 642.326 198.927 641.793 199.14C641.273 199.34 640.72 199.633 640.133 200.02L639.493 198.78C640.173 198.313 640.853 197.967 641.533 197.74C642.213 197.5 642.92 197.38 643.653 197.38C644.986 197.38 646.04 197.753 646.813 198.5C647.586 199.233 647.973 200.26 647.973 201.58V206C647.973 206.213 648.013 206.373 648.093 206.48C648.186 206.573 648.333 206.627 648.533 206.64V208C648.36 208.027 648.206 208.047 648.073 208.06C647.953 208.073 647.853 208.08 647.773 208.08C647.36 208.08 647.046 207.967 646.833 207.74C646.633 207.513 646.52 207.273 646.493 207.02L646.453 206.36C646 206.947 645.406 207.4 644.673 207.72C643.94 208.04 643.213 208.2 642.493 208.2C641.8 208.2 641.18 208.06 640.633 207.78C640.086 207.487 639.66 207.1 639.353 206.62C639.046 206.127 638.893 205.58 638.893 204.98ZM645.693 205.72C645.853 205.533 645.98 205.347 646.073 205.16C646.166 204.96 646.213 204.793 646.213 204.66V203.36C645.8 203.2 645.366 203.08 644.913 203C644.46 202.907 644.013 202.86 643.573 202.86C642.68 202.86 641.953 203.04 641.393 203.4C640.846 203.747 640.573 204.227 640.573 204.84C640.573 205.173 640.66 205.5 640.833 205.82C641.02 206.127 641.286 206.38 641.633 206.58C641.993 206.78 642.433 206.88 642.953 206.88C643.5 206.88 644.02 206.773 644.513 206.56C645.006 206.333 645.4 206.053 645.693 205.72ZM650.767 208V197.56H652.527V201.86H653.687L656.967 197.56H658.967L655.067 202.62L659.427 208H657.387L653.687 203.48H652.527V208H650.767ZM660.338 204.98C660.338 204.313 660.525 203.74 660.898 203.26C661.285 202.767 661.812 202.387 662.478 202.12C663.145 201.853 663.918 201.72 664.798 201.72C665.265 201.72 665.758 201.76 666.278 201.84C666.798 201.907 667.258 202.013 667.658 202.16V201.4C667.658 200.6 667.418 199.973 666.938 199.52C666.458 199.053 665.778 198.82 664.898 198.82C664.325 198.82 663.772 198.927 663.238 199.14C662.718 199.34 662.165 199.633 661.578 200.02L660.938 198.78C661.618 198.313 662.298 197.967 662.978 197.74C663.658 197.5 664.365 197.38 665.098 197.38C666.432 197.38 667.485 197.753 668.258 198.5C669.032 199.233 669.418 200.26 669.418 201.58V206C669.418 206.213 669.458 206.373 669.538 206.48C669.632 206.573 669.778 206.627 669.978 206.64V208C669.805 208.027 669.652 208.047 669.518 208.06C669.398 208.073 669.298 208.08 669.218 208.08C668.805 208.08 668.492 207.967 668.278 207.74C668.078 207.513 667.965 207.273 667.938 207.02L667.898 206.36C667.445 206.947 666.852 207.4 666.118 207.72C665.385 208.04 664.658 208.2 663.938 208.2C663.245 208.2 662.625 208.06 662.078 207.78C661.532 207.487 661.105 207.1 660.798 206.62C660.492 206.127 660.338 205.58 660.338 204.98ZM667.138 205.72C667.298 205.533 667.425 205.347 667.518 205.16C667.612 204.96 667.658 204.793 667.658 204.66V203.36C667.245 203.2 666.812 203.08 666.358 203C665.905 202.907 665.458 202.86 665.018 202.86C664.125 202.86 663.398 203.04 662.838 203.4C662.292 203.747 662.018 204.227 662.018 204.84C662.018 205.173 662.105 205.5 662.278 205.82C662.465 206.127 662.732 206.38 663.078 206.58C663.438 206.78 663.878 206.88 664.398 206.88C664.945 206.88 665.465 206.773 665.958 206.56C666.452 206.333 666.845 206.053 667.138 205.72ZM675.493 208.14C674.479 208.14 673.619 207.953 672.913 207.58C672.219 207.193 671.686 206.66 671.313 205.98L672.753 205.34C672.993 205.767 673.333 206.1 673.773 206.34C674.226 206.58 674.773 206.7 675.413 206.7C676.173 206.7 676.773 206.533 677.213 206.2C677.653 205.867 677.873 205.42 677.873 204.86C677.873 204.353 677.693 203.947 677.333 203.64C676.986 203.32 676.493 203.153 675.853 203.14H674.793V201.98H675.913C676.193 201.98 676.439 201.913 676.653 201.78C676.879 201.633 677.053 201.44 677.173 201.2C677.306 200.96 677.373 200.693 677.373 200.4C677.373 199.933 677.206 199.56 676.873 199.28C676.539 198.987 676.039 198.84 675.373 198.84C674.826 198.84 674.366 198.947 673.993 199.16C673.633 199.373 673.339 199.693 673.113 200.12L671.773 199.4C672.106 198.773 672.586 198.287 673.213 197.94C673.853 197.58 674.599 197.4 675.453 197.4C676.133 197.4 676.733 197.513 677.253 197.74C677.786 197.953 678.199 198.267 678.493 198.68C678.799 199.093 678.953 199.593 678.953 200.18C678.953 200.673 678.833 201.133 678.593 201.56C678.366 201.973 678.026 202.287 677.573 202.5C678.199 202.687 678.679 203.013 679.013 203.48C679.346 203.933 679.513 204.473 679.513 205.1C679.513 205.74 679.339 206.287 678.993 206.74C678.646 207.193 678.173 207.54 677.573 207.78C676.973 208.02 676.279 208.14 675.493 208.14ZM686.666 208V197.56H692.066C692.692 197.56 693.212 197.687 693.626 197.94C694.039 198.18 694.346 198.493 694.546 198.88C694.759 199.267 694.866 199.68 694.866 200.12C694.866 200.68 694.732 201.187 694.466 201.64C694.199 202.08 693.812 202.413 693.306 202.64C693.906 202.813 694.392 203.127 694.766 203.58C695.139 204.02 695.326 204.567 695.326 205.22C695.326 205.807 695.186 206.307 694.906 206.72C694.626 207.133 694.232 207.453 693.726 207.68C693.219 207.893 692.632 208 691.966 208H686.666ZM688.346 206.76H691.926C692.246 206.76 692.532 206.68 692.786 206.52C693.052 206.36 693.259 206.147 693.406 205.88C693.552 205.613 693.626 205.333 693.626 205.04C693.626 204.72 693.552 204.433 693.406 204.18C693.272 203.913 693.079 203.707 692.826 203.56C692.586 203.4 692.306 203.32 691.986 203.32H688.346V206.76ZM688.346 202.16H691.606C691.926 202.16 692.206 202.08 692.446 201.92C692.686 201.747 692.872 201.527 693.006 201.26C693.139 200.993 693.206 200.713 693.206 200.42C693.206 199.98 693.059 199.6 692.766 199.28C692.486 198.96 692.119 198.8 691.666 198.8H688.346V202.16ZM572.281 236V225.56H574.041V229.86H575.201L578.481 225.56H580.481L576.581 230.62L580.941 236H578.901L575.201 231.48H574.041V236H572.281ZM586.685 236.2C585.898 236.2 585.185 236.06 584.545 235.78C583.905 235.487 583.352 235.093 582.885 234.6C582.418 234.093 582.058 233.513 581.805 232.86C581.552 232.207 581.425 231.52 581.425 230.8C581.425 230.067 581.552 229.373 581.805 228.72C582.058 228.067 582.418 227.493 582.885 227C583.352 226.493 583.905 226.1 584.545 225.82C585.198 225.527 585.912 225.38 586.685 225.38C587.472 225.38 588.185 225.527 588.825 225.82C589.465 226.1 590.018 226.493 590.485 227C590.965 227.493 591.332 228.067 591.585 228.72C591.838 229.373 591.965 230.067 591.965 230.8C591.965 231.52 591.838 232.207 591.585 232.86C591.332 233.513 590.972 234.093 590.505 234.6C590.038 235.093 589.478 235.487 588.825 235.78C588.185 236.06 587.472 236.2 586.685 236.2ZM583.225 230.82C583.225 231.54 583.378 232.193 583.685 232.78C584.005 233.367 584.425 233.833 584.945 234.18C585.465 234.513 586.045 234.68 586.685 234.68C587.325 234.68 587.905 234.507 588.425 234.16C588.958 233.813 589.378 233.347 589.685 232.76C590.005 232.16 590.165 231.5 590.165 230.78C590.165 230.06 590.005 229.407 589.685 228.82C589.378 228.233 588.958 227.767 588.425 227.42C587.905 227.073 587.325 226.9 586.685 226.9C586.045 226.9 585.465 227.08 584.945 227.44C584.425 227.787 584.005 228.253 583.685 228.84C583.378 229.427 583.225 230.087 583.225 230.82ZM599.718 236.2C598.864 236.2 598.104 235.987 597.438 235.56C596.771 235.133 596.244 234.593 595.858 233.94V240.26H594.098V225.56H595.658V227.52C596.071 226.88 596.611 226.367 597.278 225.98C597.944 225.58 598.671 225.38 599.458 225.38C600.178 225.38 600.838 225.527 601.438 225.82C602.038 226.113 602.558 226.513 602.998 227.02C603.438 227.527 603.778 228.107 604.018 228.76C604.271 229.4 604.398 230.073 604.398 230.78C604.398 231.767 604.198 232.673 603.798 233.5C603.411 234.327 602.864 234.987 602.158 235.48C601.451 235.96 600.638 236.2 599.718 236.2ZM599.178 234.68C599.698 234.68 600.164 234.573 600.578 234.36C601.004 234.133 601.364 233.84 601.658 233.48C601.964 233.107 602.198 232.687 602.358 232.22C602.518 231.753 602.598 231.273 602.598 230.78C602.598 230.26 602.504 229.767 602.318 229.3C602.144 228.833 601.891 228.42 601.558 228.06C601.238 227.7 600.858 227.42 600.418 227.22C599.991 227.007 599.524 226.9 599.018 226.9C598.698 226.9 598.364 226.96 598.018 227.08C597.684 227.2 597.364 227.373 597.058 227.6C596.751 227.813 596.491 228.06 596.278 228.34C596.064 228.62 595.924 228.92 595.858 229.24V232.22C596.058 232.673 596.324 233.087 596.658 233.46C596.991 233.833 597.378 234.133 597.818 234.36C598.258 234.573 598.711 234.68 599.178 234.68ZM609.819 236.14C608.805 236.14 607.945 235.953 607.239 235.58C606.545 235.193 606.012 234.66 605.639 233.98L607.079 233.34C607.319 233.767 607.659 234.1 608.099 234.34C608.552 234.58 609.099 234.7 609.739 234.7C610.499 234.7 611.099 234.533 611.539 234.2C611.979 233.867 612.199 233.42 612.199 232.86C612.199 232.353 612.019 231.947 611.659 231.64C611.312 231.32 610.819 231.153 610.179 231.14H609.119V229.98H610.239C610.519 229.98 610.765 229.913 610.979 229.78C611.205 229.633 611.379 229.44 611.499 229.2C611.632 228.96 611.699 228.693 611.699 228.4C611.699 227.933 611.532 227.56 611.199 227.28C610.865 226.987 610.365 226.84 609.699 226.84C609.152 226.84 608.692 226.947 608.319 227.16C607.959 227.373 607.665 227.693 607.439 228.12L606.099 227.4C606.432 226.773 606.912 226.287 607.539 225.94C608.179 225.58 608.925 225.4 609.779 225.4C610.459 225.4 611.059 225.513 611.579 225.74C612.112 225.953 612.525 226.267 612.819 226.68C613.125 227.093 613.279 227.593 613.279 228.18C613.279 228.673 613.159 229.133 612.919 229.56C612.692 229.973 612.352 230.287 611.899 230.5C612.525 230.687 613.005 231.013 613.339 231.48C613.672 231.933 613.839 232.473 613.839 233.1C613.839 233.74 613.665 234.287 613.319 234.74C612.972 235.193 612.499 235.54 611.899 235.78C611.299 236.02 610.605 236.14 609.819 236.14ZM615.933 236V225.58H617.693V233.64L623.533 225.56H625.133V236H623.373V228.1L617.613 236H615.933ZM627.925 236V225.56H629.685V229.88H635.125V225.56H636.885V236H635.125V231.44H629.685V236H627.925ZM644.343 236.2C643.556 236.2 642.836 236.06 642.183 235.78C641.543 235.487 640.983 235.093 640.503 234.6C640.036 234.093 639.669 233.513 639.403 232.86C639.149 232.207 639.023 231.513 639.023 230.78C639.023 229.793 639.249 228.893 639.703 228.08C640.156 227.267 640.783 226.613 641.583 226.12C642.396 225.627 643.323 225.38 644.363 225.38C645.416 225.38 646.329 225.633 647.103 226.14C647.889 226.633 648.496 227.287 648.923 228.1C649.363 228.9 649.583 229.767 649.583 230.7C649.583 230.833 649.576 230.967 649.563 231.1C649.563 231.22 649.556 231.313 649.543 231.38H640.883C640.936 232.06 641.123 232.667 641.443 233.2C641.776 233.72 642.203 234.133 642.723 234.44C643.243 234.733 643.803 234.88 644.403 234.88C645.043 234.88 645.643 234.72 646.203 234.4C646.776 234.08 647.169 233.66 647.383 233.14L648.903 233.56C648.676 234.067 648.336 234.52 647.883 234.92C647.443 235.32 646.916 235.633 646.303 235.86C645.703 236.087 645.049 236.2 644.343 236.2ZM640.823 230.16H647.943C647.889 229.48 647.696 228.88 647.363 228.36C647.029 227.84 646.603 227.433 646.083 227.14C645.563 226.847 644.989 226.7 644.363 226.7C643.749 226.7 643.183 226.847 642.663 227.14C642.143 227.433 641.716 227.84 641.383 228.36C641.063 228.88 640.876 229.48 640.823 230.16Z" fill="#FAFAFA"/>
<path d="M330 49C600.209 55.8099 616.916 115.837 591.493 145" stroke="#575D6D" stroke-width="3" stroke-dasharray="20 20"/>
<path d="M598 70.5L587.598 56.651L580.805 72.584L598 70.5ZM423.306 24.4874C463.481 29.7173 485.235 32.3361 506.289 37.5952C527.321 42.8489 547.68 50.7455 585.006 66.5912L586.179 63.8297C548.857 47.9861 528.302 40.0018 507.016 34.6846C485.751 29.3729 463.782 26.7311 423.694 21.5126L423.306 24.4874Z" fill="#575D6D"/>
<path d="M256 321L273.28 322.189L265.67 306.63L256 321ZM448.62 304.005C384.604 298.865 329.03 286.124 267.51 313.701L268.737 316.439C329.357 289.265 383.845 301.814 448.38 306.995L448.62 304.005Z" fill="#575D6D"/>
<path d="M498 280C223.6 258 149.333 313.833 146.5 344.5" stroke="#0F172E" stroke-width="3" stroke-linecap="round" stroke-dasharray="20 20"/>
</svg>
