<svg width="667" height="471" viewBox="0 0 667 471" fill="none" xmlns="http://www.w3.org/2000/svg">
<g clip-path="url(#clip0_225_9490)">
<path d="M570 94.1466C570 221.909 325.308 426 194.747 426C64.1855 426 0 209.79 0 82.0274C0 -45.7354 118.658 45.6697 249.219 45.6697C379.781 45.6697 570 -33.6162 570 94.1466Z" fill="#878B97"/>
<path d="M631.764 262.469C709.277 372.104 643.334 358.498 531.606 437.491C419.878 516.483 480.501 393.599 402.988 283.964C325.475 174.329 181.653 179.535 293.381 100.543C405.109 21.5502 554.251 152.834 631.764 262.469Z" fill="#B7B9C0"/>
<path d="M117.434 352.673C116.938 351.839 114.793 352.732 114.398 351.975C114.005 351.22 115.999 350.071 117.138 347.445C117.343 346.971 118.638 343.987 117.679 343.066C115.863 341.32 107.552 348.524 104.643 346.166C104.005 345.649 103.559 344.616 101.627 342.939C100.859 342.272 100.394 341.971 99.944 342.083C99.3058 342.242 99.2553 343.094 98.5709 344.77C97.5446 347.283 96.9376 347.131 96.3397 349.136C95.8958 350.624 95.9972 351.489 95.4748 351.658C94.7357 351.896 94.0553 350.318 93.1186 350.459C92.1626 350.603 91.5847 352.441 91.4022 353.817C91.0597 356.399 92.0102 358.103 92.537 359.895C93.1096 361.842 93.4494 364.804 92.1272 368.996L79.0403 405.781C81.9295 398.233 90.295 377.541 93.8102 369.852C94.825 367.632 95.9455 365.38 98.2461 364.492C100.461 363.636 103.503 364.147 107.381 363.215C107.834 363.106 109.091 362.787 109.249 362.05C109.38 361.44 108.641 361.1 108.754 360.528C108.907 359.762 110.361 359.753 112.147 358.869C113.407 358.246 114.192 357.505 114.867 356.868C115.07 356.675 118.095 353.784 117.434 352.673H117.434Z" fill="#FAFAFA"/>
<path d="M65.9468 372.039C65.3932 372.041 65.2136 373.349 64.7272 373.324C64.2426 373.299 64.2523 371.991 63.289 370.676C63.1152 370.438 62.0205 368.943 61.2909 369.147C59.9081 369.533 61.0539 375.681 59.055 376.425C58.6163 376.588 57.9795 376.508 56.5972 376.971C56.0473 377.154 55.765 377.295 55.6904 377.548C55.5845 377.906 55.9891 378.177 56.6159 378.995C57.556 380.223 57.3062 380.476 58.1199 381.347C58.7239 381.994 59.1788 382.194 59.1111 382.498C59.0151 382.929 58.0423 382.807 57.8415 383.306C57.6367 383.816 58.3741 384.629 58.9984 385.116C60.17 386.029 61.2825 386.055 62.316 386.314C63.4391 386.595 64.9939 387.283 66.6748 389.14L80.996 406.162C78.1161 402.57 70.3502 392.503 67.5816 388.563C66.7823 387.426 65.998 386.228 66.2246 384.845C66.4428 383.513 67.5718 382.171 68.2322 380.003C68.3094 379.75 68.5151 379.042 68.1979 378.752C67.9357 378.512 67.5549 378.776 67.3067 378.556C66.9738 378.26 67.3887 377.545 67.4694 376.416C67.5263 375.619 67.3882 375.021 67.2693 374.506C67.2335 374.351 66.6837 372.036 65.9468 372.039V372.039Z" fill="#FAFAFA"/>
<path d="M76.9907 374.512L76.6572 371.542L76.8096 371.317C77.5148 370.275 77.8742 369.258 77.8785 368.293C77.8792 368.14 77.872 367.986 77.8648 367.83C77.8361 367.21 77.8001 366.44 78.2027 365.542C78.4284 365.042 79.0624 363.883 80.0155 364.026C80.2721 364.062 80.4662 364.18 80.6136 364.317C80.6351 364.283 80.6574 364.249 80.6811 364.211C80.978 363.76 81.2131 363.566 81.4395 363.379C81.6135 363.236 81.7932 363.088 82.0749 362.738C82.1986 362.585 82.2949 362.45 82.3761 362.337C82.6227 361.994 82.9447 361.585 83.5126 361.592C84.1193 361.621 84.437 362.122 84.6476 362.453C85.0235 363.044 85.1939 363.47 85.3067 363.752C85.3477 363.856 85.3944 363.972 85.4182 364.008C85.6137 364.295 87.203 364.026 87.8017 363.929C89.1466 363.705 90.3104 363.511 90.7899 364.358C91.1334 364.963 90.8783 365.763 90.0085 366.8C89.7375 367.123 89.4493 367.368 89.1934 367.56C89.4054 367.687 89.5952 367.88 89.6721 368.184C89.8532 368.904 89.2329 369.626 87.8291 370.331C87.4804 370.508 87.011 370.743 86.3533 370.856C86.0435 370.909 85.7646 370.922 85.526 370.929C85.5209 371.067 85.4886 371.216 85.4045 371.37C85.1579 371.821 84.6447 372.037 83.8713 371.985C83.0202 371.941 82.3193 371.778 81.7011 371.636C81.1613 371.513 80.6962 371.408 80.3311 371.433C79.654 371.487 79.1321 372.028 78.5197 372.729L76.9907 374.512Z" fill="#FAFAFA"/>
<path d="M78.5379 356.827L75.7425 357.902L75.4855 357.812C74.2971 357.396 73.22 357.307 72.283 357.547C72.134 357.586 71.9871 357.632 71.8373 357.678C71.2438 357.863 70.5062 358.093 69.5336 357.932C68.991 357.841 67.7066 357.524 67.6039 356.567C67.5736 356.311 67.6384 356.094 67.7345 355.916C67.6956 355.904 67.6566 355.892 67.6144 355.878C67.1011 355.706 66.8537 355.529 66.6155 355.357C66.4323 355.226 66.2435 355.09 65.8327 354.907C65.6526 354.826 65.4974 354.768 65.367 354.718C64.9721 354.567 64.4941 354.36 64.357 353.81C64.2309 353.217 64.6356 352.784 64.9034 352.496C65.381 351.984 65.7508 351.711 65.9961 351.531C66.0859 351.465 66.1867 351.39 66.2154 351.359C66.4439 351.097 65.7808 349.631 65.5343 349.078C64.9763 347.837 64.4933 346.763 65.1922 346.086C65.6919 345.601 66.5326 345.644 67.7586 346.22C68.1402 346.4 68.4511 346.616 68.7024 346.814C68.771 346.578 68.9106 346.345 69.1859 346.194C69.838 345.837 70.6948 346.252 71.7351 347.428C71.9946 347.72 72.3417 348.113 72.6184 348.719C72.7484 349.004 72.8317 349.27 72.8992 349.499C73.0339 349.469 73.1868 349.462 73.3569 349.504C73.8575 349.628 74.1963 350.068 74.3424 350.828C74.5152 351.66 74.5358 352.378 74.5549 353.01C74.5723 353.563 74.5887 354.038 74.705 354.384C74.9296 355.024 75.5862 355.39 76.4215 355.803L78.5379 356.827L78.5379 356.827Z" fill="#FAFAFA"/>
<path d="M76.9907 348.076L76.6572 345.106L76.8096 344.88C77.5148 343.839 77.8742 342.822 77.8785 341.857C77.8792 341.703 77.872 341.55 77.8648 341.394C77.8361 340.774 77.8001 340.004 78.2027 339.106C78.4284 338.605 79.0624 337.447 80.0155 337.59C80.2721 337.626 80.4662 337.743 80.6136 337.881C80.6351 337.847 80.6574 337.812 80.6811 337.775C80.978 337.323 81.2131 337.13 81.4395 336.943C81.6135 336.8 81.7932 336.652 82.0749 336.302C82.1986 336.149 82.2949 336.014 82.3761 335.9C82.6227 335.558 82.9447 335.149 83.5126 335.156C84.1193 335.185 84.437 335.685 84.6476 336.017C85.0235 336.608 85.1939 337.034 85.3067 337.316C85.3477 337.419 85.3944 337.536 85.4182 337.571C85.6137 337.858 87.203 337.59 87.8017 337.492C89.1466 337.269 90.3104 337.075 90.7899 337.921C91.1334 338.527 90.8783 339.327 90.0085 340.364C89.7375 340.687 89.4493 340.932 89.1934 341.124C89.4054 341.25 89.5952 341.444 89.6721 341.748C89.8532 342.468 89.2329 343.189 87.8291 343.895C87.4804 344.071 87.011 344.307 86.3533 344.42C86.0435 344.473 85.7646 344.486 85.526 344.493C85.5209 344.631 85.4886 344.78 85.4045 344.933C85.1579 345.385 84.6447 345.6 83.8713 345.549C83.0202 345.504 82.3193 345.342 81.7011 345.2C81.1613 345.077 80.6962 344.972 80.3311 344.997C79.654 345.051 79.1321 345.592 78.5197 346.293L76.9907 348.076Z" fill="#FAFAFA"/>
<path d="M80.037 405.733L79.4131 405.343L79.2621 404.624L79.4131 405.343L78.6857 405.426C78.6742 405.359 78.6346 405.204 78.575 404.961C78.2493 403.633 77.2566 399.591 76.4286 393.226C75.8506 388.783 75.5236 384.215 75.456 379.647C75.3885 375.071 75.6055 371.608 75.7795 368.824C75.911 366.724 76.0706 364.725 76.2273 362.777C76.6442 357.574 77.0374 352.658 76.7449 347.217C76.6802 346.002 76.5443 343.473 75.0635 340.783C74.2046 339.222 73.0214 337.837 71.5464 336.666L72.4636 335.516C74.0917 336.81 75.4007 338.344 76.3545 340.077C77.9963 343.06 78.1444 345.816 78.2156 347.139C78.5131 352.677 78.1156 357.64 77.6944 362.893C77.5391 364.834 77.3796 366.824 77.2487 368.916C77.0762 371.674 76.8613 375.107 76.9282 379.624C76.9943 384.137 77.3177 388.65 77.8878 393.037C78.7058 399.322 79.6841 403.303 80.0054 404.611C80.1765 405.31 80.2124 405.456 80.037 405.733H80.037Z" fill="#FAFAFA"/>
<path d="M68.8465 339C68.7862 339 68.7251 338.998 68.6632 338.994C67.4096 338.927 66.2488 338.178 65.2122 336.77C64.7263 336.107 64.4776 335.351 63.9816 333.844C63.9047 333.611 63.5309 332.432 63.3038 330.81C63.155 329.75 63.1737 329.307 63.3843 328.916C63.6179 328.48 63.996 328.176 64.4215 327.97C64.4028 327.83 64.4179 327.685 64.479 327.537C64.7299 326.925 65.3969 327.005 65.7578 327.044C65.9404 327.067 66.1682 327.097 66.4141 327.084C66.8008 327.066 67.0085 326.951 67.3234 326.779C67.6246 326.614 67.9991 326.409 68.5547 326.295C69.6502 326.067 70.5681 326.377 70.8707 326.479C72.4629 327.008 73.2479 328.243 74.1564 329.673C74.3376 329.96 74.9593 331.004 75.3698 332.435C75.6659 333.468 75.6243 333.927 75.5351 334.268C75.354 334.97 74.9263 335.371 73.8402 336.258C72.7059 337.186 72.1366 337.65 71.6478 337.933C70.5099 338.588 69.7954 339 68.8465 339Z" fill="#FAFAFA"/>
<path d="M536.768 353.613C536.272 352.779 534.126 353.672 533.732 352.915C533.339 352.161 535.332 351.011 536.471 348.385C536.677 347.911 537.971 344.927 537.013 344.006C535.197 342.26 526.885 349.464 523.977 347.106C523.338 346.589 522.892 345.556 520.961 343.88C520.192 343.213 519.727 342.911 519.277 343.023C518.639 343.182 518.589 344.035 517.904 345.71C516.878 348.223 516.271 348.071 515.673 350.076C515.229 351.564 515.331 352.429 514.808 352.598C514.069 352.836 513.389 351.258 512.452 351.399C511.496 351.543 510.918 353.381 510.736 354.757C510.393 357.339 511.344 359.043 511.87 360.835C512.443 362.782 512.783 365.744 511.461 369.936L498.374 406.721C501.263 399.173 509.628 378.481 513.144 370.792C514.158 368.572 515.279 366.321 517.58 365.432C519.795 364.576 522.837 365.087 526.715 364.155C527.168 364.046 528.425 363.727 528.583 362.99C528.714 362.38 527.974 362.04 528.088 361.468C528.24 360.702 529.694 360.693 531.481 359.809C532.74 359.186 533.525 358.445 534.2 357.808C534.404 357.616 537.428 354.724 536.768 353.613Z" fill="#FAFAFA"/>
<path d="M485.28 372.979C484.727 372.981 484.547 374.289 484.061 374.264C483.576 374.239 483.586 372.931 482.622 371.616C482.449 371.378 481.354 369.883 480.624 370.087C479.242 370.473 480.387 376.621 478.388 377.365C477.95 377.528 477.313 377.448 475.931 377.911C475.381 378.094 475.099 378.235 475.024 378.488C474.918 378.846 475.323 379.117 475.949 379.935C476.889 381.163 476.64 381.416 477.453 382.287C478.057 382.934 478.512 383.134 478.445 383.439C478.349 383.869 477.376 383.747 477.175 384.246C476.97 384.756 477.708 385.569 478.332 386.056C479.503 386.969 480.616 386.995 481.649 387.254C482.773 387.535 484.327 388.223 486.008 390.08L500.329 407.102C497.45 403.51 489.684 393.443 486.915 389.503C486.116 388.366 485.331 387.168 485.558 385.785C485.776 384.453 486.905 383.111 487.566 380.943C487.643 380.69 487.849 379.983 487.531 379.692C487.269 379.452 486.888 379.716 486.64 379.496C486.307 379.2 486.722 378.485 486.803 377.356C486.86 376.559 486.722 375.961 486.603 375.447C486.567 375.291 486.017 372.976 485.28 372.979V372.979Z" fill="#FAFAFA"/>
<path d="M496.324 375.452L495.991 372.482L496.143 372.257C496.848 371.215 497.208 370.199 497.212 369.233C497.213 369.08 497.205 368.926 497.198 368.77C497.17 368.15 497.134 367.38 497.536 366.482C497.762 365.982 498.396 364.823 499.349 364.966C499.606 365.002 499.8 365.12 499.947 365.258C499.969 365.223 499.991 365.189 500.015 365.151C500.312 364.7 500.547 364.506 500.773 364.32C500.947 364.176 501.127 364.028 501.408 363.678C501.532 363.525 501.628 363.39 501.71 363.277C501.956 362.934 502.278 362.525 502.846 362.532C503.453 362.561 503.77 363.062 503.981 363.393C504.357 363.984 504.527 364.41 504.64 364.692C504.681 364.796 504.728 364.912 504.752 364.948C504.947 365.235 506.536 364.966 507.135 364.869C508.48 364.645 509.644 364.451 510.123 365.298C510.467 365.903 510.212 366.703 509.342 367.74C509.071 368.063 508.783 368.308 508.527 368.5C508.739 368.627 508.929 368.82 509.006 369.124C509.187 369.844 508.566 370.566 507.163 371.271C506.814 371.448 506.345 371.683 505.687 371.796C505.377 371.849 505.098 371.862 504.859 371.869C504.854 372.007 504.822 372.156 504.738 372.31C504.491 372.762 503.978 372.977 503.205 372.925C502.354 372.881 501.653 372.719 501.035 372.577C500.495 372.453 500.03 372.349 499.665 372.373C498.987 372.427 498.466 372.968 497.853 373.669L496.324 375.452Z" fill="#FAFAFA"/>
<path d="M497.871 357.767L495.076 358.842L494.819 358.752C493.631 358.336 492.553 358.247 491.617 358.487C491.468 358.526 491.321 358.572 491.171 358.618C490.577 358.803 489.84 359.033 488.867 358.872C488.325 358.782 487.04 358.464 486.937 357.507C486.907 357.251 486.972 357.034 487.068 356.857C487.029 356.844 486.99 356.832 486.948 356.818C486.435 356.646 486.187 356.469 485.949 356.297C485.766 356.166 485.577 356.03 485.166 355.847C484.986 355.766 484.831 355.708 484.7 355.658C484.306 355.507 483.828 355.3 483.69 354.75C483.564 354.157 483.969 353.724 484.237 353.437C484.715 352.924 485.084 352.651 485.33 352.471C485.419 352.405 485.52 352.331 485.549 352.299C485.777 352.037 485.114 350.571 484.868 350.018C484.31 348.777 483.827 347.703 484.526 347.026C485.025 346.541 485.866 346.584 487.092 347.16C487.474 347.34 487.785 347.556 488.036 347.754C488.104 347.518 488.244 347.285 488.519 347.134C489.172 346.777 490.028 347.192 491.069 348.368C491.328 348.66 491.675 349.053 491.952 349.659C492.082 349.944 492.165 350.21 492.233 350.439C492.367 350.409 492.52 350.402 492.69 350.444C493.191 350.568 493.53 351.008 493.676 351.768C493.849 352.6 493.869 353.318 493.888 353.951C493.906 354.503 493.922 354.978 494.038 355.324C494.263 355.964 494.92 356.33 495.755 356.744L497.871 357.767L497.871 357.767Z" fill="#FAFAFA"/>
<path d="M496.324 349.016L495.991 346.046L496.143 345.82C496.848 344.779 497.208 343.762 497.212 342.797C497.213 342.644 497.205 342.49 497.198 342.334C497.17 341.714 497.134 340.944 497.536 340.046C497.762 339.546 498.396 338.387 499.349 338.53C499.606 338.566 499.8 338.684 499.947 338.821C499.969 338.787 499.991 338.752 500.015 338.715C500.312 338.263 500.547 338.07 500.773 337.883C500.947 337.74 501.127 337.592 501.408 337.242C501.532 337.089 501.628 336.954 501.71 336.841C501.956 336.498 502.278 336.089 502.846 336.096C503.453 336.125 503.77 336.625 503.981 336.957C504.357 337.548 504.527 337.974 504.64 338.256C504.681 338.359 504.728 338.476 504.752 338.511C504.947 338.798 506.536 338.53 507.135 338.433C508.48 338.209 509.644 338.015 510.123 338.861C510.467 339.467 510.212 340.267 509.342 341.304C509.071 341.627 508.783 341.872 508.527 342.064C508.739 342.19 508.929 342.384 509.006 342.688C509.187 343.408 508.566 344.129 507.163 344.835C506.814 345.011 506.345 345.247 505.687 345.36C505.377 345.413 505.098 345.426 504.859 345.433C504.854 345.571 504.822 345.72 504.738 345.874C504.491 346.325 503.978 346.54 503.205 346.489C502.354 346.444 501.653 346.282 501.035 346.14C500.495 346.017 500.03 345.912 499.665 345.937C498.987 345.991 498.466 346.532 497.853 347.233L496.324 349.016Z" fill="#FAFAFA"/>
<path d="M499.371 406.673L498.747 406.283L498.596 405.564L498.747 406.283L498.019 406.366C498.008 406.299 497.968 406.144 497.908 405.901C497.583 404.573 496.59 400.532 495.762 394.166C495.184 389.723 494.857 385.155 494.79 380.587C494.722 376.012 494.939 372.548 495.113 369.764C495.245 367.664 495.404 365.665 495.561 363.717C495.978 358.514 496.371 353.598 496.078 348.157C496.014 346.942 495.878 344.413 494.397 341.723C493.538 340.162 492.355 338.777 490.88 337.606L491.797 336.456C493.425 337.75 494.734 339.285 495.688 341.017C497.33 344 497.478 346.756 497.549 348.079C497.847 353.617 497.449 358.58 497.028 363.833C496.873 365.774 496.713 367.765 496.582 369.856C496.41 372.614 496.195 376.047 496.262 380.564C496.328 385.077 496.651 389.59 497.221 393.977C498.039 400.262 499.018 404.243 499.339 405.551C499.51 406.25 499.546 406.396 499.371 406.673Z" fill="#FAFAFA"/>
<path d="M488.18 339.94C488.12 339.94 488.059 339.939 487.997 339.934C486.743 339.867 485.582 339.118 484.546 337.71C484.06 337.047 483.811 336.291 483.315 334.784C483.238 334.551 482.865 333.373 482.637 331.75C482.489 330.69 482.507 330.247 482.718 329.856C482.952 329.42 483.33 329.116 483.755 328.911C483.736 328.77 483.752 328.625 483.813 328.477C484.063 327.865 484.731 327.945 485.091 327.984C485.274 328.007 485.502 328.037 485.748 328.024C486.134 328.006 486.342 327.891 486.657 327.719C486.958 327.554 487.333 327.349 487.888 327.235C488.984 327.007 489.902 327.317 490.204 327.419C491.796 327.948 492.581 329.183 493.49 330.613C493.671 330.9 494.293 331.944 494.703 333.375C495 334.408 494.958 334.867 494.869 335.208C494.688 335.91 494.26 336.311 493.174 337.198C492.039 338.126 491.47 338.59 490.981 338.873C489.844 339.528 489.129 339.94 488.18 339.94Z" fill="#FAFAFA"/>
<path d="M184.237 208.855C219.626 208.855 248.314 180.234 248.314 144.928C248.314 109.621 219.626 81 184.237 81C148.847 81 120.159 109.621 120.159 144.928C120.159 180.234 148.847 208.855 184.237 208.855Z" fill="#FF5656"/>
<path d="M543.699 405.343C543.699 405.779 543.345 406.132 542.908 406.132H-5.71265V404.553H542.908C543.345 404.553 543.699 404.906 543.699 405.343V405.343Z" fill="#B7B9C0"/>
<path d="M461.034 405.282C461.034 441.108 464.803 467.33 425.697 470.15C383.704 473.179 390.36 441.108 390.36 405.282C390.36 369.457 384.706 333.834 425.697 340.415C444.965 343.508 461.034 369.457 461.034 405.282Z" fill="#272E43"/>
<path d="M401.668 450.408C404.79 450.408 407.322 430.204 407.322 405.282C407.322 380.36 404.79 360.157 401.668 360.157C398.545 360.157 396.014 380.36 396.014 405.282C396.014 430.204 398.545 450.408 401.668 450.408Z" fill="#B7B9C0"/>
<path d="M177.996 347.591C177.996 379.206 181.323 402.347 146.812 404.836C109.754 407.508 115.628 379.206 115.628 347.591C115.628 315.976 110.638 284.539 146.812 290.347C163.816 293.076 177.996 315.976 177.996 347.591Z" fill="#272E43"/>
<path d="M125.607 387.413C128.362 387.413 130.596 369.584 130.596 347.591C130.596 325.598 128.362 307.769 125.607 307.769C122.851 307.769 120.617 325.598 120.617 347.591C120.617 369.584 122.851 387.413 125.607 387.413Z" fill="#B7B9C0"/>
<path d="M231.579 404.812C231.579 440.638 235.348 466.86 196.242 469.68C154.249 472.708 160.905 440.638 160.905 404.812C160.905 368.987 155.251 333.364 196.242 339.945C215.51 343.038 231.579 368.987 231.579 404.812Z" fill="#272E43"/>
<path d="M172.212 449.938C175.335 449.938 177.866 429.734 177.866 404.812C177.866 379.89 175.335 359.687 172.212 359.687C169.09 359.687 166.558 379.89 166.558 404.812C166.558 429.734 169.09 449.938 172.212 449.938Z" fill="#B7B9C0"/>
<path d="M119.913 271.787V294.024L113.788 304.22L115.673 339.945L117.198 340.885L116.144 304.69C126.88 300.703 130.391 308.048 129.337 322.553L127.452 346.995L157.606 365.798L161.376 327.253L175.51 320.672L191.059 386.01H451.562C462.301 386.01 470.882 377.095 470.447 366.391L467.159 285.418L458.289 276.569L450.072 181.745C448.022 158.097 427.924 140.099 404.138 140.61L241.179 144.114C232.338 144.304 223.604 146.08 215.393 149.356L175.982 165.084L150.543 190.463L146.77 251.574L137.151 250.74C130.232 250.139 123.921 254.702 122.339 261.448L119.913 271.787H119.913Z" fill="#B7B9C0"/>
<path d="M204.251 359.687C209.456 359.687 213.675 355.478 213.675 350.286C213.675 345.094 209.456 340.885 204.251 340.885C199.047 340.885 194.828 345.094 194.828 350.286C194.828 355.478 199.047 359.687 204.251 359.687Z" fill="#272E43"/>
<path d="M225.925 359.687C231.129 359.687 235.348 355.478 235.348 350.286C235.348 345.094 231.129 340.885 225.925 340.885C220.72 340.885 216.501 345.094 216.501 350.286C216.501 355.478 220.72 359.687 225.925 359.687Z" fill="#272E43"/>
<path d="M437.005 359.687C442.209 359.687 446.428 355.478 446.428 350.286C446.428 345.094 442.209 340.885 437.005 340.885C431.8 340.885 427.582 345.094 427.582 350.286C427.582 355.478 431.8 359.687 437.005 359.687Z" fill="#272E43"/>
<path d="M458.678 359.687C463.882 359.687 468.101 355.478 468.101 350.286C468.101 345.094 463.882 340.885 458.678 340.885C453.474 340.885 449.255 345.094 449.255 350.286C449.255 355.478 453.474 359.687 458.678 359.687Z" fill="#272E43"/>
<path d="M443.974 261.982H222.439C220.745 261.982 219.169 261.31 218 260.087C216.831 258.864 216.231 257.261 216.312 255.573L219.548 187.298C219.701 184.07 222.358 181.508 225.597 181.467L434.778 178.781C437.866 178.751 440.545 181.037 440.941 184.122L450.058 255.084C450.282 256.827 449.743 258.585 448.579 259.905C447.414 261.225 445.736 261.982 443.974 261.982H443.974Z" fill="#FAFAFA"/>
<path d="M191.508 258.625H177.133C175.428 258.625 173.786 257.909 172.629 256.659C171.471 255.41 170.884 253.721 171.018 252.024L175.155 199.64C175.382 196.764 177.54 194.47 180.403 194.062L195.257 191.945C197.116 191.682 198.968 192.266 200.335 193.554C201.702 194.842 202.395 196.651 202.237 198.519L197.62 253.02C197.35 256.215 194.722 258.625 191.508 258.625V258.625Z" fill="#FAFAFA"/>
<path d="M158.452 257.294C158.303 257.294 158.154 257.288 158.004 257.278L156.316 257.158C154.649 257.039 153.138 256.271 152.061 254.996C150.985 253.72 150.483 252.104 150.65 250.444L155.293 204.121C155.568 201.379 157.663 199.147 160.388 198.694C162.246 198.383 164.112 198.93 165.509 200.189C166.906 201.447 167.638 203.244 167.519 205.118L164.563 251.561C164.459 253.202 163.718 254.701 162.476 255.783C161.349 256.766 159.934 257.294 158.452 257.294L158.452 257.294Z" fill="#FAFAFA"/>
<path d="M135.079 351.803L132.635 298.58C132.635 298.58 126.981 291.059 123.211 292.939C119.442 294.819 113.844 305.275 113.844 305.275C113.844 305.275 124.769 304.561 124.461 316.142C124.154 327.723 126.333 346.459 126.333 346.459L135.079 351.803Z" fill="#9FA2AB"/>
<path d="M157.836 365.709L159.02 326.002L171.007 311.878C171.007 311.878 187.026 308.425 186.687 326.535C186.347 344.645 191.53 386.48 191.53 386.48L179.816 379.14C179.816 379.14 176.924 334.304 168.443 329.603C159.962 324.903 162.789 328.663 162.789 328.663L157.836 365.709H157.836Z" fill="#9FA2AB"/>
<path d="M145.353 263.92L136.065 258.625H137.079C138.528 258.625 139.702 257.453 139.702 256.008V233.038C139.702 231.593 138.528 230.422 137.079 230.422H127.248C125.799 230.422 124.625 231.593 124.625 233.038V256.008C124.625 257.453 125.799 258.625 127.248 258.625H132.267L144.418 265.552L145.353 263.92V263.92Z" fill="#272E43"/>
<path d="M157.9 298.337L150.655 296.258C148.904 295.756 147.077 296.765 146.574 298.511C146.07 300.258 147.081 302.081 148.832 302.583L156.077 304.661C157.827 305.164 159.655 304.155 160.158 302.409C160.661 300.662 159.65 298.839 157.9 298.337Z" fill="#272E43"/>
<path d="M453.052 231.597L422.074 230.263C420.254 230.184 418.715 231.593 418.636 233.408C418.558 235.224 419.969 236.759 421.789 236.837L452.767 238.171C454.587 238.25 456.126 236.841 456.205 235.026C456.283 233.21 454.872 231.675 453.052 231.597Z" fill="#272E43"/>
<path d="M482.264 293.644L451.286 292.31C449.466 292.232 447.927 293.64 447.848 295.455C447.77 297.271 449.181 298.806 451.001 298.885L481.979 300.219C483.799 300.297 485.338 298.889 485.417 297.073C485.495 295.258 484.084 293.722 482.264 293.644Z" fill="#272E43"/>
<path d="M355.965 365.328C395.518 365.328 427.582 333.339 427.582 293.879C427.582 254.419 395.518 222.431 355.965 222.431C316.412 222.431 284.349 254.419 284.349 293.879C284.349 333.339 316.412 365.328 355.965 365.328Z" fill="#272E43"/>
<path d="M355.965 336.184C379.384 336.184 398.37 317.244 398.37 293.879C398.37 270.515 379.384 251.574 355.965 251.574C332.546 251.574 313.561 270.515 313.561 293.879C313.561 317.244 332.546 336.184 355.965 336.184Z" fill="#B7B9C0"/>
<path d="M450.849 151.985C451.209 156.156 453.659 159.351 456.319 159.122C458.979 158.892 460.843 155.326 460.482 151.154C460.361 149.485 459.841 147.87 458.965 146.443L457.214 128.791L448.929 129.787L451.535 147.083C450.917 148.639 450.682 150.32 450.849 151.985L450.849 151.985Z" fill="#FFB6B6"/>
<path d="M426.869 49.802C426.869 49.802 436.011 47.233 439.525 51.5827C443.039 55.9324 456.147 98.648 456.147 98.648L460.217 144.621L447.239 140.703L442.188 104.447L433.707 85.6446L426.869 49.802Z" fill="#3A7540"/>
<path d="M423.884 22.147H396.022V48.5064H423.884V22.147Z" fill="#0F172E"/>
<path d="M409.658 35.5766C417.161 35.5766 423.243 29.5085 423.243 22.0233C423.243 14.538 417.161 8.46997 409.658 8.46997C402.155 8.46997 396.073 14.538 396.073 22.0233C396.073 29.5085 402.155 35.5766 409.658 35.5766Z" fill="#FFB6B6"/>
<path d="M403.227 0.100993C394.545 1.44172 394.959 4.66048 392.179 6.33139C387.28 9.27518 385.348 17.776 387.935 23.3855C388.626 24.8843 390.083 26.929 389.376 29.1367C388.833 30.8314 387.268 31.8312 386.974 32.0122C384.568 33.4941 386.14 31.7312 385.052 32.9708C383.852 34.339 385.711 36.2717 384.572 38.7219C383.562 40.8941 381.48 40.7108 381.209 42.0767C380.744 44.4289 386.089 49.1583 391.778 48.7864C396.843 48.4553 400.606 44.1831 401.866 40.1597C402.71 37.4645 403.074 32.8287 400.905 30.5745C400.601 30.2583 399.769 29.4927 398.984 28.1782C398.362 27.1379 397.543 25.7686 398.023 24.8233C398.534 23.8163 399.983 24.3463 400.905 23.3855C402.156 22.0825 400.67 19.8811 400.905 17.6344C401.304 13.83 406.707 9.25439 412.435 9.9662C418.932 10.7737 421.315 17.8226 421.562 18.5929C422.073 20.1895 422.063 21.7341 422.042 24.8233C422.013 29.2566 421.995 32.0352 420.601 34.8878C418.597 38.9907 416.043 38.5474 415.317 41.5975C414.185 46.353 419.511 51.129 420.121 51.662C424.638 55.6126 431.461 56.8004 432.611 55.0168C433.647 53.4095 429.097 50.9092 429.248 45.9108C429.379 41.5793 432.893 40.2588 432.13 37.2841C431.292 34.0096 426.816 34.7566 424.925 31.0537C423.16 27.5974 426.412 25.6798 425.885 18.5929C425.774 17.0938 425.302 12.7912 422.523 8.52841C421.298 6.65045 420.053 4.74048 417.719 3.7358C415.106 2.61107 407.82 -0.608199 403.227 0.100984V0.100993Z" fill="#0F172E"/>
<path d="M397.463 12.0825C397.815 15.0503 402.282 16.5047 404.188 16.8751C404.996 17.032 407.723 17.5622 410.433 16.3959C411.435 15.9647 411.8 15.5749 412.835 15.4373C414.237 15.2512 414.943 15.7831 417.159 16.3959C419.622 17.0772 420.854 17.418 421.482 16.8751C422.509 15.9877 421.72 13.0847 420.521 11.124C418.305 7.49845 414.247 6.37577 412.355 5.8521C410.193 5.25384 405.805 4.03977 401.786 6.33136C401.249 6.63774 397.105 9.06722 397.463 12.0825V12.0825Z" fill="#0F172E"/>
<path d="M463.591 278.742L470.524 278.905L474.389 247.827L464.157 247.585L463.591 278.742Z" fill="#FFB6B6"/>
<path d="M487.38 293.174C487.38 294.342 486.548 295.289 485.523 295.289H471.76C471.76 295.289 470.406 289.858 464.884 287.52L464.502 295.289H457.403L458.263 282.797C458.263 282.797 456.364 276.114 460.308 272.698C464.252 269.281 461.057 269.757 461.057 269.757L462.609 262.025L473.338 263.284L473.417 275.421L478.623 287.468L486.26 291.231C486.94 291.566 487.38 292.33 487.38 293.174L487.38 293.174H487.38Z" fill="#0F172E"/>
<path d="M432.066 217.872L438.846 216.416L435.332 185.296L425.326 187.445L432.066 217.872Z" fill="#FFB6B6"/>
<path d="M458.574 226.365C458.848 227.501 458.261 228.616 457.264 228.854L443.882 232.06C443.882 232.06 441.294 227.094 435.377 226.107L436.824 233.75L429.921 235.404L427.834 223.056C427.834 223.056 424.424 217 427.459 212.759C430.495 208.519 427.5 209.725 427.5 209.725L427.2 201.846L437.927 200.571L440.843 212.354L448.725 222.856L457.031 224.737C457.77 224.904 458.377 225.544 458.574 226.365H458.574V226.365Z" fill="#0F172E"/>
<path d="M419.101 37.2288L402.139 38.1689L397.427 47.57L379.523 56.9711L382.35 103.329L375.89 126.646L376.696 133.12L439.832 131.24L436.062 61.6716L437.005 50.3903L424.755 46.6299L419.101 37.2288Z" fill="#3A7540"/>
<path d="M377.167 124.189C377.167 124.189 363.033 149.106 377.167 152.629C383.455 154.197 390.116 155.253 395.574 155.943C402.109 156.768 408.124 152.293 409.206 145.812L424.284 197.518L439.361 193.757L442.188 166.842L460.507 185.119L458.207 258.625L475.169 257.685L493.073 177.775C493.073 177.775 494.015 172.135 479.881 164.614C465.746 157.093 440.303 132.65 440.303 132.65L396.956 119.489L377.167 124.189Z" fill="#0F172E"/>
<path d="M406.85 140.641L382.35 124.659L412.504 92.6954C412.504 92.6954 429.466 86.1146 434.178 111.498C438.889 136.881 441.716 159.443 441.716 159.443L406.85 140.641Z" fill="#0F172E"/>
<path d="M356.299 92.9286L357.373 85.6445C358.156 80.336 354.626 75.7032 349.84 74.5627V71.5428C349.84 68.9468 347.73 66.8423 345.128 66.8423C342.526 66.8423 340.417 68.9468 340.417 71.5428V75.5711L322.512 79.36V74.3632C322.512 71.7671 320.403 69.6626 317.801 69.6626C315.199 69.6626 313.089 71.7671 313.089 74.3632V79.1122L311.309 78.649C305.994 77.2655 301.795 83.35 305.101 87.7269C305.143 87.7834 305.187 87.8401 305.231 87.8967C309.644 93.5576 310.905 98.5896 310.905 98.5896L307.753 115.572L311.343 150.881C311.806 155.432 315.732 158.841 320.314 158.672L355.173 157.384C359.751 157.215 363.416 153.532 363.541 148.963C363.985 132.689 364.036 97.2702 356.299 92.9286V92.9286Z" fill="#272E43"/>
<path d="M325.09 153.938C324.601 153.938 324.188 153.562 324.151 153.068L322.26 127.908C322.221 127.39 322.61 126.939 323.129 126.901C323.643 126.86 324.1 127.25 324.139 127.768L326.03 152.928C326.07 153.445 325.68 153.897 325.161 153.935C325.137 153.937 325.113 153.938 325.09 153.938Z" fill="#FA8181"/>
<path d="M310.904 99.53C310.444 99.53 310.041 99.1935 309.973 98.7262C309.897 98.2126 310.253 97.7352 310.768 97.6599L356.31 91.0011C356.825 90.9267 357.303 91.2811 357.379 91.7947C357.454 92.3084 357.098 92.7858 356.583 92.8611L311.042 99.5199C310.995 99.5268 310.949 99.53 310.904 99.53Z" fill="#FA8181"/>
<path d="M43.3794 371.923C43.0619 371.389 41.6884 371.961 41.4359 371.477C41.1843 370.994 42.4604 370.258 43.1895 368.577C43.321 368.273 44.1495 366.363 43.5361 365.774C42.3735 364.656 37.0534 369.267 35.1916 367.758C34.783 367.427 34.4976 366.766 33.2609 365.693C32.769 365.266 32.4715 365.073 32.1836 365.145C31.7751 365.247 31.7427 365.792 31.3047 366.864C30.6478 368.473 30.2592 368.376 29.8764 369.659C29.5923 370.612 29.6572 371.165 29.3229 371.273C28.8497 371.426 28.4142 370.416 27.8146 370.506C27.2027 370.598 26.8328 371.775 26.7159 372.656C26.4967 374.309 27.1051 375.399 27.4424 376.546C27.8088 377.793 28.0263 379.688 27.18 382.371L18.803 405.918C20.6524 401.087 26.0072 387.841 28.2573 382.92C28.9069 381.499 29.6241 380.057 31.0968 379.489C32.5146 378.941 34.4618 379.268 36.9442 378.671C37.2342 378.602 38.0387 378.397 38.14 377.925C38.2237 377.535 37.7504 377.317 37.8232 376.952C37.9207 376.461 38.8513 376.455 39.9949 375.89C40.8013 375.491 41.3037 375.016 41.7357 374.608C41.8659 374.485 43.802 372.634 43.3794 371.923H43.3794Z" fill="#FAFAFA"/>
<path d="M10.4216 384.319C10.0673 384.321 9.95233 385.158 9.64101 385.142C9.33082 385.126 9.337 384.289 8.72036 383.447C8.60916 383.295 7.90839 382.338 7.44141 382.468C6.55628 382.715 7.28968 386.651 6.01016 387.127C5.72935 387.231 5.32177 387.18 4.43693 387.476C4.08492 387.594 3.90425 387.684 3.85647 387.846C3.78867 388.075 4.04767 388.248 4.4489 388.772C5.05062 389.558 4.89072 389.72 5.41158 390.278C5.79825 390.692 6.08943 390.82 6.04605 391.015C5.98466 391.29 5.3619 391.212 5.23341 391.532C5.10228 391.858 5.57432 392.379 5.97394 392.69C6.72386 393.274 7.43601 393.291 8.09755 393.457C8.81647 393.637 9.81174 394.078 10.8876 395.266L20.0548 406.162C18.2113 403.862 13.2403 397.419 11.4681 394.897C10.9565 394.169 10.4544 393.402 10.5995 392.517C10.7392 391.664 11.4619 390.805 11.8846 389.417C11.934 389.255 12.0657 388.803 11.8626 388.617C11.6948 388.463 11.451 388.632 11.2922 388.491C11.0791 388.302 11.3446 387.844 11.3963 387.121C11.4327 386.611 11.3443 386.228 11.2682 385.899C11.2453 385.8 10.8934 384.318 10.4216 384.32V384.319Z" fill="#FAFAFA"/>
<path d="M17.491 385.903L17.2775 384.001L17.375 383.857C17.8264 383.191 18.0564 382.54 18.0592 381.922C18.0597 381.824 18.0551 381.725 18.0505 381.625C18.0321 381.229 18.009 380.736 18.2667 380.161C18.4112 379.841 18.817 379.099 19.4271 379.191C19.5914 379.214 19.7156 379.289 19.81 379.377L19.8532 379.309C20.0432 379.02 20.1937 378.896 20.3386 378.777C20.45 378.685 20.565 378.59 20.7454 378.366C20.8245 378.268 20.8862 378.182 20.9382 378.109C21.096 377.89 21.3021 377.628 21.6656 377.633C22.054 377.651 22.2573 377.971 22.3921 378.183C22.6328 378.562 22.7418 378.834 22.8141 379.015C22.8403 379.081 22.8702 379.156 22.8854 379.179C23.0105 379.362 24.0279 379.191 24.4111 379.128C25.272 378.985 26.017 378.861 26.3239 379.403C26.5438 379.79 26.3805 380.302 25.8237 380.966C25.6502 381.173 25.4657 381.33 25.3019 381.453C25.4377 381.534 25.5591 381.658 25.6084 381.852C25.7243 382.313 25.3272 382.775 24.4286 383.226C24.2055 383.339 23.905 383.49 23.484 383.562C23.2857 383.596 23.1072 383.605 22.9544 383.609C22.9512 383.697 22.9305 383.793 22.8767 383.891C22.7188 384.18 22.3903 384.318 21.8952 384.285C21.3505 384.257 20.9018 384.153 20.5061 384.062C20.1606 383.983 19.8629 383.916 19.6292 383.932C19.1957 383.966 18.8617 384.313 18.4697 384.761L17.491 385.903L17.491 385.903Z" fill="#FAFAFA"/>
<path d="M18.4814 374.582L16.6921 375.27L16.5276 375.213C15.7668 374.946 15.0774 374.889 14.4776 375.043C14.3822 375.068 14.2882 375.097 14.1923 375.127C13.8124 375.245 13.3403 375.393 12.7177 375.29C12.3704 375.232 11.5482 375.028 11.4825 374.416C11.463 374.252 11.5045 374.113 11.5661 373.999L11.4892 373.975C11.1606 373.865 11.0023 373.751 10.8498 373.642C10.7326 373.557 10.6117 373.47 10.3487 373.353C10.2334 373.302 10.1341 373.264 10.0506 373.232C9.79782 373.136 9.49185 373.003 9.4041 372.651C9.3234 372.272 9.58247 371.994 9.7539 371.81C10.0596 371.482 10.2963 371.308 10.4534 371.192C10.5108 371.15 10.5753 371.102 10.5937 371.082C10.74 370.914 10.3155 369.976 10.1577 369.622C9.80052 368.828 9.4914 368.14 9.93874 367.707C10.2586 367.396 10.7967 367.424 11.5815 367.793C11.8258 367.908 12.0248 368.046 12.1856 368.173C12.2295 368.022 12.3189 367.873 12.4951 367.776C12.9126 367.547 13.461 367.813 14.1269 368.566C14.293 368.753 14.5152 369.004 14.6923 369.392C14.7755 369.575 14.8288 369.745 14.872 369.891C14.9583 369.872 15.0561 369.868 15.165 369.895C15.4854 369.974 15.7023 370.256 15.7958 370.742C15.9064 371.275 15.9196 371.734 15.9319 372.139C15.943 372.493 15.9535 372.797 16.0279 373.019C16.1717 373.428 16.592 373.663 17.1267 373.927L18.4814 374.582H18.4814Z" fill="#FAFAFA"/>
<path d="M17.491 368.981L17.2775 367.079L17.375 366.935C17.8264 366.269 18.0564 365.618 18.0592 365C18.0597 364.902 18.0551 364.803 18.0505 364.703C18.0321 364.307 18.009 363.814 18.2667 363.239C18.4112 362.919 18.817 362.177 19.4271 362.269C19.5914 362.292 19.7156 362.367 19.81 362.455L19.8532 362.387C20.0432 362.098 20.1937 361.974 20.3386 361.855C20.45 361.763 20.565 361.668 20.7454 361.444C20.8245 361.346 20.8862 361.26 20.9382 361.187C21.096 360.968 21.3021 360.706 21.6656 360.711C22.054 360.729 22.2573 361.049 22.3921 361.261C22.6328 361.64 22.7418 361.912 22.8141 362.093C22.8403 362.159 22.8702 362.234 22.8854 362.257C23.0105 362.44 24.0279 362.269 24.4111 362.206C25.272 362.063 26.017 361.939 26.3239 362.481C26.5438 362.868 26.3805 363.38 25.8237 364.044C25.6502 364.251 25.4657 364.408 25.3019 364.531C25.4377 364.612 25.5591 364.736 25.6084 364.93C25.7243 365.391 25.3272 365.853 24.4286 366.304C24.2055 366.417 23.905 366.568 23.484 366.64C23.2857 366.674 23.1072 366.683 22.9544 366.687C22.9512 366.775 22.9305 366.871 22.8767 366.969C22.7188 367.258 22.3903 367.396 21.8952 367.363C21.3505 367.335 20.9018 367.231 20.5061 367.14C20.1606 367.061 19.8629 366.994 19.6292 367.01C19.1957 367.044 18.8617 367.391 18.4697 367.84L17.491 368.981L17.491 368.981Z" fill="#FAFAFA"/>
<path d="M19.4409 405.887L19.0415 405.638L18.9449 405.178L19.0415 405.638L18.5759 405.691C18.5685 405.648 18.5432 405.549 18.505 405.394C18.2966 404.543 17.6612 401.956 17.1311 397.882C16.7612 395.038 16.5518 392.114 16.5086 389.189C16.4653 386.261 16.6043 384.044 16.7156 382.262C16.7998 380.918 16.902 379.638 17.0023 378.391C17.2691 375.06 17.5208 371.914 17.3336 368.431C17.2921 367.653 17.2052 366.035 16.2573 364.312C15.7075 363.313 14.9501 362.427 14.006 361.677L14.5931 360.941C15.6353 361.769 16.4731 362.752 17.0837 363.861C18.1346 365.77 18.2294 367.534 18.275 368.381C18.4655 371.926 18.211 375.103 17.9414 378.465C17.842 379.708 17.7399 380.982 17.6561 382.32C17.5457 384.086 17.4081 386.284 17.4509 389.175C17.4932 392.064 17.7003 394.952 18.0652 397.761C18.5888 401.784 19.215 404.332 19.4207 405.17C19.5302 405.617 19.5532 405.71 19.4409 405.887H19.4409Z" fill="#FAFAFA"/>
<path d="M12.2779 363.171C12.2392 363.171 12.2001 363.17 12.1605 363.167C11.3581 363.124 10.615 362.645 9.95149 361.744C9.64045 361.319 9.48126 360.836 9.16377 359.871C9.11453 359.722 8.87528 358.967 8.72988 357.929C8.63464 357.25 8.64659 356.967 8.78141 356.716C8.93095 356.437 9.17298 356.242 9.44536 356.111C9.4334 356.021 9.44306 355.928 9.48217 355.834C9.64275 355.442 10.0697 355.493 10.3007 355.518C10.4176 355.533 10.5634 355.552 10.7208 355.544C10.9684 355.532 11.1013 355.458 11.3029 355.348C11.4956 355.243 11.7354 355.111 12.091 355.039C12.7923 354.893 13.3798 355.091 13.5735 355.156C14.5927 355.495 15.0952 356.286 15.6767 357.201C15.7927 357.384 16.1907 358.053 16.4534 358.969C16.643 359.63 16.6163 359.924 16.5592 360.142C16.4433 360.591 16.1695 360.848 15.4743 361.416C14.7482 362.01 14.3838 362.307 14.0709 362.488C13.3426 362.908 12.8852 363.171 12.2778 363.171L12.2779 363.171Z" fill="#FAFAFA"/>
<path d="M570.336 264.819L570.769 231.225L557.843 227.677L558.234 264.824L555.26 292.273L555.337 292.302C554.091 293.553 553.079 295.549 552.648 297.909C551.863 302.215 553.303 306.083 555.866 306.549C558.429 307.014 561.143 303.901 561.929 299.595C562.252 297.827 562.194 296.138 561.843 294.723L561.958 294.766L570.336 264.819Z" fill="#FFB6B6"/>
<path d="M546.828 185.85C546.828 185.85 552.694 181.375 556.835 187.916C560.976 194.457 572.363 227.505 572.363 227.505C572.363 227.505 575.656 242.652 574.872 244.89C574.088 247.127 573.053 266.822 573.053 266.822L556.874 263.894L557.266 244.89L541.849 220.339L546.828 185.85V185.85Z" fill="#9FA2AB"/>
<path d="M438.476 173.649L461.148 198.491L473.02 192.28L447.315 165.403L430.705 143.32L430.629 143.351C430.684 141.588 430.057 139.441 428.757 137.423C426.384 133.741 422.685 131.896 420.493 133.301C418.302 134.706 418.449 138.83 420.822 142.512C421.795 144.024 422.993 145.219 424.218 146.013L424.105 146.06L438.476 173.649H438.476Z" fill="#FFB6B6"/>
<path d="M510.987 215.341C510.987 215.341 509.763 222.606 502.261 220.647C494.76 218.688 463.824 202.295 463.824 202.295C463.824 202.295 451.053 193.47 450.094 191.301C449.136 189.132 436.416 174.036 436.416 174.036L450.241 165.156L462.959 179.309L491.025 186.748L510.987 215.341V215.341Z" fill="#9FA2AB"/>
<path d="M515.283 166.859C525.227 166.859 533.289 158.817 533.289 148.896C533.289 138.975 525.227 130.932 515.283 130.932C505.339 130.932 497.277 138.975 497.277 148.896C497.277 158.817 505.339 166.859 515.283 166.859Z" fill="#FFB6B6"/>
<path d="M546.869 463.583L535.694 463.582L530.378 420.579L546.871 420.58L546.869 463.583Z" fill="#FFB6B6"/>
<path d="M508.582 463.33C508.234 463.915 508.05 465.802 508.05 466.482C508.05 468.572 509.748 470.266 511.843 470.266H546.451C547.88 470.266 549.039 469.11 549.039 467.684V466.247C549.039 466.247 550.751 461.927 547.226 456.602C547.226 456.602 542.845 460.771 536.299 454.241L534.369 450.752L520.396 460.947L512.65 461.898C510.956 462.106 509.454 461.866 508.582 463.33H508.582Z" fill="#0F172E"/>
<path d="M514.83 463.583L503.655 463.582L498.339 420.579L514.833 420.58L514.83 463.583Z" fill="#FFB6B6"/>
<path d="M476.543 463.33C476.195 463.915 476.011 465.802 476.011 466.482C476.011 468.572 477.71 470.266 479.804 470.266H514.412C515.841 470.266 517 469.11 517 467.684V466.247C517 466.247 518.712 461.927 515.187 456.602C515.187 456.602 510.806 460.771 504.26 454.241L502.33 450.752L488.357 460.947L480.612 461.898C478.917 462.106 477.415 461.866 476.543 463.33H476.543Z" fill="#0F172E"/>
<path d="M554.795 276.957L482.236 280.718L498.256 444.297L514.275 443.357L519.929 344.645L522.285 309.391L531.894 440.651L548.199 440.536L554.795 276.957Z" fill="#0F172E"/>
<path d="M533.3 171.665L505.819 170.725L487.419 188.979V248.78L480.233 286.358C480.233 286.358 528.562 281.658 538.038 291.059C547.514 300.46 564.571 293.879 564.571 293.879L556.043 244.161L552.252 186.707L533.3 171.665Z" fill="#9FA2AB"/>
<path d="M523.209 166.494L507.892 162.884L505.528 153.619C505.528 153.619 505.471 149.251 503.404 148.764C501.338 148.277 497.692 145.241 497.692 145.241L501.224 139.542C501.224 139.542 492.713 138.625 495.268 137.05C497.823 135.475 498.192 136.185 498.555 132.382C499.306 124.515 523.435 125.663 525.309 129.98C525.309 129.98 528.41 130.711 529.988 133.26C531.567 135.809 532.356 137.083 533.389 137.327C534.423 137.57 534.968 139.876 534.968 139.876C534.968 139.876 538.613 142.912 537.336 143.699C536.058 144.487 535.082 148.611 535.082 148.611C535.082 148.611 538.483 152.678 530.875 161.77L526.821 168.275L523.209 166.494V166.494Z" fill="#0F172E"/>
<path d="M542.879 192.913L543.953 185.629C544.736 180.32 541.206 175.687 536.42 174.547V171.527C536.42 168.931 534.31 166.826 531.708 166.826C529.106 166.826 526.997 168.931 526.997 171.527V175.555L509.093 179.344V174.347C509.093 171.751 506.983 169.647 504.381 169.647C501.779 169.647 499.669 171.751 499.669 174.347V179.096L497.889 178.633C492.574 177.25 488.375 183.334 491.681 187.711C491.723 187.768 491.767 187.824 491.811 187.881C496.224 193.542 497.485 198.574 497.485 198.574L494.333 215.557L497.923 250.865C498.386 255.416 502.312 258.826 506.894 258.656L541.753 257.368C546.331 257.199 549.996 253.516 550.121 248.947C550.565 232.673 550.616 197.254 542.879 192.913V192.913Z" fill="#272E43"/>
<path d="M511.67 253.922C511.181 253.922 510.768 253.546 510.731 253.052L508.84 227.892C508.801 227.375 509.19 226.923 509.709 226.885C510.223 226.844 510.68 227.234 510.719 227.752L512.611 252.912C512.65 253.43 512.26 253.881 511.741 253.919C511.717 253.921 511.694 253.922 511.67 253.922Z" fill="#FA8181"/>
<path d="M497.484 199.514C497.024 199.514 496.622 199.178 496.553 198.71C496.478 198.197 496.834 197.719 497.349 197.644L542.89 190.985C543.405 190.911 543.884 191.265 543.959 191.779C544.035 192.293 543.678 192.77 543.164 192.845L497.622 199.504C497.575 199.511 497.529 199.514 497.484 199.514Z" fill="#FA8181"/>
<path d="M499.562 255.427L481.765 212.559L486.477 214.44L505.43 252.421L499.562 255.427Z" fill="#272E43"/>
<path d="M610.604 470.21C610.604 470.646 610.25 471 609.812 471H61.1923V469.421H609.812C610.25 469.421 610.604 469.774 610.604 470.21V470.21Z" fill="#B7B9C0"/>
<path d="M416.142 135.066C419.198 137.935 423.159 138.686 424.988 136.746C426.818 134.805 425.823 130.907 422.765 128.038C421.56 126.876 420.093 126.018 418.486 125.537L405.384 113.547L399.875 119.801L413.377 130.957C413.956 132.527 414.905 133.936 416.142 135.066Z" fill="#FFB6B6"/>
<path d="M404.929 72.9453C404.929 72.9453 388.954 53.0912 382.821 54.6208C375.283 56.501 377.167 64.0219 369.37 84.1366C367.417 89.1742 365.366 94.0566 369.307 97.7597L380.174 107.97L403.34 127.457L412.659 117.724L394.145 93.9042L404.929 72.9454L404.929 72.9453Z" fill="#3A7540"/>
</g>
<defs>
<clipPath id="clip0_225_9490">
<rect width="666.88" height="471" fill="white"/>
</clipPath>
</defs>
</svg>
